<svg width="368" height="201" viewBox="0 0 368 201" fill="none" xmlns="http://www.w3.org/2000/svg">
<g clip-path="url(#clip0_2772_6809)">
<path d="M185.18 200.5C284.911 200.5 365.759 195.147 365.759 188.545C365.759 181.943 284.911 176.59 185.18 176.59C85.449 176.59 4.60095 181.943 4.60095 188.545C4.60095 195.147 85.449 200.5 185.18 200.5Z" fill="#F2F2F2"/>
<path d="M178.259 57.6724C148.838 57.6724 127.714 76.5483 127.714 120.592C127.714 170.508 148.838 183.721 178.259 183.721C207.68 183.721 230.063 169.25 230.063 120.592C230.063 68.5784 207.68 57.6724 178.259 57.6724ZM178.452 167.152C158.075 167.152 147.428 155.197 147.428 120.624C147.428 90.1185 158.51 74.0315 178.888 74.0315C199.266 74.0315 210.348 84.5984 210.348 120.624C210.348 154.326 198.83 167.152 178.452 167.152Z" fill="#2F2E41"/>
<path d="M110.096 148.906H97.9317V113.084C97.9317 111.182 97.1759 109.357 95.8306 108.012C94.4852 106.666 92.6605 105.911 90.7579 105.911H87.9076C86.9655 105.911 86.0326 106.096 85.1623 106.457C84.2919 106.817 83.5011 107.346 82.8349 108.012C82.1688 108.678 81.6403 109.469 81.2798 110.339C80.9193 111.21 80.7337 112.142 80.7337 113.084V148.906H46.4219C45.7161 148.906 45.0222 148.723 44.4076 148.376C43.793 148.029 43.2786 147.529 42.9143 146.924C42.5499 146.32 42.348 145.631 42.3282 144.926C42.3083 144.22 42.4711 143.521 42.8009 142.897L79.1161 74.1639C79.5689 73.307 79.8433 72.3672 79.9228 71.4013C80.0023 70.4354 79.8853 69.4634 79.5788 68.5439C79.2723 67.6245 78.7827 66.7767 78.1395 66.0517C77.4963 65.3267 76.7128 64.7396 75.8365 64.3257L73.6927 63.3134C72.0281 62.5273 70.125 62.4112 68.3772 62.9892C66.6294 63.5671 65.1706 64.7949 64.3028 66.4183L20.0116 149.273C19.2574 150.684 18.8628 152.259 18.8628 153.859C18.8628 155.137 19.1144 156.402 19.6033 157.582C20.0921 158.762 20.8087 159.834 21.7119 160.738C22.6152 161.641 23.6876 162.358 24.8678 162.846C26.048 163.335 27.3129 163.587 28.5904 163.587H80.7337V186.238C80.7337 187.367 80.9562 188.485 81.3883 189.529C81.8204 190.572 82.4538 191.52 83.2523 192.318C84.0508 193.117 84.9988 193.75 86.042 194.182C87.0853 194.615 88.2035 194.837 89.3327 194.837C90.462 194.837 91.5802 194.615 92.6234 194.182C93.6667 193.75 94.6147 193.117 95.4131 192.318C96.2116 191.52 96.845 190.572 97.2772 189.529C97.7093 188.485 97.9317 187.367 97.9317 186.238V163.587H110.096C112.043 163.587 113.91 162.814 115.287 161.437C116.663 160.06 117.437 158.193 117.437 156.246C117.437 154.299 116.663 152.432 115.287 151.056C113.91 149.679 112.043 148.906 110.096 148.906Z" fill="#2D61AC"/>
<path d="M335.348 148.906H323.184V113.084C323.184 111.182 322.428 109.357 321.083 108.012C319.737 106.666 317.913 105.911 316.01 105.911H313.16C312.218 105.911 311.285 106.096 310.414 106.457C309.544 106.817 308.753 107.346 308.087 108.012C307.421 108.678 306.892 109.469 306.532 110.339C306.171 111.21 305.986 112.142 305.986 113.084V148.906H271.674C270.968 148.906 270.274 148.723 269.66 148.376C269.045 148.029 268.531 147.529 268.166 146.924C267.802 146.32 267.6 145.631 267.58 144.926C267.56 144.22 267.723 143.521 268.053 142.897L304.368 74.1639C304.821 73.307 305.095 72.3672 305.175 71.4013C305.254 70.4354 305.137 69.4634 304.831 68.5439C304.524 67.6245 304.035 66.7767 303.392 66.0517C302.748 65.3267 301.965 64.7396 301.089 64.3257L298.945 63.3134C297.28 62.5273 295.377 62.4112 293.629 62.9892C291.881 63.5671 290.423 64.7949 289.555 66.4183L245.264 149.273C244.509 150.684 244.115 152.259 244.115 153.859C244.115 156.439 245.14 158.913 246.964 160.738C248.788 162.562 251.263 163.587 253.842 163.587H305.986V186.238C305.986 188.519 306.892 190.706 308.504 192.318C310.117 193.931 312.304 194.837 314.585 194.837C316.865 194.837 319.053 193.931 320.665 192.318C322.278 190.706 323.184 188.519 323.184 186.238V163.587H335.348C337.295 163.587 339.162 162.814 340.539 161.437C341.915 160.06 342.689 158.193 342.689 156.246C342.689 154.299 341.915 152.432 340.539 151.056C339.162 149.679 337.295 148.906 335.348 148.906Z" fill="#2D61AC"/>
<path d="M113.452 144.711H101.287V108.89C101.287 107.948 101.102 107.015 100.741 106.145C100.381 105.274 99.8525 104.484 99.1863 103.817C98.5202 103.151 97.7293 102.623 96.8589 102.262C95.9886 101.902 95.0557 101.716 94.1136 101.716H91.2633C89.3607 101.716 87.536 102.472 86.1906 103.817C84.8453 105.163 84.0894 106.988 84.0894 108.89V144.711H49.7776C49.0718 144.711 48.3779 144.529 47.7633 144.182C47.1487 143.835 46.6343 143.334 46.27 142.73C45.9056 142.125 45.7037 141.437 45.6839 140.731C45.664 140.026 45.8269 139.327 46.1566 138.703L82.4718 69.9696C82.9246 69.1127 83.199 68.1729 83.2785 67.2069C83.3581 66.241 83.241 65.269 82.9345 64.3496C82.628 63.4301 82.1384 62.5823 81.4952 61.8573C80.852 61.1324 80.0686 60.5452 79.1922 60.1314L77.0484 59.119C75.3838 58.333 73.4807 58.2169 71.7329 58.7948C69.9851 59.3728 68.5264 60.6005 67.6585 62.224L23.3673 145.079C22.6131 146.49 22.2185 148.065 22.2185 149.665C22.2185 152.245 23.2434 154.719 25.0677 156.543C26.8919 158.368 29.3662 159.393 31.9461 159.393H84.0894V182.044C84.0894 183.173 84.3119 184.291 84.744 185.334C85.1761 186.378 85.8095 187.326 86.608 188.124C87.4065 188.923 88.3545 189.556 89.3977 189.988C90.441 190.42 91.5592 190.643 92.6884 190.643C94.969 190.643 97.1562 189.737 98.7689 188.124C100.381 186.511 101.287 184.324 101.287 182.044V159.393H113.452C114.416 159.393 115.37 159.203 116.261 158.834C117.152 158.465 117.961 157.924 118.643 157.243C119.324 156.561 119.865 155.752 120.234 154.861C120.603 153.971 120.793 153.016 120.793 152.052C120.793 151.088 120.603 150.133 120.234 149.243C119.865 148.352 119.324 147.543 118.643 146.861C117.961 146.18 117.152 145.639 116.261 145.27C115.37 144.901 114.416 144.711 113.452 144.711Z" stroke="#3F3D56" stroke-miterlimit="10"/>
<path d="M341.64 144.711H329.476V108.89C329.476 106.988 328.72 105.163 327.375 103.817C326.029 102.472 324.205 101.716 322.302 101.716H319.452C318.51 101.716 317.577 101.902 316.706 102.262C315.836 102.623 315.045 103.151 314.379 103.817C313.713 104.484 313.184 105.274 312.824 106.145C312.463 107.015 312.278 107.948 312.278 108.89V144.711H277.966C277.26 144.711 276.566 144.529 275.952 144.182C275.337 143.835 274.823 143.334 274.458 142.73C274.094 142.125 273.892 141.437 273.872 140.731C273.852 140.026 274.015 139.327 274.345 138.703L310.66 69.9696C311.113 69.1127 311.387 68.1729 311.467 67.2069C311.546 66.241 311.429 65.269 311.123 64.3496C310.816 63.4301 310.327 62.5823 309.684 61.8573C309.04 61.1324 308.257 60.5452 307.381 60.1314L305.237 59.119C303.572 58.333 301.669 58.2169 299.921 58.7948C298.173 59.3728 296.715 60.6005 295.847 62.224L251.556 145.079C250.801 146.49 250.407 148.065 250.407 149.665C250.407 152.245 251.432 154.719 253.256 156.543C255.08 158.368 257.555 159.393 260.134 159.393H312.278V182.044C312.278 184.324 313.184 186.511 314.796 188.124C316.409 189.737 318.596 190.643 320.877 190.643C323.157 190.643 325.345 189.737 326.957 188.124C328.57 186.511 329.476 184.324 329.476 182.044V159.393H341.64C342.604 159.393 343.559 159.203 344.449 158.834C345.34 158.465 346.149 157.924 346.831 157.243C347.512 156.561 348.053 155.752 348.422 154.861C348.791 153.971 348.981 153.016 348.981 152.052C348.981 150.105 348.208 148.238 346.831 146.861C345.454 145.485 343.587 144.711 341.64 144.711Z" stroke="#3F3D56" stroke-miterlimit="10"/>
<path d="M184.97 53.8975C155.549 53.8975 134.425 72.7733 134.425 116.817C134.425 166.733 155.549 179.946 184.97 179.946C214.392 179.946 236.774 165.475 236.774 116.817C236.774 64.8035 214.392 53.8975 184.97 53.8975ZM185.164 163.378C164.786 163.378 154.14 151.422 154.14 116.849C154.14 86.3436 165.222 70.2566 185.6 70.2566C205.978 70.2566 217.06 80.8235 217.06 116.849C217.059 150.551 205.542 163.378 185.164 163.378Z" stroke="#3F3D56" stroke-miterlimit="10"/>
<path d="M161.387 11.164C163.827 11.164 165.804 9.18667 165.804 6.74752C165.804 4.30837 163.827 2.33105 161.387 2.33105C158.948 2.33105 156.971 4.30837 156.971 6.74752C156.971 9.18667 158.948 11.164 161.387 11.164Z" fill="#2F2E41"/>
<path d="M172.159 32.6002C179.001 32.6002 184.547 25.4143 184.547 16.5501C184.547 7.68586 179.001 0.5 172.159 0.5C165.318 0.5 159.772 7.68586 159.772 16.5501C159.772 25.4143 165.318 32.6002 172.159 32.6002Z" fill="#2F2E41"/>
<path opacity="0.1" d="M172.159 27.7529C165.954 27.7529 160.814 21.8406 159.912 14.1265C159.818 14.9309 159.772 15.7402 159.772 16.5501C159.772 25.4143 165.318 32.6002 172.159 32.6002C179.001 32.6002 184.547 25.4144 184.547 16.5501C184.547 15.7402 184.5 14.9309 184.406 14.1265C183.505 21.8406 178.365 27.7529 172.159 27.7529Z" fill="black"/>
<path d="M197.367 63.5536C197.101 64.6468 195.954 65.5223 194.683 66.1341C192.012 67.4201 188.718 67.8039 185.523 67.9327C184.707 67.9823 183.89 67.9671 183.077 67.8875C181.502 67.7352 180.024 67.056 178.883 65.9597C178.802 65.9066 178.735 65.8338 178.689 65.7479C178.644 65.6621 178.62 65.5661 178.622 65.4688C178.623 65.3716 178.649 65.2763 178.698 65.1919C178.746 65.1075 178.815 65.0367 178.898 64.9862C180.599 63.1174 183.438 61.9716 186.298 61.1466C188.466 60.521 192.248 58.9006 194.613 59.1193C196.904 59.3311 197.703 62.1733 197.367 63.5536Z" fill="#3F3D56"/>
<path opacity="0.1" d="M197.367 63.5536C197.101 64.6468 195.954 65.5223 194.683 66.1341C192.012 67.4201 188.718 67.8039 185.523 67.9327C184.707 67.9823 183.89 67.9671 183.077 67.8875C181.502 67.7352 180.024 67.056 178.883 65.9597C178.802 65.9066 178.735 65.8338 178.689 65.7479C178.644 65.6621 178.62 65.5661 178.622 65.4688C178.623 65.3716 178.649 65.2763 178.698 65.1919C178.746 65.1075 178.815 65.0367 178.898 64.9862C180.599 63.1174 183.438 61.9716 186.298 61.1466C188.466 60.521 192.248 58.9006 194.613 59.1193C196.904 59.3311 197.703 62.1733 197.367 63.5536Z" fill="black"/>
<path d="M163.408 55.383C162.593 56.9808 162.445 58.837 162.998 60.5436C163.56 62.2372 164.612 63.7261 166.02 64.8216C169.476 67.5916 174.232 67.9728 178.661 67.9343C182.542 67.9006 186.418 67.6349 190.268 67.1388C191.558 67.0245 192.825 66.7301 194.034 66.2643C195.479 65.639 196.749 64.4919 197.264 63.0034C197.778 61.5149 197.413 59.6922 196.191 58.6989C195.117 57.826 193.636 57.706 192.255 57.6229L184.351 57.148C185.132 56.3578 186.172 55.9108 187.123 55.3363C188.384 54.5741 189.223 53.2945 190.14 52.1408C191.553 50.4516 193.091 48.8705 194.74 47.4108C194.998 48.8864 195.931 50.098 197.03 51.1162C198.128 52.1343 199.395 52.954 200.536 53.9233C203.302 56.2712 205.293 59.4577 208.202 61.6259C210.203 61.1002 212.073 60.1663 213.696 58.8831L212.565 56.8355C212.471 56.6247 212.325 56.4417 212.139 56.3039C211.819 56.107 211.407 56.2085 211.035 56.1528C210.042 56.0038 209.609 54.8574 209.219 53.9319C208.149 51.3913 206.101 49.4201 204.352 47.2894C203.061 45.7166 201.915 44.0297 200.93 42.2494C200.342 41.1876 199.804 40.082 199.007 39.1673C198.209 38.2525 197.092 37.5333 195.878 37.5308C194.806 37.5285 193.817 38.0729 192.895 38.6204C190.087 40.2883 187.386 42.1289 184.806 44.1316C183.456 45.1797 182.114 46.2871 180.531 46.9298C179.864 47.2003 179.161 47.3853 178.521 47.7145C177.401 48.2911 176.55 49.2667 175.635 50.1328C172.37 53.2216 167.9 55.223 163.408 55.383Z" fill="#3F3D56"/>
<path d="M179.934 33.3972C179.898 34.3414 179.697 35.272 179.341 36.1473C179.16 36.5838 178.892 36.9785 178.552 37.3067C178.213 37.6349 177.809 37.8897 177.366 38.055C176.738 38.2233 176.079 38.2447 175.441 38.1174C174.885 38.0593 174.349 37.8767 173.873 37.5832C173.132 37.0736 172.763 36.1645 172.628 35.2747C172.493 34.3861 172.554 33.478 172.467 32.5829C172.383 31.8598 172.246 31.1441 172.056 30.4414C171.998 30.2077 171.938 29.975 171.88 29.7423C171.823 29.5096 171.767 29.277 171.715 29.0443C171.668 28.8256 171.624 28.6059 171.586 28.3851C171.555 28.1987 171.527 28.0113 171.507 27.8228C171.488 27.2639 171.395 26.7101 171.23 26.1758C171.075 25.8292 170.881 25.5015 170.652 25.1987C170.554 25.0587 170.459 24.9187 170.372 24.7733C170.12 24.3953 170.003 23.9433 170.039 23.4903C170.05 23.4203 170.067 23.3514 170.09 23.2846C170.099 23.2587 170.108 23.2329 170.119 23.2081C170.216 23.1818 170.305 23.1322 170.378 23.0637C170.452 22.9952 170.507 22.9098 170.54 22.8149C170.577 22.6111 170.56 22.4012 170.49 22.2063C170.409 21.934 170.299 21.6714 170.161 21.4232C170.071 21.2595 169.764 20.9643 169.761 20.7769C169.757 20.3999 170.494 20.0961 170.792 19.9474C171.703 19.4914 172.719 19.2854 173.735 19.3507C174.387 19.3948 175.094 19.5952 175.453 20.1413C175.777 20.6336 175.733 21.2713 175.871 21.8433C175.886 21.9264 175.921 22.0046 175.974 22.0706C176.044 22.1346 176.132 22.1753 176.227 22.1869C176.386 22.2187 176.55 22.2252 176.712 22.2063H176.713C176.755 22.2029 176.798 22.1968 176.84 22.188C177.091 22.1416 177.329 22.0388 177.536 21.8875C177.669 21.8519 177.804 21.8228 177.939 21.8002C177.945 21.7996 177.95 21.7986 177.956 21.797C178.495 23.5 178.565 25.3258 179.007 27.0601C179.226 27.9229 179.539 28.775 179.583 29.6626C179.587 29.7014 179.588 29.7412 179.589 29.7811C179.595 30.0665 179.573 30.3541 179.584 30.6385C179.588 30.7666 179.603 30.8941 179.627 31.0198C179.676 31.2221 179.736 31.4213 179.807 31.6166L179.811 31.6263C179.831 31.6888 179.85 31.7523 179.867 31.8159C179.878 31.8622 179.889 31.9074 179.898 31.9538L179.899 31.957C179.979 32.433 179.991 32.9179 179.934 33.3972Z" fill="#FBBEBE"/>
<path d="M172.375 22.2591C175.885 22.2591 178.73 19.4137 178.73 15.9037C178.73 12.3937 175.885 9.54834 172.375 9.54834C168.865 9.54834 166.019 12.3937 166.019 15.9037C166.019 19.4137 168.865 22.2591 172.375 22.2591Z" fill="#FBBEBE"/>
<path d="M212.724 50.5311C212.54 48.7972 211.923 47.1372 210.931 45.7031C211.096 46.6834 211.261 47.6633 211.427 48.6428C211.221 48.7023 211.003 48.7005 210.798 48.6376C210.593 48.5746 210.411 48.4532 210.274 48.2884C210.007 47.9542 209.802 47.5743 209.67 47.167C208.948 45.3746 208.004 43.6799 206.86 42.1226C202.814 41.7854 198.814 40.1082 195.256 38.1531C191.697 36.1991 188.367 33.8562 184.855 31.8193C184.246 31.4513 183.612 31.1273 182.957 30.8498C181.858 30.4092 180.625 30.1809 179.583 29.6627C179.513 29.6283 179.443 29.5917 179.374 29.554C179.139 29.426 178.916 29.2763 178.709 29.1069C178.596 29.0159 178.49 28.918 178.39 28.8139C177.87 28.2093 177.458 27.5199 177.171 26.7759C176.612 25.5393 176.413 24.0474 175.855 22.8108C176.112 22.5711 176.4 22.3678 176.711 22.2065H176.713C176.758 22.1828 176.803 22.1601 176.849 22.1386C177.07 22.0346 177.3 21.9506 177.535 21.8876C177.669 21.8521 177.804 21.823 177.939 21.8004C177.945 21.7998 177.95 21.7987 177.956 21.7971C178.585 21.6946 179.23 21.7456 179.835 21.9458C180.721 22.2452 181.467 22.8431 182.212 23.4086C183.421 24.2605 184.581 25.1805 185.686 26.164C186.299 26.7522 186.86 27.3985 187.52 27.9328C188.069 28.3563 188.647 28.7397 189.251 29.08C192.824 31.2085 196.397 33.3367 199.971 35.4645C201.181 36.1851 202.392 36.9058 203.574 37.6684C205.371 38.8275 207.103 40.0834 208.834 41.3384C209.854 42.0773 210.874 42.8166 211.893 43.5563C212.228 43.7697 212.522 44.0411 212.761 44.3577C212.972 44.7173 213.103 45.1181 213.145 45.5329C213.401 47.2089 213.257 48.9216 212.724 50.5311Z" fill="#FBBEBE"/>
<path d="M181.51 38.1767C181.082 40.0995 179.138 41.2618 178.123 42.9508C176.86 45.047 177.375 47.4836 177.849 49.8847C176.983 50.6312 176.117 51.3777 175.25 52.1242C174.772 52.5346 174.293 52.9471 173.778 53.3101C173.028 53.8132 172.243 54.2638 171.43 54.6588C170.663 55.053 169.896 55.4476 169.129 55.8426C168.416 56.2435 167.661 56.5636 166.877 56.797C165.366 57.1848 163.761 56.9133 162.265 56.4641C162.089 56.4179 161.92 56.3487 161.761 56.2584C161.668 56.2028 161.587 56.1292 161.522 56.0419C161.375 55.7776 161.321 55.4712 161.37 55.1726C161.522 52.6563 162.137 50.1928 162.75 47.7475C163.078 46.2806 163.518 44.8411 164.068 43.442C164.606 42.2432 165.226 41.0822 165.921 39.967C166.689 38.5639 167.599 37.2432 168.636 36.0256C169.141 35.557 169.566 35.009 169.894 34.4034C170.276 33.5308 170.129 32.5301 170.206 31.5801C170.266 30.8662 170.455 30.1693 170.765 29.5237V29.5226C170.931 29.1749 171.131 28.8444 171.362 28.5359C171.467 28.7794 171.571 29.0225 171.676 29.2652C171.745 29.4246 171.813 29.5837 171.88 29.7424C171.969 29.9471 172.056 30.151 172.143 30.3542C172.394 30.9381 172.645 31.5215 172.895 32.1047C173.166 32.8391 173.551 33.5259 174.037 34.1395C174.259 34.4536 174.559 34.7048 174.907 34.8685C175.255 35.0322 175.64 35.1028 176.024 35.0734C176.407 35.044 176.777 34.9156 177.096 34.7007C177.415 34.4859 177.673 34.1919 177.845 33.8475C178.207 33.2048 178.469 32.5107 178.622 31.789C178.835 30.9104 178.865 29.9973 178.709 29.1069C178.449 27.392 177.72 25.6405 177.19 24.0473C176.974 23.5161 176.849 22.9524 176.82 22.3798C176.821 22.3155 176.828 22.2513 176.84 22.1881C176.843 22.1719 176.846 22.1547 176.849 22.1385C177.07 22.0346 177.3 21.9506 177.536 21.8875C177.669 21.852 177.804 21.8229 177.94 21.8003C178.406 24.3252 178.873 26.8501 179.341 29.3751C179.352 29.4343 179.364 29.4936 179.374 29.5539C179.441 29.9158 179.509 30.2778 179.584 30.6386C179.652 30.9661 179.726 31.2925 179.807 31.6167L179.811 31.6264C179.839 31.7363 179.868 31.8451 179.898 31.9539L179.899 31.9571C179.982 32.2544 180.075 32.5495 180.179 32.8404C180.812 34.593 181.917 36.3574 181.51 38.1767Z" fill="#2D61AC"/>
<path d="M207.303 65.1979C207.283 65.5683 207.355 65.9379 207.512 66.2739C207.91 67.0009 208.864 67.1661 209.69 67.2341C214.514 67.6306 219.368 67.4828 224.159 66.7933C224.419 66.7755 224.671 66.6972 224.895 66.5647C225.576 66.0871 225.156 64.9232 224.413 64.5506C223.669 64.178 222.786 64.2678 221.97 64.1064C221.159 63.9023 220.387 63.5675 219.684 63.115C218.029 62.1641 216.398 61.1727 214.791 60.1408C213.834 59.5264 212.705 58.8708 211.628 59.235C208.709 60.2223 207.284 62.0497 207.303 65.1979Z" fill="#3F3D56"/>
<path d="M171.74 28.9096V28.9107C171.733 28.9559 171.725 29.0001 171.715 29.0442C171.704 29.1175 171.69 29.1918 171.676 29.265C171.542 29.9491 171.378 30.6298 171.19 31.3063C170.673 33.1752 169.98 35.014 169.293 36.8258C167.449 41.6839 165.604 46.5424 163.759 51.4012C163.294 52.6249 162.83 53.8497 162.301 55.0486C162.124 55.4482 161.942 55.8511 161.761 56.2582C161.113 57.7157 160.49 59.2205 160.283 60.7717C160.09 61.7925 160.068 62.8383 160.218 63.8664C160.424 64.8833 161.042 65.8764 162.008 66.2524C162.48 66.4366 163.155 66.6833 163.026 67.1734C162.956 67.4427 162.65 67.5741 162.375 67.6193C162.012 67.6771 161.641 67.6544 161.288 67.5528C160.936 67.4511 160.609 67.2731 160.333 67.0312C159.817 66.5734 159.42 65.8614 158.734 65.7849C158.259 65.7332 157.822 66.0176 157.387 66.2168C155.612 67.028 153.543 66.4603 151.679 65.884C151.825 65.1289 152.584 64.6312 153.337 64.4804C154.089 64.3285 154.868 64.4363 155.636 64.4158C155.882 64.4289 156.126 64.3661 156.335 64.2359C156.523 64.0639 156.654 63.8394 156.712 63.5917C157.207 62.1258 157.575 60.6201 157.812 59.0913C158.06 57.4938 158.163 55.8715 158.517 54.2935C158.791 53.0622 159.216 51.8698 159.58 50.6612C160.284 48.1727 160.862 45.6504 161.312 43.1037C161.539 42.0456 161.702 40.9747 161.8 39.8969C161.861 39.0028 161.832 38.1044 161.918 37.2136C162.063 36.0546 162.305 34.9099 162.641 33.7914C162.971 32.5709 163.3 31.3512 163.629 30.1322C164.117 28.3279 164.64 26.4536 165.877 25.0511C166.307 24.5574 166.833 24.1571 167.423 23.8751C168.014 23.593 168.656 23.4353 169.31 23.4116C169.555 23.4113 169.8 23.4377 170.039 23.4903C170.079 23.4999 170.119 23.5096 170.159 23.5204C170.42 23.5887 170.67 23.6923 170.903 23.8285C171.285 23.5861 171.478 23.6712 171.732 24.045C171.954 24.4406 172.058 24.8912 172.033 25.3441C172.055 26.5394 171.956 27.7338 171.74 28.9096Z" fill="#FBBEBE"/>
<path d="M172.159 30.3381L172.143 30.3543L172.056 30.4415L171.19 31.3065L170.765 29.5237L169.31 23.4118C169.555 23.4115 169.8 23.4378 170.039 23.4904C170.05 23.4204 170.067 23.3515 170.09 23.2847L170.159 23.5206L170.652 25.1988L171.586 28.3851L171.74 28.9097V28.9108L172.159 30.3381Z" fill="#2D61AC"/>
<path d="M177.655 10.8392C177.654 11.4051 177.542 11.9653 177.325 12.4879C177.107 13.0104 176.789 13.485 176.388 13.8845C176.243 14.0299 176.087 14.1645 175.923 14.2872C175.179 14.8475 174.274 15.1508 173.343 15.1513H168.175C167.033 15.1495 165.939 14.6946 165.132 13.8865C164.325 13.0784 163.872 11.9832 163.872 10.8413C163.872 9.69932 164.325 8.60406 165.132 7.79597C165.939 6.98788 167.033 6.53301 168.175 6.53125H173.343C174.485 6.53422 175.579 6.98891 176.387 7.79604C177.195 8.60316 177.651 9.69716 177.655 10.8392Z" fill="#2F2E41"/>
<path d="M182.5 11.164C184.939 11.164 186.917 9.18667 186.917 6.74752C186.917 4.30837 184.939 2.33105 182.5 2.33105C180.061 2.33105 178.084 4.30837 178.084 6.74752C178.084 9.18667 180.061 11.164 182.5 11.164Z" fill="#2F2E41"/>
<path opacity="0.1" d="M182.393 2.33105C182.338 2.33105 182.285 2.33321 182.231 2.33514C183.373 2.37667 184.455 2.85973 185.249 3.68267C186.042 4.50562 186.486 5.60429 186.486 6.74752C186.486 7.89076 186.042 8.98942 185.249 9.81236C184.455 10.6353 183.373 11.1184 182.231 11.1599C182.285 11.1618 182.338 11.164 182.393 11.164C183.564 11.164 184.687 10.6987 185.515 9.87043C186.344 9.04218 186.809 7.91884 186.809 6.74752C186.809 5.5762 186.344 4.45286 185.515 3.62461C184.687 2.79636 183.564 2.33105 182.393 2.33105Z" fill="black"/>
<path opacity="0.1" d="M161.387 2.33105C161.442 2.33105 161.495 2.33321 161.549 2.33514C160.407 2.37667 159.325 2.85973 158.531 3.68267C157.738 4.50562 157.294 5.60429 157.294 6.74752C157.294 7.89076 157.738 8.98942 158.531 9.81236C159.325 10.6353 160.407 11.1184 161.549 11.1599C161.495 11.1618 161.442 11.164 161.387 11.164C160.217 11.163 159.094 10.6972 158.267 9.86906C157.44 9.04092 156.975 7.91817 156.975 6.74752C156.975 5.57688 157.44 4.45412 158.267 3.62598C159.094 2.79785 160.217 2.33209 161.387 2.33105Z" fill="black"/>
<path opacity="0.1" d="M175.923 14.2871C175.179 14.8475 174.274 15.1508 173.343 15.1512H168.175C167.244 15.1508 166.339 14.8475 165.595 14.2871H175.923Z" fill="black"/>
<path d="M209.295 46.2887C209.295 46.2887 210.408 49.4969 211.427 48.6427L210.615 44.4492L209.295 46.2887Z" fill="#FBBEBE"/>
<path d="M344.781 144.124C345.819 144.501 346.929 144.632 348.025 144.507C349.121 144.382 350.174 144.003 351.099 143.402C352.024 142.801 352.797 141.993 353.356 141.042C353.916 140.091 354.247 139.023 354.323 137.922C354.4 136.821 354.22 135.718 353.797 134.699C353.374 133.679 352.72 132.772 351.887 132.049C351.054 131.325 350.064 130.805 348.996 130.53C347.927 130.254 346.809 130.23 345.73 130.46L345.909 134.127L344.174 130.985C342.471 131.785 341.155 133.228 340.516 134.998C340.289 135.617 340.151 136.266 340.106 136.925C339.997 138.47 340.394 140.009 341.238 141.308C342.081 142.607 343.325 143.596 344.781 144.124Z" fill="#57B894"/>
<path d="M353.366 186.657C352.754 183.538 355.408 180.773 358.029 178.976C360.651 177.179 363.714 175.413 364.608 172.363C365.893 167.98 362.065 163.966 359.084 160.505C356.873 157.936 354.975 155.114 353.428 152.098C352.808 150.888 352.238 149.624 352.075 148.275C351.84 146.332 352.464 144.399 353.093 142.546C355.188 136.372 357.428 130.25 359.812 124.18" stroke="#3F3D56" stroke-miterlimit="10"/>
<path d="M345.075 143.181C346.112 143.558 347.222 143.689 348.319 143.563C349.415 143.438 350.467 143.06 351.392 142.458C352.317 141.857 353.09 141.049 353.65 140.098C354.209 139.147 354.54 138.079 354.617 136.978C354.693 135.877 354.513 134.774 354.09 133.755C353.667 132.735 353.014 131.828 352.181 131.105C351.347 130.382 350.358 129.861 349.289 129.586C348.221 129.31 347.103 129.286 346.024 129.516L346.202 133.184L344.467 130.041C342.764 130.841 341.449 132.284 340.81 134.054C340.583 134.674 340.445 135.323 340.4 135.981C340.29 137.526 340.688 139.065 341.531 140.364C342.375 141.663 343.619 142.652 345.075 143.181Z" stroke="#3F3D56" stroke-miterlimit="10"/>
<path d="M352.495 122.913C352.902 121.79 353.585 120.788 354.482 119.999C355.378 119.209 356.458 118.658 357.624 118.395L358.21 121.882L359.298 118.22C360.808 118.243 362.272 118.744 363.478 119.653C364.684 120.561 365.571 121.83 366.009 123.275C366.448 124.72 366.415 126.267 365.917 127.693C365.419 129.119 364.481 130.349 363.238 131.207C361.995 132.065 360.511 132.505 359.001 132.465C357.492 132.424 356.034 131.905 354.839 130.982C353.643 130.059 352.772 128.78 352.351 127.33C351.93 125.88 351.98 124.333 352.495 122.913Z" fill="#57B894"/>
<path d="M352.887 121.655C353.294 120.532 353.977 119.529 354.873 118.74C355.769 117.95 356.85 117.399 358.015 117.137L358.601 120.623L359.689 116.961C361.199 116.984 362.663 117.486 363.869 118.394C365.076 119.303 365.962 120.571 366.4 122.016C366.839 123.462 366.807 125.009 366.309 126.434C365.81 127.86 364.872 129.091 363.629 129.948C362.386 130.806 360.902 131.246 359.393 131.206C357.883 131.165 356.425 130.646 355.23 129.723C354.034 128.8 353.163 127.522 352.742 126.071C352.321 124.621 352.372 123.074 352.887 121.655Z" stroke="#3F3D56" stroke-miterlimit="10"/>
<path d="M357.834 160.575C359.478 161.171 361.285 161.142 362.909 160.492C364.533 159.842 365.862 158.617 366.641 157.051C367.42 155.485 367.596 153.687 367.134 151.999C366.673 150.312 365.607 148.853 364.139 147.901L363.303 150.715L362.711 147.187C362.705 147.185 362.699 147.182 362.693 147.18C361.813 146.861 360.879 146.718 359.944 146.759C359.009 146.8 358.091 147.026 357.243 147.422C356.395 147.818 355.634 148.377 355.002 149.068C354.37 149.759 353.881 150.567 353.562 151.447C353.243 152.327 353.1 153.261 353.142 154.196C353.184 155.131 353.41 156.048 353.806 156.896C354.203 157.744 354.763 158.505 355.454 159.136C356.145 159.767 356.954 160.256 357.834 160.575Z" fill="#57B894"/>
<path d="M358.173 159.3C359.817 159.897 361.624 159.867 363.248 159.217C364.872 158.567 366.201 157.343 366.98 155.776C367.759 154.21 367.935 152.412 367.473 150.724C367.012 149.037 365.946 147.578 364.478 146.626L363.642 149.44L363.05 145.912C363.044 145.91 363.038 145.907 363.032 145.906C362.152 145.586 361.218 145.443 360.283 145.484C359.348 145.525 358.43 145.751 357.582 146.147C356.734 146.543 355.973 147.102 355.341 147.793C354.709 148.484 354.22 149.292 353.901 150.172C353.582 151.052 353.439 151.986 353.481 152.921C353.523 153.856 353.749 154.773 354.145 155.621C354.542 156.469 355.102 157.23 355.793 157.861C356.484 158.492 357.293 158.981 358.173 159.3Z" stroke="#3F3D56" stroke-miterlimit="10"/>
<path d="M350.416 172.407C350.699 174.016 351.527 175.479 352.76 176.55C353.993 177.622 355.557 178.237 357.19 178.292C358.823 178.347 360.425 177.838 361.727 176.852C363.03 175.866 363.954 174.463 364.344 172.876C364.735 171.29 364.568 169.618 363.872 168.14C363.175 166.662 361.992 165.468 360.52 164.759C359.048 164.05 357.378 163.869 355.788 164.246C354.198 164.622 352.786 165.534 351.789 166.828L354.964 171.606L350.626 169.07C350.29 170.15 350.218 171.294 350.416 172.407Z" fill="#57B894"/>
<path d="M350.71 171.463C350.993 173.072 351.82 174.535 353.053 175.606C354.287 176.677 355.851 177.292 357.484 177.347C359.116 177.402 360.718 176.894 362.021 175.908C363.323 174.922 364.247 173.518 364.638 171.932C365.028 170.346 364.861 168.673 364.165 167.195C363.469 165.717 362.285 164.524 360.814 163.815C359.342 163.106 357.671 162.925 356.081 163.301C354.492 163.678 353.08 164.59 352.083 165.884L355.257 170.662L350.92 168.126C350.583 169.205 350.511 170.35 350.71 171.463Z" stroke="#3F3D56" stroke-miterlimit="10"/>
<path d="M3.18508 161.48C3.86642 161.728 4.59598 161.814 5.31625 161.732C6.03652 161.649 6.72782 161.401 7.33566 161.006C7.9435 160.611 8.45126 160.08 8.81892 159.455C9.18658 158.83 9.40409 158.128 9.45431 157.405C9.50453 156.682 9.38608 155.957 9.10831 155.287C8.83053 154.618 8.40101 154.022 7.85362 153.546C7.30622 153.071 6.6559 152.729 5.95393 152.548C5.25195 152.367 4.5175 152.352 3.80846 152.503L3.92563 154.912L2.78572 152.847C1.66696 153.373 0.802666 154.321 0.382778 155.484C0.233658 155.891 0.143005 156.317 0.113521 156.75C0.0415694 157.765 0.302496 158.776 0.856761 159.63C1.41103 160.483 2.22842 161.133 3.18508 161.48Z" fill="#57B894"/>
<path d="M8.82545 189.425C8.42306 187.376 10.1667 185.56 11.889 184.379C13.6113 183.198 15.6238 182.038 16.2114 180.034C17.056 177.154 14.5403 174.517 12.5822 172.243C11.1296 170.555 9.88204 168.701 8.8658 166.719C8.42399 165.941 8.12306 165.091 7.97688 164.208C7.82249 162.931 8.2326 161.661 8.64576 160.443C10.0221 156.387 11.4937 152.365 13.0605 148.376" stroke="#3F3D56" stroke-miterlimit="10"/>
<path d="M3.37783 160.86C4.05917 161.108 4.78873 161.194 5.509 161.112C6.22927 161.029 6.92057 160.781 7.5284 160.386C8.13624 159.991 8.644 159.46 9.01166 158.835C9.37932 158.21 9.59683 157.508 9.64705 156.785C9.69727 156.062 9.57882 155.337 9.30105 154.667C9.02327 153.998 8.59376 153.402 8.04636 152.926C7.49897 152.451 6.84865 152.109 6.14667 151.928C5.4447 151.747 4.71025 151.732 4.00122 151.883L4.11839 154.292L2.97847 152.227C1.85971 152.753 0.995415 153.701 0.575527 154.864C0.426409 155.271 0.335757 155.697 0.306272 156.13C0.234315 157.145 0.495241 158.156 1.04951 159.01C1.60377 159.863 2.42117 160.513 3.37783 160.86Z" stroke="#3F3D56" stroke-miterlimit="10"/>
<path d="M8.25323 147.544C8.52061 146.807 8.96938 146.148 9.55819 145.629C10.147 145.111 10.8569 144.748 11.6225 144.576L12.0079 146.867L12.7225 144.461C13.7146 144.476 14.6764 144.805 15.469 145.402C16.2616 145.999 16.8439 146.833 17.132 147.782C17.4201 148.732 17.3989 149.748 17.0716 150.685C16.7443 151.622 16.1278 152.43 15.3111 152.993C14.4944 153.557 13.5197 153.846 12.5278 153.82C11.5359 153.793 10.5781 153.452 9.79272 152.846C9.00732 152.239 8.43494 151.399 8.15823 150.446C7.88151 149.493 7.91478 148.477 8.25323 147.544Z" fill="#57B894"/>
<path d="M8.51031 146.717C8.77769 145.98 9.22646 145.321 9.81527 144.802C10.4041 144.283 11.114 143.921 11.8796 143.749L12.265 146.039L12.9795 143.634C13.9717 143.649 14.9335 143.978 15.7261 144.575C16.5186 145.172 17.101 146.005 17.3891 146.955C17.6771 147.904 17.656 148.921 17.3287 149.858C17.0014 150.794 16.3849 151.603 15.5682 152.166C14.7514 152.73 13.7768 153.019 12.7849 152.993C11.793 152.966 10.8352 152.625 10.0498 152.019C9.2644 151.412 8.69202 150.572 8.41531 149.619C8.13859 148.666 8.17186 147.65 8.51031 146.717Z" stroke="#3F3D56" stroke-miterlimit="10"/>
<path d="M11.7605 172.289C12.841 172.681 14.028 172.661 15.0952 172.234C16.1623 171.807 17.0351 171.003 17.5471 169.974C18.0591 168.945 18.1745 167.763 17.8713 166.654C17.5682 165.546 16.8676 164.587 15.9032 163.962L15.3542 165.81L14.9648 163.493C14.961 163.491 14.957 163.49 14.9529 163.488C14.3749 163.278 13.7612 163.184 13.1468 163.211C12.5324 163.238 11.9294 163.386 11.3722 163.646C10.815 163.907 10.3146 164.274 9.89947 164.728C9.48438 165.182 9.16278 165.713 8.95306 166.291C8.74334 166.869 8.6496 167.483 8.6772 168.097C8.7048 168.712 8.8532 169.315 9.11392 169.872C9.37464 170.429 9.74257 170.929 10.1967 171.344C10.6508 171.758 11.1822 172.079 11.7605 172.289Z" fill="#57B894"/>
<path d="M11.9832 171.451C13.0638 171.843 14.2508 171.824 15.3179 171.397C16.3851 170.97 17.2579 170.165 17.7699 169.136C18.2819 168.107 18.3973 166.925 18.0941 165.817C17.7909 164.708 17.0904 163.749 16.126 163.124L15.5769 164.973L15.1876 162.655C15.1837 162.653 15.1798 162.652 15.1757 162.651C14.5978 162.441 13.9844 162.347 13.3703 162.375C12.7562 162.402 12.1536 162.55 11.5967 162.811C10.4722 163.337 9.6026 164.288 9.17926 165.455C8.75592 166.622 8.8135 167.909 9.33935 169.034C9.8652 170.158 10.8162 171.028 11.9832 171.451Z" stroke="#3F3D56" stroke-miterlimit="10"/>
<path d="M6.88722 180.063C7.07301 181.12 7.61664 182.081 8.42695 182.785C9.23726 183.489 10.265 183.893 11.3377 183.929C12.4105 183.965 13.463 183.631 14.3188 182.983C15.1747 182.335 15.7817 181.413 16.0382 180.371C16.2947 179.329 16.185 178.23 15.7275 177.259C15.2701 176.288 14.4926 175.504 13.5256 175.038C12.5586 174.572 11.4609 174.453 10.4164 174.7C9.372 174.948 8.44442 175.547 7.78926 176.397L9.87484 179.536L7.02515 177.87C6.8042 178.579 6.75689 179.331 6.88722 180.063Z" fill="#57B894"/>
<path d="M7.07997 179.442C7.26576 180.499 7.80939 181.46 8.6197 182.164C9.43001 182.868 10.4577 183.272 11.5305 183.308C12.6032 183.344 13.6558 183.01 14.5116 182.363C15.3674 181.715 15.9745 180.792 16.231 179.75C16.4874 178.708 16.3778 177.609 15.9203 176.638C15.4628 175.667 14.6854 174.883 13.7184 174.417C12.7514 173.951 11.6536 173.832 10.6092 174.08C9.56475 174.327 8.63717 174.926 7.98201 175.776L10.0676 178.916L7.2179 177.249C6.99695 177.959 6.94964 178.711 7.07997 179.442Z" stroke="#3F3D56" stroke-miterlimit="10"/>
<path d="M164.744 117.274C167.958 117.274 170.564 113.902 170.564 109.743C170.564 105.583 167.958 102.211 164.744 102.211C161.53 102.211 158.924 105.583 158.924 109.743C158.924 113.902 161.53 117.274 164.744 117.274Z" fill="#2F2E41"/>
<path d="M196.409 117.445C199.624 117.445 202.229 114.073 202.229 109.914C202.229 105.755 199.624 102.383 196.409 102.383C193.195 102.383 190.59 105.755 190.59 109.914C190.59 114.073 193.195 117.445 196.409 117.445Z" fill="#2F2E41"/>
<path d="M191.959 132.165C191.959 135.568 187.208 138.327 181.347 138.327C175.486 138.327 170.735 135.568 170.735 132.165C170.735 129.218 174.298 126.753 179.06 126.151C179.818 126.051 180.582 126.002 181.347 126.004C182.628 125.999 183.906 126.137 185.157 126.414C189.135 127.301 191.959 129.543 191.959 132.165Z" fill="#2F2E41"/>
<path d="M166.113 115.563C169.327 115.563 171.933 112.191 171.933 108.031C171.933 103.872 169.327 100.5 166.113 100.5C162.899 100.5 160.294 103.872 160.294 108.031C160.294 112.191 162.899 115.563 166.113 115.563Z" stroke="#3F3D56" stroke-miterlimit="10"/>
<path d="M197.779 115.734C200.993 115.734 203.598 112.362 203.598 108.203C203.598 104.043 200.993 100.671 197.779 100.671C194.565 100.671 191.959 104.043 191.959 108.203C191.959 112.362 194.565 115.734 197.779 115.734Z" stroke="#3F3D56" stroke-miterlimit="10"/>
<path d="M182.716 136.616C188.577 136.616 193.328 133.857 193.328 130.454C193.328 127.051 188.577 124.292 182.716 124.292C176.855 124.292 172.104 127.051 172.104 130.454C172.104 133.857 176.855 136.616 182.716 136.616Z" stroke="#3F3D56" stroke-miterlimit="10"/>
<path d="M185.284 126.928C185.287 127.359 185.125 127.774 184.832 128.089C184.694 128.24 184.525 128.361 184.338 128.444C184.151 128.527 183.948 128.57 183.743 128.571H180.32C179.898 128.557 179.499 128.375 179.211 128.068C178.922 127.76 178.767 127.35 178.78 126.928C178.778 126.594 178.875 126.268 179.06 125.99C179.818 125.883 180.582 125.831 181.347 125.833C182.63 125.828 183.909 125.975 185.157 126.271C185.242 126.48 185.285 126.703 185.284 126.928Z" fill="white"/>
<path d="M166.113 107.689C167.059 107.689 167.825 106.923 167.825 105.977C167.825 105.032 167.059 104.266 166.113 104.266C165.168 104.266 164.402 105.032 164.402 105.977C164.402 106.923 165.168 107.689 166.113 107.689Z" fill="white"/>
<path d="M197.95 107.689C198.895 107.689 199.662 106.923 199.662 105.977C199.662 105.032 198.895 104.266 197.95 104.266C197.005 104.266 196.238 105.032 196.238 105.977C196.238 106.923 197.005 107.689 197.95 107.689Z" fill="white"/>
<path opacity="0.3" d="M199.662 123.778C200.607 123.778 201.373 123.012 201.373 122.067C201.373 121.121 200.607 120.355 199.662 120.355C198.716 120.355 197.95 121.121 197.95 122.067C197.95 123.012 198.716 123.778 199.662 123.778Z" fill="#2D61AC"/>
<path opacity="0.3" d="M157.897 123.778C158.843 123.778 159.609 123.012 159.609 122.067C159.609 121.121 158.843 120.355 157.897 120.355C156.952 120.355 156.186 121.121 156.186 122.067C156.186 123.012 156.952 123.778 157.897 123.778Z" fill="#2D61AC"/>
</g>
<defs>
<clipPath id="clip0_2772_6809">
<rect width="367.797" height="200" fill="white" transform="translate(0.101562 0.5)"/>
</clipPath>
</defs>
</svg>
