<svg width="18" height="18" viewBox="0 0 18 18" fill="none" xmlns="http://www.w3.org/2000/svg">
<path d="M8.16336 9.52453L6.8701 8.24353C6.75979 8.13322 6.62316 8.07678 6.46023 8.07422C6.29731 8.07167 6.15404 8.1322 6.03045 8.25581C5.91501 8.37123 5.85729 8.51117 5.85729 8.67563C5.85729 8.84009 5.91501 8.98003 6.03045 9.09546L7.65926 10.7243C7.80329 10.8683 7.97133 10.9403 8.16336 10.9403C8.3554 10.9403 8.52344 10.8683 8.66747 10.7243L11.9695 7.42221C12.088 7.30372 12.1465 7.16506 12.145 7.00621C12.1435 6.84737 12.085 6.70615 11.9695 6.58255C11.8459 6.45895 11.7039 6.3951 11.5436 6.39101C11.3832 6.38693 11.2412 6.44669 11.1176 6.57028L8.16336 9.52453ZM6.13923 15.9922L5.03753 14.1397L2.95364 13.6923C2.77487 13.6576 2.63211 13.5636 2.52537 13.4104C2.41862 13.2571 2.37598 13.0911 2.39742 12.9124L2.60122 10.7687L1.18386 9.14757C1.06129 9.01681 1 8.8595 1 8.67563C1 8.49176 1.06129 8.33445 1.18386 8.20369L2.60122 6.58255L2.39742 4.4389C2.37598 4.26013 2.41862 4.09413 2.52537 3.94091C2.63211 3.78767 2.77487 3.69369 2.95364 3.65897L5.03753 3.21155L6.13923 1.35902C6.23526 1.20171 6.36601 1.09445 6.53151 1.03724C6.69699 0.980046 6.86502 0.988731 7.03561 1.0633L8.99999 1.89379L10.9644 1.0633C11.135 0.988731 11.303 0.980046 11.4685 1.03724C11.634 1.09445 11.7647 1.20171 11.8607 1.35902L12.9624 3.21155L15.0463 3.65897C15.2251 3.69369 15.3679 3.78767 15.4746 3.94091C15.5814 4.09413 15.624 4.26013 15.6026 4.4389L15.3988 6.58255L16.8161 8.20369C16.9387 8.33445 17 8.49176 17 8.67563C17 8.8595 16.9387 9.01681 16.8161 9.14757L15.3988 10.7687L15.6026 12.9124C15.624 13.0911 15.5814 13.2571 15.4746 13.4104C15.3679 13.5636 15.2251 13.6576 15.0463 13.6923L12.9624 14.1397L11.8607 15.9922C11.7647 16.1495 11.634 16.2568 11.4685 16.314C11.303 16.3712 11.135 16.3625 10.9644 16.288L8.99999 15.4575L7.03561 16.288C6.86502 16.3625 6.69699 16.3712 6.53151 16.314C6.36601 16.2568 6.23526 16.1495 6.13923 15.9922ZM6.96819 15.0101L8.99999 14.1489L11.0563 15.0101L12.1871 13.0978L14.3783 12.5952L14.1791 10.3489L15.6532 8.67563L14.1791 6.97786L14.3783 4.73154L12.1871 4.25347L11.0318 2.34118L8.99999 3.20233L6.94367 2.34118L5.81285 4.25347L3.62168 4.73154L3.82088 6.97786L2.34683 8.67563L3.82088 10.3489L3.62168 12.6197L5.81285 13.0978L6.96819 15.0101Z" fill="#51545F"/>
</svg>
