<svg width="20" height="21" viewBox="0 0 20 21" fill="none" xmlns="http://www.w3.org/2000/svg">
<mask id="mask0_498_3283" style="mask-type:alpha" maskUnits="userSpaceOnUse" x="0" y="0" width="20" height="21">
<rect y="0.072998" width="20" height="20" fill="#D9D9D9"/>
</mask>
<g mask="url(#mask0_498_3283)">
<path d="M8.9616 11.1114H2.0385C1.74426 11.1114 1.49763 11.0119 1.29859 10.8128C1.09955 10.6136 1.00003 10.3669 1.00003 10.0725C1.00003 9.77818 1.09955 9.53159 1.29859 9.33278C1.49763 9.13397 1.74426 9.03457 2.0385 9.03457H8.9616V2.11146C8.9616 1.81723 9.06115 1.5706 9.26026 1.37156C9.45939 1.17252 9.70613 1.073 10.0005 1.073C10.2948 1.073 10.5414 1.17252 10.7402 1.37156C10.9391 1.5706 11.0385 1.81723 11.0385 2.11146V9.03457H17.9616C18.2558 9.03457 18.5024 9.13412 18.7015 9.33323C18.9005 9.53236 19 9.7791 19 10.0734C19 10.3678 18.9005 10.6144 18.7015 10.8132C18.5024 11.012 18.2558 11.1114 17.9616 11.1114H11.0385V18.0345C11.0385 18.3288 10.9389 18.5754 10.7398 18.7744C10.5407 18.9735 10.2939 19.073 9.99958 19.073C9.70521 19.073 9.45862 18.9735 9.25981 18.7744C9.061 18.5754 8.9616 18.3288 8.9616 18.0345V11.1114Z" fill="white"/>
</g>
</svg>
