<svg width="31" height="31" viewBox="0 0 31 31" fill="none" xmlns="http://www.w3.org/2000/svg">
<g opacity="0.2">
<mask id="mask0_756_9489" style="mask-type:alpha" maskUnits="userSpaceOnUse" x="0" y="0" width="31" height="31">
<rect x="0.5" y="0.5" width="30" height="30" fill="#D9D9D9"/>
</mask>
<g mask="url(#mask0_756_9489)">
<path d="M6.58961 26.1252C6.05609 26.1252 5.59686 25.9328 5.21193 25.5478C4.82699 25.1629 4.63452 24.7036 4.63452 24.1701V6.83044C4.63452 6.29692 4.82699 5.83769 5.21193 5.45275C5.59686 5.06779 6.05609 4.87531 6.58961 4.87531H17.4181C17.6406 4.87531 17.8271 4.95097 17.9776 5.10228C18.1281 5.25359 18.2034 5.44109 18.2034 5.66478C18.2034 5.88845 18.1281 6.07453 17.9776 6.22303C17.8271 6.37153 17.6406 6.44578 17.4181 6.44578H6.58961C6.47743 6.44578 6.38527 6.48184 6.31315 6.55397C6.24104 6.62609 6.20499 6.71825 6.20499 6.83044V24.1701C6.20499 24.2823 6.24104 24.3745 6.31315 24.4466C6.38527 24.5187 6.47743 24.5548 6.58961 24.5548H23.9293C24.0415 24.5548 24.1336 24.5187 24.2058 24.4466C24.2779 24.3745 24.314 24.2823 24.314 24.1701V13.3624C24.314 13.14 24.3896 12.9535 24.5409 12.803C24.6922 12.6524 24.8797 12.5772 25.1034 12.5772C25.3271 12.5772 25.5132 12.6524 25.6617 12.803C25.8102 12.9535 25.8844 13.14 25.8844 13.3624V24.1701C25.8844 24.7036 25.6919 25.1629 25.307 25.5478C24.9221 25.9328 24.4628 26.1252 23.9293 26.1252H6.58961ZM22.2948 8.47781H20.5672C20.3447 8.47781 20.1582 8.40216 20.0077 8.25084C19.8572 8.09953 19.7819 7.91203 19.7819 7.68834C19.7819 7.46468 19.8572 7.27859 20.0077 7.13009C20.1582 6.98159 20.3447 6.90734 20.5672 6.90734H22.2948V5.17975C22.2948 4.95727 22.3704 4.77078 22.5217 4.62028C22.673 4.46978 22.8605 4.39453 23.0842 4.39453C23.3079 4.39453 23.494 4.46978 23.6425 4.62028C23.791 4.77078 23.8652 4.95727 23.8652 5.17975V6.90734H25.5928C25.8153 6.90734 26.0018 6.983 26.1523 7.13431C26.3028 7.28562 26.3781 7.47311 26.3781 7.69678C26.3781 7.92047 26.3028 8.10656 26.1523 8.25506C26.0018 8.40356 25.8153 8.47781 25.5928 8.47781H23.8652V10.2134C23.8652 10.4359 23.7896 10.6224 23.6382 10.7729C23.4869 10.9234 23.2995 10.9987 23.0758 10.9987C22.8521 10.9987 22.666 10.9234 22.5175 10.7729C22.369 10.6224 22.2948 10.4359 22.2948 10.2134V8.47781ZM14.2851 20.723L12.1104 17.9587C12.0073 17.8385 11.8798 17.7784 11.7278 17.7784C11.5759 17.7784 11.4483 17.8425 11.3452 17.9707L9.3148 20.6269C9.18126 20.7967 9.16223 20.9687 9.25771 21.1429C9.35321 21.317 9.49644 21.4041 9.6874 21.4041H20.9405C21.1272 21.4041 21.2672 21.317 21.3606 21.1429C21.4539 20.9687 21.4448 20.7967 21.3331 20.6269L18.2931 16.554C18.19 16.4258 18.0591 16.3617 17.9005 16.3617C17.7418 16.3617 17.6106 16.4268 17.507 16.5571L14.2851 20.723Z" fill="#2D61AC"/>
</g>
</g>
</svg>
