<svg width="18" height="18" viewBox="0 0 18 18" fill="none" xmlns="http://www.w3.org/2000/svg">
<path d="M7.96157 10.0384H1.03847C0.744234 10.0384 0.497598 9.93888 0.298559 9.73977C0.0995196 9.54064 0 9.2939 0 8.99955C0 8.70518 0.0995196 8.45859 0.298559 8.25978C0.497598 8.06097 0.744234 7.96157 1.03847 7.96157H7.96157V1.03847C7.96157 0.744234 8.06112 0.497598 8.26023 0.298559C8.45936 0.0995196 8.7061 0 9.00045 0C9.29482 0 9.54141 0.0995196 9.74022 0.298559C9.93903 0.497598 10.0384 0.744234 10.0384 1.03847V7.96157H16.9615C17.2558 7.96157 17.5024 8.06112 17.7014 8.26023C17.9005 8.45936 18 8.7061 18 9.00045C18 9.29482 17.9005 9.54141 17.7014 9.74022C17.5024 9.93903 17.2558 10.0384 16.9615 10.0384H10.0384V16.9615C10.0384 17.2558 9.93888 17.5024 9.73977 17.7014C9.54064 17.9005 9.2939 18 8.99955 18C8.70518 18 8.45859 17.9005 8.25978 17.7014C8.06097 17.5024 7.96157 17.2558 7.96157 16.9615V10.0384Z" fill="#51545F"/>
</svg>
