<svg width="20" height="21" viewBox="0 0 20 21" fill="none" xmlns="http://www.w3.org/2000/svg">
<mask id="mask0_438_4432" style="mask-type:alpha" maskUnits="userSpaceOnUse" x="0" y="0" width="20" height="21">
<rect y="0.072998" width="20" height="20" fill="#D9D9D9"/>
</mask>
<g mask="url(#mask0_438_4432)">
<path d="M4.42316 17.1563C4.00222 17.1563 3.64591 17.0105 3.35425 16.7188C3.06258 16.4271 2.91675 16.0708 2.91675 15.6499V4.49608C2.91675 4.07514 3.06258 3.71883 3.35425 3.42717C3.64591 3.1355 4.00222 2.98966 4.42316 2.98966H8.1315C8.19773 2.52172 8.40446 2.12696 8.75169 1.80537C9.09889 1.48379 9.51502 1.323 10.0001 1.323C10.4851 1.323 10.9012 1.48379 11.2484 1.80537C11.5957 2.12696 11.8024 2.52172 11.8686 2.98966H15.577C15.9979 2.98966 16.3542 3.1355 16.6459 3.42717C16.9375 3.71883 17.0834 4.07514 17.0834 4.49608V15.6499C17.0834 16.0708 16.9375 16.4271 16.6459 16.7188C16.3542 17.0105 15.9979 17.1563 15.577 17.1563H4.42316ZM10.0001 3.69477C10.1806 3.69477 10.3299 3.63574 10.448 3.51769C10.566 3.39963 10.6251 3.25033 10.6251 3.06977C10.6251 2.88921 10.566 2.73991 10.448 2.62185C10.3299 2.5038 10.1806 2.44477 10.0001 2.44477C9.81951 2.44477 9.6702 2.5038 9.55214 2.62185C9.43409 2.73991 9.37506 2.88921 9.37506 3.06977C9.37506 3.25033 9.43409 3.39963 9.55214 3.51769C9.6702 3.63574 9.81951 3.69477 10.0001 3.69477ZM4.16673 15.1082C4.91673 14.3721 5.78825 13.7923 6.78131 13.3687C7.77437 12.9451 8.84728 12.7332 10.0001 12.7332C11.1528 12.7332 12.2258 12.9451 13.2188 13.3687C14.2119 13.7923 15.0834 14.3721 15.8334 15.1082V4.49608C15.8334 4.43197 15.8067 4.3732 15.7533 4.31977C15.6998 4.26635 15.6411 4.23964 15.577 4.23964H4.42316C4.35905 4.23964 4.30028 4.26635 4.24685 4.31977C4.19344 4.3732 4.16673 4.43197 4.16673 4.49608V15.1082ZM10.0001 10.9384C10.7522 10.9384 11.3916 10.675 11.9183 10.1483C12.445 9.6216 12.7084 8.98218 12.7084 8.23004C12.7084 7.47792 12.445 6.8385 11.9183 6.31179C11.3916 5.78508 10.7522 5.52173 10.0001 5.52173C9.24792 5.52173 8.60851 5.78508 8.08181 6.31179C7.5551 6.8385 7.29175 7.47792 7.29175 8.23004C7.29175 8.98218 7.5551 9.6216 8.08181 10.1483C8.60851 10.675 9.24792 10.9384 10.0001 10.9384ZM5.36862 15.9063H14.6315V15.73C13.9734 15.1424 13.2514 14.7044 12.4656 14.4159C11.6798 14.1274 10.858 13.9832 10.0001 13.9832C9.15284 13.9832 8.33499 14.1261 7.54652 14.4119C6.75805 14.6977 6.03208 15.1317 5.36862 15.714V15.9063ZM10.0001 9.6884C9.59942 9.6884 9.2562 9.5455 8.97039 9.25971C8.6846 8.97392 8.54171 8.63069 8.54171 8.23004C8.54171 7.8294 8.6846 7.48619 8.97039 7.2004C9.2562 6.9146 9.59942 6.77171 10.0001 6.77171C10.4007 6.77171 10.7439 6.9146 11.0297 7.2004C11.3155 7.48619 11.4584 7.8294 11.4584 8.23004C11.4584 8.63069 11.3155 8.97392 11.0297 9.25971C10.7439 9.5455 10.4007 9.6884 10.0001 9.6884Z" fill="#51545F"/>
</g>
</svg>
