<svg width="18" height="18" viewBox="0 0 18 18" fill="none" xmlns="http://www.w3.org/2000/svg">
<mask id="mask0_96_18661" style="mask-type:alpha" maskUnits="userSpaceOnUse" x="0" y="0" width="18" height="18">
<rect width="18" height="18" fill="#D9D9D9"/>
</mask>
<g mask="url(#mask0_96_18661)">
<path d="M7.25775 11.4794L13.614 5.12319C13.764 4.97319 13.9421 4.89819 14.1484 4.89819C14.3546 4.89819 14.5327 4.97319 14.6827 5.12319C14.8327 5.27319 14.9077 5.45132 14.9077 5.65757C14.9077 5.86382 14.8327 6.04194 14.6827 6.19194L7.78275 13.0919C7.63275 13.2419 7.45775 13.3169 7.25775 13.3169C7.05775 13.3169 6.88275 13.2419 6.73275 13.0919L3.50775 9.86694C3.35775 9.71694 3.28587 9.53882 3.29212 9.33257C3.29837 9.12632 3.3765 8.94819 3.5265 8.79819C3.6765 8.64819 3.85462 8.57319 4.06087 8.57319C4.26712 8.57319 4.44525 8.64819 4.59525 8.79819L7.25775 11.4794Z" fill="white"/>
</g>
</svg>
