<svg width="14" height="14" viewBox="0 0 14 14" fill="none" xmlns="http://www.w3.org/2000/svg">
<rect width="14" height="14" rx="7" fill="#C5CEDC"/>
<path d="M6.26572 7.36396L3.81803 4.91627C3.71401 4.81225 3.662 4.68985 3.66203 4.54908C3.66206 4.40831 3.71411 4.28589 3.81818 4.18182C3.92225 4.07775 4.04462 4.02575 4.18528 4.02583C4.32594 4.02591 4.44829 4.07797 4.55231 4.18199L7 6.62968L9.44769 4.18199C9.55171 4.07797 9.67411 4.02596 9.81488 4.02599C9.95565 4.02602 10.0781 4.07807 10.1821 4.18214C10.2862 4.28621 10.3382 4.40858 10.3381 4.54924C10.338 4.6899 10.286 4.81225 10.182 4.91627L7.73428 7.36396L10.182 9.81165C10.286 9.91567 10.338 10.0381 10.338 10.1788C10.3379 10.3196 10.2859 10.442 10.1818 10.5461C10.0777 10.6502 9.95538 10.7022 9.81472 10.7021C9.67406 10.702 9.55171 10.65 9.44769 10.5459L7 8.09824L4.55231 10.5459C4.44829 10.65 4.32589 10.702 4.18512 10.7019C4.04435 10.7019 3.92193 10.6498 3.81786 10.5458C3.71378 10.4417 3.66179 10.3193 3.66187 10.1787C3.66195 10.038 3.71401 9.91567 3.81803 9.81165L6.26572 7.36396Z" fill="#51545F"/>
</svg>
