<svg width="20" height="21" viewBox="0 0 20 21" fill="none" xmlns="http://www.w3.org/2000/svg">
<mask id="mask0_438_4413" style="mask-type:alpha" maskUnits="userSpaceOnUse" x="0" y="0" width="20" height="21">
<rect y="0.072998" width="20" height="20" fill="#D9D9D9"/>
</mask>
<g mask="url(#mask0_438_4413)">
<path d="M4.16673 9.23973C3.82592 9.23973 3.53239 9.1166 3.28614 8.87035C3.03988 8.62409 2.91675 8.33055 2.91675 7.98975V4.23973C2.91675 3.89892 3.03988 3.60539 3.28614 3.35914C3.53239 3.11288 3.82592 2.98975 4.16673 2.98975H7.91675C8.25755 2.98975 8.55109 3.11288 8.79735 3.35914C9.0436 3.60539 9.16673 3.89892 9.16673 4.23973V7.98975C9.16673 8.33055 9.0436 8.62409 8.79735 8.87035C8.55109 9.1166 8.25755 9.23973 7.91675 9.23973H4.16673ZM4.16673 17.1564C3.82592 17.1564 3.53239 17.0332 3.28614 16.787C3.03988 16.5407 2.91675 16.2472 2.91675 15.9064V12.1564C2.91675 11.8156 3.03988 11.522 3.28614 11.2758C3.53239 11.0295 3.82592 10.9064 4.16673 10.9064H7.91675C8.25755 10.9064 8.55109 11.0295 8.79735 11.2758C9.0436 11.522 9.16673 11.8156 9.16673 12.1564V15.9064C9.16673 16.2472 9.0436 16.5407 8.79735 16.787C8.55109 17.0332 8.25755 17.1564 7.91675 17.1564H4.16673ZM12.0834 9.23973C11.7426 9.23973 11.449 9.1166 11.2028 8.87035C10.9565 8.62409 10.8334 8.33055 10.8334 7.98975V4.23973C10.8334 3.89892 10.9565 3.60539 11.2028 3.35914C11.449 3.11288 11.7426 2.98975 12.0834 2.98975H15.8334C16.1742 2.98975 16.4677 3.11288 16.714 3.35914C16.9602 3.60539 17.0834 3.89892 17.0834 4.23973V7.98975C17.0834 8.33055 16.9602 8.62409 16.714 8.87035C16.4677 9.1166 16.1742 9.23973 15.8334 9.23973H12.0834ZM12.0834 17.1564C11.7426 17.1564 11.449 17.0332 11.2028 16.787C10.9565 16.5407 10.8334 16.2472 10.8334 15.9064V12.1564C10.8334 11.8156 10.9565 11.522 11.2028 11.2758C11.449 11.0295 11.7426 10.9064 12.0834 10.9064H15.8334C16.1742 10.9064 16.4677 11.0295 16.714 11.2758C16.9602 11.522 17.0834 11.8156 17.0834 12.1564V15.9064C17.0834 16.2472 16.9602 16.5407 16.714 16.787C16.4677 17.0332 16.1742 17.1564 15.8334 17.1564H12.0834ZM4.16673 7.98975H7.91675V4.23973H4.16673V7.98975ZM12.0834 7.98975H15.8334V4.23973H12.0834V7.98975ZM12.0834 15.9064H15.8334V12.1564H12.0834V15.9064ZM4.16673 15.9064H7.91675V12.1564H4.16673V15.9064Z" fill="#51545F"/>
</g>
</svg>
