<svg width="18" height="18" viewBox="0 0 18 18" fill="none" xmlns="http://www.w3.org/2000/svg">
<g clip-path="url(#clip0_911_1660)">
<path d="M9 14.2505C9.14834 14.2505 9.29334 14.2065 9.41668 14.1241C9.54002 14.0417 9.63614 13.9245 9.69291 13.7875C9.74968 13.6505 9.76453 13.4997 9.73559 13.3542C9.70665 13.2087 9.63522 13.075 9.53033 12.9702C9.42544 12.8653 9.2918 12.7938 9.14632 12.7649C9.00083 12.736 8.85003 12.7508 8.71299 12.8076C8.57594 12.8643 8.45881 12.9605 8.3764 13.0838C8.29399 13.2071 8.25 13.3522 8.25 13.5005C8.25 13.6994 8.32902 13.8902 8.46967 14.0308C8.61032 14.1715 8.80109 14.2505 9 14.2505ZM12.75 14.2505C12.8983 14.2505 13.0433 14.2065 13.1667 14.1241C13.29 14.0417 13.3861 13.9245 13.4429 13.7875C13.4997 13.6505 13.5145 13.4997 13.4856 13.3542C13.4566 13.2087 13.3852 13.075 13.2803 12.9702C13.1754 12.8653 13.0418 12.7938 12.8963 12.7649C12.7508 12.736 12.6 12.7508 12.463 12.8076C12.3259 12.8643 12.2088 12.9605 12.1264 13.0838C12.044 13.2071 12 13.3522 12 13.5005C12 13.6994 12.079 13.8902 12.2197 14.0308C12.3603 14.1715 12.5511 14.2505 12.75 14.2505ZM12.75 11.2505C12.8983 11.2505 13.0433 11.2065 13.1667 11.1241C13.29 11.0417 13.3861 10.9245 13.4429 10.7875C13.4997 10.6505 13.5145 10.4997 13.4856 10.3542C13.4566 10.2087 13.3852 10.075 13.2803 9.97016C13.1754 9.86527 13.0418 9.79384 12.8963 9.7649C12.7508 9.73596 12.6 9.75081 12.463 9.80758C12.3259 9.86434 12.2088 9.96047 12.1264 10.0838C12.044 10.2071 12 10.3522 12 10.5005C12 10.6994 12.079 10.8902 12.2197 11.0308C12.3603 11.1715 12.5511 11.2505 12.75 11.2505ZM9 11.2505C9.14834 11.2505 9.29334 11.2065 9.41668 11.1241C9.54002 11.0417 9.63614 10.9245 9.69291 10.7875C9.74968 10.6505 9.76453 10.4997 9.73559 10.3542C9.70665 10.2087 9.63522 10.075 9.53033 9.97016C9.42544 9.86527 9.2918 9.79384 9.14632 9.7649C9.00083 9.73596 8.85003 9.75081 8.71299 9.80758C8.57594 9.86434 8.45881 9.96047 8.3764 10.0838C8.29399 10.2071 8.25 10.3522 8.25 10.5005C8.25 10.6994 8.32902 10.8902 8.46967 11.0308C8.61032 11.1715 8.80109 11.2505 9 11.2505ZM14.25 2.25049H13.5V1.50049C13.5 1.30158 13.421 1.11081 13.2803 0.970158C13.1397 0.829506 12.9489 0.750488 12.75 0.750488C12.5511 0.750488 12.3603 0.829506 12.2197 0.970158C12.079 1.11081 12 1.30158 12 1.50049V2.25049H6V1.50049C6 1.30158 5.92098 1.11081 5.78033 0.970158C5.63968 0.829506 5.44891 0.750488 5.25 0.750488C5.05109 0.750488 4.86032 0.829506 4.71967 0.970158C4.57902 1.11081 4.5 1.30158 4.5 1.50049V2.25049H3.75C3.15326 2.25049 2.58097 2.48754 2.15901 2.9095C1.73705 3.33145 1.5 3.90375 1.5 4.50049V15.0005C1.5 15.5972 1.73705 16.1695 2.15901 16.5915C2.58097 17.0134 3.15326 17.2505 3.75 17.2505H14.25C14.8467 17.2505 15.419 17.0134 15.841 16.5915C16.2629 16.1695 16.5 15.5972 16.5 15.0005V4.50049C16.5 3.90375 16.2629 3.33145 15.841 2.9095C15.419 2.48754 14.8467 2.25049 14.25 2.25049ZM15 15.0005C15 15.1994 14.921 15.3902 14.7803 15.5308C14.6397 15.6715 14.4489 15.7505 14.25 15.7505H3.75C3.55109 15.7505 3.36032 15.6715 3.21967 15.5308C3.07902 15.3902 3 15.1994 3 15.0005V8.25049H15V15.0005ZM15 6.75049H3V4.50049C3 4.30158 3.07902 4.11081 3.21967 3.97016C3.36032 3.82951 3.55109 3.75049 3.75 3.75049H4.5V4.50049C4.5 4.6994 4.57902 4.89017 4.71967 5.03082C4.86032 5.17147 5.05109 5.25049 5.25 5.25049C5.44891 5.25049 5.63968 5.17147 5.78033 5.03082C5.92098 4.89017 6 4.6994 6 4.50049V3.75049H12V4.50049C12 4.6994 12.079 4.89017 12.2197 5.03082C12.3603 5.17147 12.5511 5.25049 12.75 5.25049C12.9489 5.25049 13.1397 5.17147 13.2803 5.03082C13.421 4.89017 13.5 4.6994 13.5 4.50049V3.75049H14.25C14.4489 3.75049 14.6397 3.82951 14.7803 3.97016C14.921 4.11081 15 4.30158 15 4.50049V6.75049ZM5.25 11.2505C5.39834 11.2505 5.54334 11.2065 5.66668 11.1241C5.79001 11.0417 5.88614 10.9245 5.94291 10.7875C5.99968 10.6505 6.01453 10.4997 5.98559 10.3542C5.95665 10.2087 5.88522 10.075 5.78033 9.97016C5.67544 9.86527 5.5418 9.79384 5.39632 9.7649C5.25083 9.73596 5.10003 9.75081 4.96299 9.80758C4.82594 9.86434 4.70881 9.96047 4.6264 10.0838C4.54399 10.2071 4.5 10.3522 4.5 10.5005C4.5 10.6994 4.57902 10.8902 4.71967 11.0308C4.86032 11.1715 5.05109 11.2505 5.25 11.2505ZM5.25 14.2505C5.39834 14.2505 5.54334 14.2065 5.66668 14.1241C5.79001 14.0417 5.88614 13.9245 5.94291 13.7875C5.99968 13.6505 6.01453 13.4997 5.98559 13.3542C5.95665 13.2087 5.88522 13.075 5.78033 12.9702C5.67544 12.8653 5.5418 12.7938 5.39632 12.7649C5.25083 12.736 5.10003 12.7508 4.96299 12.8076C4.82594 12.8643 4.70881 12.9605 4.6264 13.0838C4.54399 13.2071 4.5 13.3522 4.5 13.5005C4.5 13.6994 4.57902 13.8902 4.71967 14.0308C4.86032 14.1715 5.05109 14.2505 5.25 14.2505Z" fill="#737984"/>
</g>
<defs>
<clipPath id="clip0_911_1660">
<rect width="18" height="18" fill="white" transform="translate(0 0.000488281)"/>
</clipPath>
</defs>
</svg>
