<svg width="36" height="36" viewBox="0 0 36 36" fill="none" xmlns="http://www.w3.org/2000/svg">
<path d="M10.2186 32C9.39153 32 8.68516 31.7071 8.09944 31.1214C7.51369 30.5357 7.22082 29.8293 7.22082 29.0023V7.95439H6.80624C6.45332 7.95439 6.15781 7.83534 5.9197 7.59723C5.68157 7.35912 5.5625 7.06361 5.5625 6.71069C5.5625 6.35777 5.68157 6.06226 5.9197 5.82415C6.15781 5.58602 6.45332 5.46695 6.80624 5.46695H13.0249C13.0249 5.06088 13.1679 4.71488 13.4538 4.42893C13.7398 4.14298 14.0858 4 14.4918 4H21.5079C21.9139 4 22.26 4.14298 22.5459 4.42893C22.8319 4.71488 22.9748 5.06088 22.9748 5.46695H29.1935C29.5464 5.46695 29.8419 5.58602 30.08 5.82415C30.3182 6.06226 30.4372 6.35777 30.4372 6.71069C30.4372 7.06361 30.3182 7.35912 30.08 7.59723C29.8419 7.83534 29.5464 7.95439 29.1935 7.95439H28.7789V29.0023C28.7789 29.8293 28.486 30.5357 27.9003 31.1214C27.3146 31.7071 26.6082 32 25.7812 32H10.2186ZM26.2915 7.95439H9.70826V29.0023C9.70826 29.1511 9.7561 29.2734 9.85179 29.369C9.94747 29.4647 10.0697 29.5126 10.2186 29.5126H25.7812C25.93 29.5126 26.0523 29.4647 26.1479 29.369C26.2436 29.2734 26.2915 29.1511 26.2915 29.0023V7.95439ZM13.6947 26.1959H16.1821V11.271H13.6947V26.1959ZM19.8176 26.1959H22.3051V11.271H19.8176V26.1959Z" fill="white"/>
</svg>
