<svg width="18" height="18" viewBox="0 0 18 18" xmlns="http://www.w3.org/2000/svg">
  <path d="M4.62053 16.759C4.15506 16.759 3.7575 16.5941 3.42784 16.2645C3.09817 15.9348 2.93334 15.5372 2.93334 15.0718V3.22561H2.7C2.50137 3.22561 2.33505 3.15861 2.20104 3.02459C2.06701 2.89058 2 2.72426 2 2.52563C2 2.327 2.06701 2.16068 2.20104 2.02667C2.33505 1.89264 2.50137 1.82563 2.7 1.82563H6.19999C6.19999 1.59709 6.28046 1.40235 6.4414 1.24141C6.60234 1.08047 6.79708 1 7.02562 1H10.9744C11.2029 1 11.3977 1.08047 11.5586 1.24141C11.7195 1.40235 11.8 1.59709 11.8 1.82563H15.3C15.4986 1.82563 15.6649 1.89264 15.799 2.02667C15.933 2.16068 16 2.327 16 2.52563C16 2.72426 15.933 2.89058 15.799 3.02459C15.6649 3.15861 15.4986 3.22561 15.3 3.22561H15.0667V15.0718C15.0667 15.5372 14.9018 15.9348 14.5722 16.2645C14.2425 16.5941 13.8449 16.759 13.3795 16.759H4.62053ZM13.6667 3.22561H4.33332V15.0718C4.33332 15.1555 4.36024 15.2244 4.4141 15.2782C4.46795 15.3321 4.53676 15.359 4.62053 15.359H13.3795C13.4632 15.359 13.532 15.3321 13.5859 15.2782C13.6398 15.2244 13.6667 15.1555 13.6667 15.0718V3.22561ZM6.57694 13.4923H7.97692V5.09228H6.57694V13.4923ZM10.0231 13.4923H11.4231V5.09228H10.0231V13.4923Z" fill="#FFFFFF" stroke="none"/>
</svg>