<svg width="18" height="18" viewBox="0 0 18 18" fill="none" xmlns="http://www.w3.org/2000/svg">
<mask id="mask0_437_16157" style="mask-type:alpha" maskUnits="userSpaceOnUse" x="0" y="0" width="18" height="18">
<rect width="18" height="18" fill="#D9D9D9"/>
</mask>
<g mask="url(#mask0_437_16157)">
<path d="M6.55262 14.0395H11.2895C11.4575 14.0395 11.5982 13.9828 11.7115 13.8694C11.8249 13.7561 11.8816 13.6154 11.8816 13.4474C11.8816 13.2794 11.8249 13.1387 11.7115 13.0253C11.5982 12.912 11.4575 12.8553 11.2895 12.8553H6.55262C6.38461 12.8553 6.24392 12.912 6.13057 13.0253C6.01721 13.1387 5.96053 13.2794 5.96053 13.4474C5.96053 13.6154 6.01721 13.7561 6.13057 13.8694C6.24392 13.9828 6.38461 14.0395 6.55262 14.0395ZM6.55262 10.8816H11.2895C11.4575 10.8816 11.5982 10.8249 11.7115 10.7115C11.8249 10.5982 11.8816 10.4575 11.8816 10.2895C11.8816 10.1215 11.8249 9.98078 11.7115 9.86742C11.5982 9.75407 11.4575 9.69739 11.2895 9.69739H6.55262C6.38461 9.69739 6.24392 9.75407 6.13057 9.86742C6.01721 9.98078 5.96053 10.1215 5.96053 10.2895C5.96053 10.4575 6.01721 10.5982 6.13057 10.7115C6.24392 10.8249 6.38461 10.8816 6.55262 10.8816ZM4.42714 17C4.02834 17 3.69079 16.8618 3.41447 16.5855C3.13816 16.3092 3 15.9717 3 15.5729V3.42714C3 3.02835 3.13816 2.69079 3.41447 2.41447C3.69079 2.13816 4.02834 2 4.42714 2H10.1068C10.2971 2 10.48 2.03695 10.6556 2.11084C10.8312 2.18472 10.9838 2.28644 11.1134 2.416L14.4261 5.72871C14.5557 5.85828 14.6574 6.01087 14.7313 6.18647C14.8051 6.36208 14.8421 6.54502 14.8421 6.7353V15.5729C14.8421 15.9717 14.7039 16.3092 14.4276 16.5855C14.1513 16.8618 13.8137 17 13.415 17H4.42714ZM10.1053 6.02325V3.18419H4.42714C4.3664 3.18419 4.31072 3.2095 4.2601 3.2601C4.2095 3.31072 4.18419 3.3664 4.18419 3.42714V15.5729C4.18419 15.6336 4.2095 15.6893 4.2601 15.7399C4.31072 15.7905 4.3664 15.8158 4.42714 15.8158H13.415C13.4757 15.8158 13.5314 15.7905 13.582 15.7399C13.6326 15.6893 13.6579 15.6336 13.6579 15.5729V6.73682H10.8188C10.6154 6.73682 10.4456 6.66874 10.3095 6.5326C10.1734 6.39647 10.1053 6.22668 10.1053 6.02325Z" fill="#51545F"/>
</g>
</svg>
