<svg width="18" height="18" viewBox="0 0 18 18" fill="none" xmlns="http://www.w3.org/2000/svg">
<mask id="mask0_760_11691" style="mask-type:alpha" maskUnits="userSpaceOnUse" x="0" y="0" width="18" height="18">
<rect width="18" height="18" fill="#D9D9D9"/>
</mask>
<g mask="url(#mask0_760_11691)">
<path d="M14.0192 13.875H6.23081C5.85196 13.875 5.53128 13.7437 5.26878 13.4812C5.00628 13.2187 4.87503 12.898 4.87503 12.5192V2.48078C4.87503 2.10193 5.00628 1.78125 5.26878 1.51875C5.53128 1.25625 5.85196 1.125 6.23081 1.125H10.8765C11.0572 1.125 11.231 1.1601 11.3979 1.2303C11.5647 1.30049 11.7096 1.39712 11.8327 1.52019L14.9798 4.66727C15.1029 4.79036 15.1995 4.93531 15.2697 5.10214C15.3399 5.26896 15.375 5.44276 15.375 5.62352V12.5192C15.375 12.898 15.2437 13.2187 14.9812 13.4812C14.7187 13.7437 14.3981 13.875 14.0192 13.875ZM14.25 5.62496H11.7837C11.5289 5.62496 11.3137 5.53722 11.1383 5.36173C10.9628 5.18626 10.875 4.97112 10.875 4.71632V2.24998H6.23081C6.17311 2.24998 6.12021 2.27402 6.07212 2.32209C6.02405 2.37018 6.00001 2.42308 6.00001 2.48078V12.5192C6.00001 12.5769 6.02405 12.6298 6.07212 12.6779C6.12021 12.7259 6.17311 12.75 6.23081 12.75H14.0192C14.0769 12.75 14.1298 12.7259 14.1779 12.6779C14.226 12.6298 14.25 12.5769 14.25 12.5192V5.62496ZM3.23081 16.875C2.85196 16.875 2.53128 16.7437 2.26878 16.4812C2.00628 16.2187 1.87503 15.898 1.87503 15.5192V6.1875C1.87503 6.02789 1.92888 5.89424 2.03658 5.78655C2.14427 5.67885 2.27792 5.625 2.43753 5.625C2.59714 5.625 2.73079 5.67885 2.83848 5.78655C2.94617 5.89424 3.00001 6.02789 3.00001 6.1875V15.5192C3.00001 15.5769 3.02405 15.6298 3.07212 15.6779C3.12021 15.7259 3.17311 15.75 3.23081 15.75H10.3125C10.4721 15.75 10.6058 15.8038 10.7134 15.9115C10.8211 16.0192 10.875 16.1529 10.875 16.3125C10.875 16.4721 10.8211 16.6057 10.7134 16.7134C10.6058 16.8211 10.4721 16.875 10.3125 16.875L3.23081 16.875Z" fill="#51545F"/>
</g>
</svg>
