<svg width="18" height="18" viewBox="0 0 18 18" fill="none" xmlns="http://www.w3.org/2000/svg">
<path d="M4.3234 13.392C4.3234 13.392 4.37636 13.392 4.39622 13.392L6.3357 13.2132C6.60709 13.1868 6.85863 13.0676 7.05059 12.8757L14.3716 5.55461C14.7158 5.2104 14.9078 4.75366 14.9078 4.27045C14.9078 3.78723 14.7158 3.3305 14.3716 2.98629L13.9017 2.51631C13.2132 1.8279 12.0151 1.8279 11.3267 2.51631L10.3934 3.44965L4.01229 9.83073C3.82033 10.0227 3.70118 10.2742 3.68132 10.5456L3.5026 12.4851C3.48274 12.73 3.56879 12.9683 3.7409 13.147C3.89976 13.3059 4.10496 13.392 4.3234 13.392ZM12.6175 2.97305C12.8293 2.97305 13.0411 3.05248 13.2 3.21797L13.67 3.68794C13.8288 3.84681 13.9149 4.05201 13.9149 4.27045C13.9149 4.48889 13.8288 4.70071 13.67 4.85295L13.0875 5.43546L11.4525 3.80047L12.035 3.21797C12.1939 3.0591 12.4057 2.97305 12.6175 2.97305ZM4.66761 10.6383C4.66761 10.5986 4.68747 10.5655 4.71395 10.539L10.7442 4.50213L12.3792 6.13712L6.34894 12.1674C6.34894 12.1674 6.28274 12.2137 6.24965 12.2137L4.50875 12.3726L4.66761 10.6317V10.6383ZM16.2317 15.5035C16.2317 15.7749 16.0066 16 15.7352 16H2.49645C2.22506 16 2 15.7749 2 15.5035C2 15.2322 2.22506 15.0071 2.49645 15.0071H15.7352C16.0066 15.0071 16.2317 15.2322 16.2317 15.5035Z" fill="#51545F"/>
</svg>
