<svg width="30" height="30" viewBox="0 0 30 30" fill="none" xmlns="http://www.w3.org/2000/svg">
<g opacity="0.2">
<path d="M17.265 0.44917C17.1167 0.326049 16.9215 0.278981 16.735 0.321438L0.485066 4.15398C0.199071 4.22117 -0.00272606 4.48262 2.78441e-05 4.78251V26.5002C0.000145031 26.8154 0.225203 27.0835 0.530008 27.1314L16.78 29.6864C17.1212 29.74 17.4403 29.5008 17.4927 29.1522C17.4975 29.1201 17.5 29.0877 17.5 29.0554V0.949975C17.5006 0.755174 17.414 0.570793 17.265 0.44917Z" fill="#2D61AC"/>
<path d="M29.375 27.139H16.875C16.5298 27.139 16.25 26.853 16.25 26.5002C16.25 26.1474 16.5298 25.8614 16.875 25.8614H28.75V4.14376H16.875C16.5298 4.14376 16.25 3.85776 16.25 3.50499C16.25 3.15222 16.5298 2.86627 16.875 2.86627H29.375C29.7202 2.86627 30 3.15228 30 3.50505V26.5003C30 26.853 29.7202 27.139 29.375 27.139Z" fill="#2D61AC"/>
<path d="M11.8751 20.7517C11.6596 20.7517 11.4593 20.6383 11.3451 20.4515L5.09508 10.2314C4.90295 9.93835 4.97971 9.54157 5.26646 9.34521C5.55322 9.14885 5.94146 9.2273 6.13359 9.52037C6.14115 9.53186 6.1483 9.5436 6.15509 9.55558L12.4051 19.7757C12.5873 20.0753 12.4975 20.4691 12.2043 20.6554C12.1055 20.7182 11.9914 20.7516 11.8751 20.7517Z" fill="#FAFAFA"/>
<path d="M5.62495 20.7517C5.27978 20.751 5.00052 20.4644 5.00122 20.1117C5.00146 19.9924 5.03439 19.8755 5.0962 19.7744L11.3462 9.55428C11.5193 9.24906 11.9017 9.14504 12.2003 9.32193C12.499 9.49883 12.6008 9.88969 12.4277 10.1949C12.4209 10.2068 12.4137 10.2186 12.4062 10.2301L6.15622 20.4502C6.04208 20.6378 5.84116 20.7519 5.62495 20.7517Z" fill="#FAFAFA"/>
<path d="M21.875 27.1391C21.5298 27.1391 21.25 26.8531 21.25 26.5003V3.50511C21.25 3.15234 21.5298 2.86633 21.875 2.86633C22.2202 2.86633 22.5 3.15234 22.5 3.50511V26.5003C22.5 26.8532 22.2202 27.1391 21.875 27.1391Z" fill="#2D61AC"/>
<path d="M29.375 23.3065H16.875C16.5298 23.3065 16.25 23.0205 16.25 22.6678C16.25 22.315 16.5298 22.029 16.875 22.029H29.375C29.7202 22.029 30 22.315 30 22.6678C30 23.0206 29.7202 23.3065 29.375 23.3065Z" fill="#2D61AC"/>
<path d="M29.375 19.474H16.875C16.5298 19.474 16.25 19.188 16.25 18.8352C16.25 18.4825 16.5298 18.1965 16.875 18.1965H29.375C29.7202 18.1965 30 18.4825 30 18.8352C30 19.1881 29.7202 19.474 29.375 19.474Z" fill="#2D61AC"/>
<path d="M29.375 15.6415H16.875C16.5298 15.6415 16.25 15.3555 16.25 15.0027C16.25 14.65 16.5298 14.364 16.875 14.364H29.375C29.7202 14.364 30 14.65 30 15.0027C30 15.3556 29.7202 15.6415 29.375 15.6415Z" fill="#2D61AC"/>
<path d="M29.375 11.809H16.875C16.5298 11.809 16.25 11.523 16.25 11.1702C16.25 10.8174 16.5298 10.5314 16.875 10.5314H29.375C29.7202 10.5314 30 10.8174 30 11.1702C30 11.523 29.7202 11.809 29.375 11.809Z" fill="#2D61AC"/>
<path d="M29.375 7.97641H16.875C16.5298 7.97641 16.25 7.6904 16.25 7.33763C16.25 6.98486 16.5298 6.69885 16.875 6.69885H29.375C29.7202 6.69885 30 6.98486 30 7.33763C30 7.69046 29.7202 7.97641 29.375 7.97641Z" fill="#2D61AC"/>
</g>
</svg>
