<svg width="20" height="20" viewBox="0 0 20 20" fill="none" xmlns="http://www.w3.org/2000/svg">
<mask id="mask0_1040_2379" style="mask-type:alpha" maskUnits="userSpaceOnUse" x="0" y="0" width="20" height="20">
<rect width="20" height="20" fill="#D9D9D9"/>
</mask>
<g mask="url(#mask0_1040_2379)">
<path d="M7.36009 6.54L9.20009 4.7V12.38C9.20009 12.86 9.52009 13.18 10.0001 13.18C10.4801 13.18 10.8001 12.86 10.8001 12.38V4.7L12.6401 6.54C12.9601 6.86 13.4401 6.86 13.7601 6.54C14.0801 6.22 14.0801 5.74 13.7601 5.42L10.5601 2.22C10.4801 2.14 10.4001 2.06 10.3201 2.06C10.1601 1.98 9.92009 1.98 9.68009 2.06C9.60009 2.06 9.52009 2.14 9.44009 2.22L6.24009 5.42C5.92009 5.74 5.92009 6.22 6.24009 6.54C6.56009 6.86 7.04009 6.86 7.36009 6.54ZM17.2001 11.58C16.7201 11.58 16.4001 11.9 16.4001 12.38V15.58C16.4001 16.06 16.0801 16.38 15.6001 16.38H4.40009C3.92009 16.38 3.60009 16.06 3.60009 15.58V12.38C3.60009 11.9 3.28009 11.58 2.80009 11.58C2.32009 11.58 2.00009 11.9 2.00009 12.38V15.58C2.00009 16.94 3.04009 17.98 4.40009 17.98H15.6001C16.9601 17.98 18.0001 16.94 18.0001 15.58V12.38C18.0001 11.9 17.6801 11.58 17.2001 11.58Z" fill="white"/>
</g>
</svg>
