<svg xmlns="http://www.w3.org/2000/svg" viewBox="0 0 134 157" width="134" height="157">
  <g transform="matrix(0.4300000071525574, 0, 0, 0.4300000071525574, 104.44999087527378, 18.274996076151666)" id="xxx-word">
    <path style="stroke: none; stroke-width: 1; stroke-dasharray: none; stroke-linecap: butt; stroke-dashoffset: 0; stroke-linejoin: miter; stroke-miterlimit: 4; fill: rgb(45,97,172); fill-rule: nonzero; opacity: 1;" vector-effect="non-scaling-stroke" transform=" translate(-287.5, -62.5)" d="M 325 105 L 250 105 C 247.23857625084602 105 245 102.76142374915396 245 100 L 245 25 C 245 22.238576250846034 247.23857625084602 20 250 20 C 252.76142374915398 20 255 22.23857625084603 255 25 L 255 95 L 325 95 C 327.76142374915395 95 330 97.23857625084604 330 100 C 330 102.76142374915396 327.76142374915395 105 325 105 Z" stroke-linecap="round"/>
  </g>
  <g transform="matrix(0.4300000071525574, 0, 0, 0.4300000071525574, 66.65000251904135, 29.0349773918834)" id="xxx-word">
    <path style="stroke: none; stroke-width: 1; stroke-dasharray: none; stroke-linecap: butt; stroke-dashoffset: 0; stroke-linejoin: miter; stroke-miterlimit: 4; fill: rgb(45,97,172); fill-rule: nonzero; opacity: 1;" vector-effect="non-scaling-stroke" transform=" translate(-200, -87.41)" d="M 325 154.83 C 322.23857625084605 154.83 320 152.591423749154 320 149.83 L 320 102.07 L 247.93 30 L 100 30 C 88.95430500338414 30 80 38.954305003384135 80 50 L 80 148.17000000000002 C 80 150.931423749154 77.76142374915396 153.17000000000002 75 153.17000000000002 C 72.23857625084604 153.17000000000002 70 150.931423749154 70 148.17000000000002 L 70 50 C 70 33.431457505076196 83.4314575050762 20 100 20 L 250 20 C 251.32698863655582 19.99763003632274 252.6004926632903 20.52286051062565 253.54 21.46 L 328.53999999999996 96.46000000000001 C 329.47713948937434 97.39950733670969 330.00236996367727 98.67301136344416 330 100 L 330 149.82999999999998 C 330 151.1560824491977 329.47321579817293 152.42785201369256 328.53553390593277 153.36553390593275 C 327.59785201369255 154.30321579817291 326.3260824491977 154.83 325 154.83 Z" stroke-linecap="round"/>
  </g>
  <g transform="matrix(0.4300000071525574, 0, 0, 0.4300000071525574, 66.65000251904135, 131.67498975507903)" id="xxx-word">
    <path style="stroke: none; stroke-width: 1; stroke-dasharray: none; stroke-linecap: butt; stroke-dashoffset: 0; stroke-linejoin: miter; stroke-miterlimit: 4; fill: rgb(45,97,172); fill-rule: nonzero; opacity: 1;" vector-effect="non-scaling-stroke" transform=" translate(-200, -325)" d="M 300 380 L 100 380 C 83.4314575050762 380 70 366.5685424949238 70 350 L 70 275 C 70 272.23857625084605 72.23857625084604 270 75 270 C 77.76142374915396 270 80 272.23857625084605 80 275 L 80 350 C 80 361.04569499661585 88.95430500338414 370 100 370 L 300 370 C 311.04569499661585 370 320 361.04569499661585 320 350 L 320 275 C 320 272.23857625084605 322.23857625084605 270 325 270 C 327.76142374915395 270 330 272.23857625084605 330 275 L 330 350 C 330 366.5685424949238 316.5685424949238 380 300 380 Z" stroke-linecap="round"/>
  </g>
  <g transform="matrix(0.4300000071525574, 0, 0, 0.4300000071525574, 66.65000251904135, 110.07502147667141)" id="xxx-word">
    <path style="stroke: none; stroke-width: 1; stroke-dasharray: none; stroke-linecap: butt; stroke-dashoffset: 0; stroke-linejoin: miter; stroke-miterlimit: 4; fill: rgb(45,97,172); fill-rule: nonzero; opacity: 1;" vector-effect="non-scaling-stroke" transform=" translate(-200, -275)" d="M 275 280 L 125 280 C 122.23857625084604 280 120 277.76142374915395 120 275 C 120 272.23857625084605 122.23857625084604 270 125 270 L 275 270 C 277.76142374915395 270 280 272.23857625084605 280 275 C 280 277.76142374915395 277.76142374915395 280 275 280 Z" stroke-linecap="round"/>
  </g>
  <g transform="matrix(0.4300000071525574, 0, 0, 0.4300000071525574, 50.4499900706111, 131.67498975507903)" id="xxx-word">
    <path style="stroke: none; stroke-width: 1; stroke-dasharray: none; stroke-linecap: butt; stroke-dashoffset: 0; stroke-linejoin: miter; stroke-miterlimit: 4; fill: rgb(45,97,172); fill-rule: nonzero; opacity: 1;" vector-effect="non-scaling-stroke" transform=" translate(-162.5, -325)" d="M 200 330 L 125 330 C 122.23857625084604 330 120 327.76142374915395 120 325 C 120 322.23857625084605 122.23857625084604 320 125 320 L 200 320 C 202.76142374915398 320 205 322.23857625084605 205 325 C 205 327.76142374915395 202.76142374915398 330 200 330 Z" stroke-linecap="round"/>
  </g>
  <g transform="matrix(0.4300000071525574, 0, 0, 0.4300000071525574, 66.65000251904135, 82.67498902492208)" id="xxx-word">
    <path style="stroke: none; stroke-width: 1; stroke-dasharray: none; stroke-linecap: butt; stroke-dashoffset: 0; stroke-linejoin: miter; stroke-miterlimit: 4; fill: rgb(45,97,172); fill-rule: nonzero; opacity: 1;" vector-effect="non-scaling-stroke" transform=" translate(-200, -211.59)" d="M 325 280 L 75 280 C 58.431457505076196 280 45 266.5685424949238 45 250 L 45 173.17 C 45 156.60145750507618 58.431457505076196 143.17 75 143.17 L 75.2 143.17 L 325.2 144.82999999999998 C 341.6737811299532 144.9832304590432 354.96143696492425 158.35557782734682 355.01 174.82999999999998 L 355.01 250 C 355.0100004421238 257.9582276085691 351.8479225562982 265.5903608521355 346.2196681963674 271.2167397524329 C 340.59141383643663 276.84311865273025 332.95822716644534 280.0026527425362 325 280 Z M 75 153.17 C 63.954305003384135 153.17 55 162.1243050033841 55 173.17 L 55 250 C 55 261.04569499661585 63.954305003384135 270 75 270 L 325 270 C 336.04569499661585 270 345 261.04569499661585 345 250 L 345 174.83 C 344.967583704357 163.84447852601383 336.10512746334746 154.92852657328794 325.12 154.83 L 75.12 153.17000000000002 Z" stroke-linecap="round"/>
  </g>
  <g transform="matrix(0.4300000071525574, 0, 0, 0.4300000071525574, 45.0300070796908, 82.67498902492208)" id="xxx-word">
    <path style="stroke: none; stroke-width: 1; stroke-dasharray: none; stroke-linecap: butt; stroke-dashoffset: 0; stroke-linejoin: miter; stroke-miterlimit: 4; fill: rgb(45,97,172); fill-rule: nonzero; opacity: 1;" vector-effect="non-scaling-stroke" transform=" translate(-196.75, -209.4)" d="M 175.2 223.15 L 184.54 221.15 Q 186.22 229.08 197.43 229.08 Q 202.55 229.08 205.3 227.08 C 206.99176952496973 225.9749628228826 208.02272042137216 224.10050664760544 208.05 222.08 C 208.04590829176823 220.65117179291448 207.61020401612862 219.2569181108678 206.8 218.08 Q 205.55 216.23000000000002 201.45000000000002 215.17000000000002 L 191.25000000000003 212.51000000000002 C 188.51806132646692 211.91123365565596 185.90540467291825 210.8600871883162 183.52000000000004 209.4 C 181.77743443735918 208.14847013264588 180.3973311832924 206.4578436464141 179.52000000000004 204.5 C 178.51794627391857 202.388159568771 178.00521916583997 200.07746940169682 178.02000000000004 197.74 C 177.8683880008777 193.29324519080922 179.8395104941712 189.03918421658253 183.33000000000004 186.28 Q 188.64000000000004 181.96 196.92000000000004 181.96 C 201.2068231805874 181.8834647335781 205.44057501026458 182.9169273445652 209.21000000000004 184.96 C 212.60294363577188 186.70430940586792 215.10412938048805 189.79721253286093 216.10000000000002 193.48000000000002 L 207 195.65 Q 204.89 189.6 197.16 189.6 Q 192.67 189.6 190.29999999999998 191.48 C 188.79117693656184 192.5972519602376 187.91273186292156 194.37275323195965 187.93999999999997 196.25 Q 187.93999999999997 200.82 195.35999999999996 202.66 L 204.41999999999996 204.93 Q 212.65999999999997 207 215.46999999999997 211.04000000000002 C 217.31731051157567 213.64964858287846 218.30005515585867 216.77274811079565 218.27999999999997 219.97000000000003 C 218.46536703147802 224.81409744430132 216.25061020335335 229.43815055166976 212.35999999999999 232.33000000000004 Q 206.44 236.84000000000003 197.02999999999997 236.84000000000003 C 192.19086271266272 236.9525402226097 187.4051987207104 235.8086666118623 183.14 233.52000000000004 C 179.16281957149647 231.3220653174929 176.2844635268576 227.56280181838645 175.2 223.15 Z" stroke-linecap="round"/>
  </g>
  <g transform="matrix(0.4300000071525574, 0, 0, 0.4300000071525574, 66.65000251904135, 82.67498902492208)" id="xxx-word">
    <path style="stroke: none; stroke-width: 1; stroke-dasharray: none; stroke-linecap: butt; stroke-dashoffset: 0; stroke-linejoin: miter; stroke-miterlimit: 4; fill: rgb(45,97,172); fill-rule: nonzero; opacity: 1;" vector-effect="non-scaling-stroke" transform=" translate(-211.91, -209.34)" d="M 216.68 236 L 206.91 236 L 190.46 182.68 L 200.62 182.68 L 212.85 223.54000000000002 L 225.35 182.68 L 233.35 182.68 Z" stroke-linecap="round"/>
  </g>
  <g transform="matrix(0.4300000071525574, 0, 0, 0.4300000071525574, 87.80997597888074, 81.7050183073434)" id="xxx-word">
    <path style="stroke: none; stroke-width: 1; stroke-dasharray: none; stroke-linecap: butt; stroke-dashoffset: 0; stroke-linejoin: miter; stroke-miterlimit: 4; fill: rgb(45,97,172); fill-rule: nonzero; opacity: 1;" vector-effect="non-scaling-stroke" transform=" translate(-248.99, -209.32)" d="M 270.61 208.73 L 270.61 236 L 266.35 236 L 263.42 228.81 Q 258.77000000000004 236.81 249.01000000000002 236.81 Q 238.11 236.81 232.74 228.53 C 229.10055069440995 222.80486404762382 227.23245989246948 216.1326142187191 227.37 209.35 Q 227.37 197.82999999999998 233.37 189.84 Q 239.37 181.85000000000002 250.15 181.84 Q 258.15 181.84 263.39 186.51 C 266.8083457213541 189.54579534279617 269.11676588569543 193.63479569487635 269.95 198.13 L 261.59 199.60999999999999 Q 259.25 189.85 250.37999999999997 189.83999999999997 C 246.73193426187248 189.77533400290795 243.282226435348 191.49645446614147 241.13999999999996 194.45 Q 237.56999999999996 199.06 237.56999999999996 208.63 Q 237.56999999999996 228.82999999999998 250.22999999999996 228.82999999999998 C 253.30504385477383 228.91471900144947 256.268803094974 227.6767851664764 258.36999999999995 225.42999999999998 C 260.59137148133306 222.97391887509966 261.7491858883564 219.73779165050036 261.59 216.42999999999998 L 250.58999999999997 216.42999999999998 L 250.58999999999997 208.7 Z" stroke-linecap="round"/>
  </g>
</svg>