<svg width="24" height="24" viewBox="0 0 24 24" fill="none" xmlns="http://www.w3.org/2000/svg">
<mask id="mask0_242_10957" style="mask-type:alpha" maskUnits="userSpaceOnUse" x="0" y="0" width="24" height="24">
<rect width="24" height="24" fill="#D9D9D9"/>
</mask>
<g mask="url(#mask0_242_10957)">
<path d="M2 17.147C2 16.6418 2.13038 16.191 2.39115 15.7945C2.65191 15.398 3.00014 15.0895 3.43586 14.8691C4.36741 14.4134 5.30411 14.0622 6.24598 13.8152C7.18787 13.5683 8.22306 13.4448 9.35157 13.4448C10.4801 13.4448 11.5153 13.5683 12.4571 13.8152C13.399 14.0622 14.3357 14.4134 15.2673 14.8691C15.703 15.0895 16.0512 15.398 16.312 15.7945C16.5727 16.191 16.7031 16.6418 16.7031 17.147V17.8369C16.7031 18.2315 16.5583 18.5783 16.2686 18.8774C15.979 19.1765 15.6274 19.326 15.214 19.326H3.48914C3.0757 19.326 2.72416 19.1812 2.4345 18.8915C2.14485 18.6019 2.00002 18.2503 2.00002 17.8369L2 17.147ZM20.5109 19.326H18.2847C18.4078 19.1011 18.5018 18.8617 18.5665 18.6078C18.6312 18.3539 18.6635 18.097 18.6635 17.8369V17.0263C18.6635 16.3829 18.506 15.7697 18.1909 15.1867C17.8758 14.6038 17.4289 14.1036 16.8502 13.6861C17.5074 13.7841 18.1313 13.9359 18.722 14.1413C19.3126 14.3468 19.8762 14.5897 20.4128 14.8699C20.9193 15.1401 21.3104 15.4585 21.5862 15.8252C21.8621 16.1919 22 16.5923 22 17.0263V17.8369C22 18.2503 21.8552 18.6019 21.5655 18.8915C21.2758 19.1812 20.9243 19.326 20.5109 19.326ZM9.35157 11.8613C8.40813 11.8613 7.60048 11.5254 6.92863 10.8536C6.25677 10.1817 5.92085 9.37409 5.92085 8.43066C5.92085 7.4872 6.25677 6.67956 6.92863 6.00772C7.60048 5.33587 8.40813 4.99994 9.35157 4.99994C10.295 4.99994 11.1026 5.33587 11.7745 6.00772C12.4463 6.67956 12.7823 7.4872 12.7823 8.43066C12.7823 9.37409 12.4463 10.1817 11.7745 10.8536C11.1026 11.5254 10.295 11.8613 9.35157 11.8613ZM17.8152 8.43066C17.8152 9.37409 17.4793 10.1817 16.8074 10.8536C16.1356 11.5254 15.328 11.8613 14.3845 11.8613C14.2739 11.8613 14.1332 11.8488 13.9623 11.8237C13.7914 11.7985 13.6506 11.7709 13.5401 11.7407C13.9266 11.276 14.2237 10.7604 14.4313 10.194C14.6389 9.62763 14.7427 9.03945 14.7427 8.42948C14.7427 7.81953 14.6368 7.23368 14.4251 6.67194C14.2133 6.11021 13.9183 5.59309 13.5401 5.12058C13.6808 5.07031 13.8215 5.03764 13.9623 5.02256C14.103 5.00748 14.2438 4.99994 14.3845 4.99994C15.328 4.99994 16.1356 5.33587 16.8074 6.00772C17.4793 6.67956 17.8152 7.4872 17.8152 8.43066ZM3.47029 17.8557H15.2328V17.147C15.2328 16.9421 15.1816 16.7599 15.0792 16.6003C14.9768 16.4407 14.8144 16.3012 14.5919 16.1818C13.7851 15.7659 12.9545 15.4508 12.0999 15.2365C11.2454 15.0222 10.3293 14.9151 9.35157 14.9151C8.37387 14.9151 7.45775 15.0222 6.6032 15.2365C5.74866 15.4508 4.918 15.7659 4.1112 16.1818C3.88878 16.3012 3.72635 16.4407 3.62392 16.6003C3.5215 16.7599 3.47029 16.9421 3.47029 17.147V17.8557ZM9.35157 10.3911C9.89068 10.3911 10.3522 10.1991 10.7361 9.81521C11.12 9.43129 11.312 8.96977 11.312 8.43066C11.312 7.89154 11.12 7.43002 10.7361 7.04611C10.3522 6.66219 9.89068 6.47023 9.35157 6.47023C8.81245 6.47023 8.35093 6.66219 7.96702 7.04611C7.5831 7.43002 7.39114 7.89154 7.39114 8.43066C7.39114 8.96977 7.5831 9.43129 7.96702 9.81521C8.35093 10.1991 8.81245 10.3911 9.35157 10.3911Z" fill="#2D61AC"/>
</g>
</svg>
