<svg width="20" height="20" viewBox="0 0 20 20" fill="none" xmlns="http://www.w3.org/2000/svg">
<mask id="mask0_450_10422" style="mask-type:alpha" maskUnits="userSpaceOnUse" x="0" y="0" width="20" height="20">
<rect width="20" height="20" fill="#D9D9D9"/>
</mask>
<g mask="url(#mask0_450_10422)">
<path d="M0 15.147C0 14.6418 0.130384 14.191 0.391154 13.7946C0.651906 13.3981 1.00014 13.0896 1.43586 12.8691C2.36741 12.4135 3.30411 12.0622 4.24598 11.8153C5.18787 11.5684 6.22306 11.4449 7.35157 11.4449C8.48007 11.4449 9.51525 11.5684 10.4571 11.8153C11.399 12.0622 12.3357 12.4135 13.2673 12.8691C13.703 13.0896 14.0512 13.3981 14.312 13.7946C14.5727 14.191 14.7031 14.6418 14.7031 15.147V15.837C14.7031 16.2315 14.5583 16.5784 14.2686 16.8774C13.979 17.1765 13.6274 17.3261 13.214 17.3261H1.48914C1.0757 17.3261 0.724156 17.1813 0.434503 16.8916C0.144851 16.6019 2.44918e-05 16.2504 2.44918e-05 15.837L0 15.147ZM18.5109 17.3261H16.2847C16.4078 17.1012 16.5018 16.8617 16.5665 16.6079C16.6312 16.354 16.6635 16.097 16.6635 15.837V15.0264C16.6635 14.383 16.506 13.7698 16.1909 13.1868C15.8758 12.6038 15.4289 12.1036 14.8502 11.6862C15.5074 11.7842 16.1313 11.9359 16.722 12.1414C17.3126 12.3469 17.8762 12.5897 18.4128 12.87C18.9193 13.1401 19.3104 13.4586 19.5862 13.8253C19.8621 14.192 20 14.5924 20 15.0264V15.837C20 16.2504 19.8552 16.6019 19.5655 16.8916C19.2758 17.1813 18.9243 17.3261 18.5109 17.3261ZM7.35157 9.86141C6.40813 9.86141 5.60048 9.52549 4.92863 8.85365C4.25677 8.1818 3.92085 7.37416 3.92085 6.43072C3.92085 5.48726 4.25677 4.67962 4.92863 4.00778C5.60048 3.33593 6.40813 3 7.35157 3C8.295 3 9.10265 3.33593 9.7745 4.00778C10.4463 4.67962 10.7823 5.48726 10.7823 6.43072C10.7823 7.37416 10.4463 8.1818 9.7745 8.85365C9.10265 9.52549 8.295 9.86141 7.35157 9.86141ZM15.8152 6.43072C15.8152 7.37416 15.4793 8.1818 14.8074 8.85365C14.1356 9.52549 13.328 9.86141 12.3845 9.86141C12.2739 9.86141 12.1332 9.84885 11.9623 9.82372C11.7914 9.7986 11.6506 9.77095 11.5401 9.7408C11.9266 9.27606 12.2237 8.76049 12.4313 8.19409C12.6389 7.62769 12.7427 7.03951 12.7427 6.42954C12.7427 5.81959 12.6368 5.23374 12.4251 4.672C12.2133 4.11027 11.9183 3.59315 11.5401 3.12064C11.6808 3.07037 11.8215 3.0377 11.9623 3.02262C12.103 3.00754 12.2438 3 12.3845 3C13.328 3 14.1356 3.33593 14.8074 4.00778C15.4793 4.67962 15.8152 5.48726 15.8152 6.43072ZM1.47029 15.8558H13.2328V15.147C13.2328 14.9422 13.1816 14.76 13.0792 14.6004C12.9768 14.4408 12.8144 14.3013 12.5919 14.1819C11.7851 13.7659 10.9545 13.4508 10.0999 13.2365C9.24538 13.0223 8.32926 12.9152 7.35157 12.9152C6.37387 12.9152 5.45775 13.0223 4.6032 13.2365C3.74866 13.4508 2.918 13.7659 2.1112 14.1819C1.88878 14.3013 1.72635 14.4408 1.62392 14.6004C1.5215 14.76 1.47029 14.9422 1.47029 15.147V15.8558ZM7.35157 8.39114C7.89068 8.39114 8.3522 8.19918 8.73611 7.81527C9.12003 7.43135 9.31199 6.96983 9.31199 6.43072C9.31199 5.8916 9.12003 5.43008 8.73611 5.04617C8.3522 4.66225 7.89068 4.47029 7.35157 4.47029C6.81245 4.47029 6.35093 4.66225 5.96702 5.04617C5.5831 5.43008 5.39114 5.8916 5.39114 6.43072C5.39114 6.96983 5.5831 7.43135 5.96702 7.81527C6.35093 8.19918 6.81245 8.39114 7.35157 8.39114Z" fill="#51545F"/>
</g>
</svg>
