<svg width="29" height="18" viewBox="0 0 29 18" fill="none" xmlns="http://www.w3.org/2000/svg">
<path fill-rule="evenodd" clip-rule="evenodd" d="M1.44855 0.6875C0.723673 0.6875 0.136047 1.27513 0.136047 2C0.136047 2.72487 0.723673 3.3125 1.44855 3.3125H26.8235C27.5484 3.3125 28.136 2.72487 28.136 2C28.136 1.27513 27.5484 0.6875 26.8235 0.6875H1.44855ZM0.386047 9C0.386047 8.27513 0.97368 7.6875 1.69855 7.6875H16.5735C17.2984 7.6875 17.886 8.27513 17.886 9C17.886 9.72487 17.2984 10.3125 16.5735 10.3125H1.69855C0.97368 10.3125 0.386047 9.72487 0.386047 9ZM0.636047 16C0.636047 15.2752 1.22368 14.6875 1.94855 14.6875H6.32355C7.04841 14.6875 7.63605 15.2752 7.63605 16C7.63605 16.7248 7.04841 17.3125 6.32355 17.3125H1.94855C1.22368 17.3125 0.636047 16.7248 0.636047 16Z" fill="white"/>
</svg>
