<svg width="20" height="20" viewBox="0 0 20 20" fill="none" xmlns="http://www.w3.org/2000/svg">
<mask id="mask0_702_520" style="mask-type:alpha" maskUnits="userSpaceOnUse" x="0" y="0" width="20" height="20">
<rect width="20" height="20" fill="#D9D9D9"/>
</mask>
<g mask="url(#mask0_702_520)">
<path d="M10 13.639C9.87148 13.639 9.75182 13.6185 9.64107 13.5774C9.53029 13.5364 9.425 13.466 9.32517 13.3661L6.00826 10.0493C5.84963 9.89062 5.77134 9.70499 5.7734 9.49235C5.77545 9.27971 5.85373 9.09065 6.00826 8.92517C6.17373 8.75971 6.36381 8.67424 6.5785 8.66877C6.7932 8.66329 6.98329 8.74329 7.14877 8.90877L9.20005 10.9601V2.8C9.20005 2.573 9.27663 2.38292 9.42979 2.22976C9.58294 2.07659 9.77302 2 10 2C10.227 2 10.4171 2.07659 10.5703 2.22976C10.7234 2.38292 10.8 2.573 10.8 2.8V10.9601L12.8513 8.90877C13.0099 8.75014 13.1983 8.67184 13.4164 8.67389C13.6345 8.67595 13.8263 8.75971 13.9918 8.92517C14.1463 9.09065 14.2263 9.278 14.2318 9.48723C14.2373 9.69645 14.1573 9.8838 13.9918 10.0493L10.6749 13.3661C10.5751 13.466 10.4698 13.5364 10.359 13.5774C10.2482 13.6185 10.1286 13.639 10 13.639ZM3.92825 18C3.38944 18 2.93337 17.8133 2.56003 17.44C2.1867 17.0667 2.00003 16.6106 2.00003 16.0718V13.9795C2.00003 13.7525 2.07662 13.5624 2.22979 13.4092C2.38295 13.2561 2.57303 13.1795 2.80003 13.1795C3.02704 13.1795 3.21712 13.2561 3.37027 13.4092C3.52343 13.5624 3.60001 13.7525 3.60001 13.9795V16.0718C3.60001 16.1538 3.6342 16.2291 3.70257 16.2975C3.77096 16.3658 3.84619 16.4 3.92825 16.4H16.0718C16.1539 16.4 16.2291 16.3658 16.2975 16.2975C16.3659 16.2291 16.4001 16.1538 16.4001 16.0718V13.9795C16.4001 13.7525 16.4766 13.5624 16.6298 13.4092C16.7829 13.2561 16.973 13.1795 17.2 13.1795C17.427 13.1795 17.6171 13.2561 17.7703 13.4092C17.9234 13.5624 18 13.7525 18 13.9795V16.0718C18 16.6106 17.8134 17.0667 17.44 17.44C17.0667 17.8133 16.6106 18 16.0718 18H3.92825Z" fill="white"/>
</g>
</svg>
