<svg width="18" height="18" viewBox="0 0 18 18" fill="none" xmlns="http://www.w3.org/2000/svg">
<mask id="mask0_337_11706" style="mask-type:alpha" maskUnits="userSpaceOnUse" x="0" y="0" width="18" height="18">
<rect width="18" height="18" fill="#D9D9D9"/>
</mask>
<g mask="url(#mask0_337_11706)">
<path d="M9.00123 16C8.03307 16 7.12304 15.8163 6.27115 15.4488C5.41925 15.0814 4.67822 14.5827 4.04806 13.9529C3.41788 13.323 2.919 12.5823 2.5514 11.7307C2.1838 10.8792 2 9.9694 2 9.00123C2 8.03307 2.18372 7.12304 2.55116 6.27115C2.9186 5.41925 3.41726 4.67822 4.04714 4.04806C4.67703 3.41789 5.41773 2.919 6.26926 2.5514C7.12076 2.1838 8.0306 2 8.99877 2C9.96693 2 10.877 2.18372 11.7288 2.55116C12.5807 2.9186 13.3218 3.41726 13.9519 4.04714C14.5821 4.67703 15.081 5.41773 15.4486 6.26926C15.8162 7.12077 16 8.0306 16 8.99877C16 9.96693 15.8163 10.877 15.4488 11.7288C15.0814 12.5807 14.5827 13.3218 13.9529 13.9519C13.323 14.5821 12.5823 15.081 11.7307 15.4486C10.8792 15.8162 9.9694 16 9.00123 16ZM9 14.8948C9.69132 14.8948 10.357 14.7778 10.9971 14.544C11.6373 14.3102 12.2223 13.9718 12.7522 13.5288L4.47125 5.24775C4.03292 5.77771 3.69567 6.36275 3.4595 7.00286C3.22333 7.64297 3.10525 8.30868 3.10525 9C3.10525 10.6456 3.6763 12.0395 4.81841 13.1816C5.96052 14.3237 7.35438 14.8948 9 14.8948ZM13.5288 12.7522C13.9718 12.2223 14.3102 11.6373 14.544 10.9971C14.7778 10.357 14.8948 9.69132 14.8948 9C14.8948 7.35438 14.3237 5.96052 13.1816 4.81841C12.0395 3.6763 10.6456 3.10525 9 3.10525C8.30702 3.10525 7.63971 3.22097 6.99807 3.45241C6.35642 3.68387 5.77299 4.02348 5.24775 4.47125L13.5288 12.7522Z" fill="#51545F"/>
</g>
</svg>
