<svg width="24" height="25" viewBox="0 0 24 25" fill="none" xmlns="http://www.w3.org/2000/svg">
<mask id="mask0_337_11067" style="mask-type:alpha" maskUnits="userSpaceOnUse" x="0" y="0" width="24" height="25">
<rect y="0.072998" width="24" height="24" fill="#D9D9D9"/>
</mask>
<g mask="url(#mask0_337_11067)">
<path d="M9.78726 11.3411C8.78491 11.3411 7.92865 10.986 7.21847 10.2758C6.5083 9.56564 6.15322 8.70938 6.15322 7.70704C6.15322 6.70468 6.5083 5.84841 7.21847 5.13825C7.92865 4.42808 8.78491 4.073 9.78726 4.073C10.7896 4.073 11.6459 4.42808 12.356 5.13825C13.0662 5.84841 13.4213 6.70468 13.4213 7.70704C13.4213 8.70938 13.0662 9.56564 12.356 10.2758C11.6459 10.986 10.7896 11.3411 9.78726 11.3411ZM2 17.6707V16.9399C2 16.4155 2.13379 15.9406 2.40136 15.5153C2.66891 15.09 3.04229 14.7609 3.52151 14.5279C4.38411 14.0979 5.31592 13.7389 6.31693 13.4507C7.31796 13.1625 8.47474 13.0184 9.78726 13.0184H10.0908C10.1746 13.0184 10.2651 13.029 10.3623 13.0503C10.2572 13.2952 10.1703 13.5448 10.1017 13.7991C10.0332 14.0533 9.97629 14.3122 9.93104 14.5758H9.78726C8.59188 14.5758 7.53361 14.7132 6.61246 14.9881C5.69129 15.263 4.89925 15.5728 4.23633 15.9176C4.00072 16.0441 3.82866 16.1918 3.72016 16.3609C3.61167 16.5299 3.55743 16.723 3.55743 16.9399V17.6907H10.0987C10.1759 17.9543 10.2761 18.2218 10.3993 18.4934C10.5224 18.7649 10.6578 19.0165 10.8056 19.2481H3.57739C3.13945 19.2481 2.76707 19.0947 2.46025 18.7879C2.15342 18.4811 2 18.1087 2 17.6707ZM16.0211 19.4158L15.8953 18.6391C15.6477 18.5659 15.4147 18.4701 15.1964 18.3516C14.9781 18.2331 14.7705 18.0847 14.5735 17.9063L13.8007 18.1898C13.6356 18.2458 13.4766 18.2421 13.3235 18.1789C13.1704 18.1156 13.0499 18.0155 12.9621 17.8783L12.8243 17.6348C12.7365 17.487 12.7049 17.3253 12.7295 17.1496C12.7541 16.9739 12.835 16.8314 12.9721 16.7223L13.5931 16.2291C13.5185 15.9602 13.4813 15.6953 13.4813 15.4344C13.4813 15.1735 13.5185 14.9086 13.5931 14.6397L12.9821 14.1265C12.845 14.0174 12.7624 13.8792 12.7345 13.7122C12.7065 13.5451 12.7365 13.3877 12.8243 13.24L12.9781 12.9804C13.0659 12.8433 13.1854 12.7431 13.3365 12.6799C13.4876 12.6167 13.6456 12.613 13.8107 12.6689L14.5735 12.9525C14.7638 12.7741 14.9698 12.6273 15.1915 12.5122C15.4131 12.397 15.6477 12.3029 15.8953 12.2296L16.0211 11.4369C16.053 11.2612 16.1349 11.1198 16.2667 11.0126C16.3985 10.9055 16.5522 10.8519 16.7279 10.8519H17.0035C17.1792 10.8519 17.3329 10.9081 17.4647 11.0206C17.5965 11.1331 17.6783 11.2772 17.7103 11.4529L17.8261 12.2296C18.0737 12.3029 18.3083 12.3997 18.5299 12.5202C18.7516 12.6406 18.9576 12.7954 19.1479 12.9844L19.8787 12.7009C20.0545 12.6343 20.2215 12.6327 20.3799 12.6959C20.5383 12.7591 20.6615 12.8646 20.7493 13.0124L20.8971 13.2559C20.9849 13.4037 21.0149 13.5638 20.9869 13.7362C20.959 13.9085 20.8764 14.0493 20.7393 14.1584L20.1283 14.6716C20.2029 14.9192 20.2401 15.1788 20.2401 15.4504C20.2401 15.7219 20.2029 15.9815 20.1283 16.2291L20.7493 16.7223C20.8864 16.8314 20.9673 16.9712 20.9919 17.1416C21.0165 17.312 20.9849 17.471 20.8971 17.6188L20.7433 17.8783C20.6555 18.0155 20.5377 18.1156 20.3899 18.1789C20.2422 18.2421 20.0858 18.2458 19.9207 18.1898L19.1479 17.9063C18.9509 18.0847 18.7433 18.2331 18.525 18.3516C18.3067 18.4701 18.0737 18.5659 17.8261 18.6391L17.7103 19.4318C17.6783 19.6075 17.5965 19.749 17.4647 19.8561C17.3329 19.9633 17.1792 20.0168 17.0035 20.0168H16.7279C16.5522 20.0168 16.3985 19.9606 16.2667 19.8481C16.1349 19.7357 16.053 19.5916 16.0211 19.4158ZM16.8557 17.4111C17.4002 17.4111 17.8657 17.2178 18.2524 16.8311C18.6391 16.4444 18.8325 15.9788 18.8325 15.4344C18.8325 14.8899 18.6391 14.4244 18.2524 14.0377C17.8657 13.651 17.4002 13.4576 16.8557 13.4576C16.3113 13.4576 15.8457 13.651 15.459 14.0377C15.0723 14.4244 14.8789 14.8899 14.8789 15.4344C14.8789 15.9788 15.0723 16.4444 15.459 16.8311C15.8457 17.2178 16.3113 17.4111 16.8557 17.4111ZM9.78726 9.78365C10.3583 9.78365 10.8472 9.58031 11.2539 9.17364C11.6605 8.76697 11.8639 8.27811 11.8639 7.70704C11.8639 7.13597 11.6605 6.6471 11.2539 6.24043C10.8472 5.83376 10.3583 5.63043 9.78726 5.63043C9.21619 5.63043 8.72732 5.83376 8.32065 6.24043C7.91398 6.6471 7.71065 7.13597 7.71065 7.70704C7.71065 8.27811 7.91398 8.76697 8.32065 9.17364C8.72732 9.58031 9.21619 9.78365 9.78726 9.78365Z" fill="#2D61AC"/>
</g>
</svg>
