<svg width="20" height="21" viewBox="0 0 20 21" fill="none" xmlns="http://www.w3.org/2000/svg">
<mask id="mask0_438_4442" style="mask-type:alpha" maskUnits="userSpaceOnUse" x="0" y="0" width="20" height="21">
<rect y="0.072998" width="20" height="20" fill="#D9D9D9"/>
</mask>
<g mask="url(#mask0_438_4442)">
<path d="M7.78726 9.34105C6.78491 9.34105 5.92865 8.98597 5.21847 8.2758C4.5083 7.56564 4.15322 6.70938 4.15322 5.70704C4.15322 4.70468 4.5083 3.84841 5.21847 3.13825C5.92865 2.42808 6.78491 2.073 7.78726 2.073C8.7896 2.073 9.64587 2.42808 10.356 3.13825C11.0662 3.84841 11.4213 4.70468 11.4213 5.70704C11.4213 6.70938 11.0662 7.56564 10.356 8.2758C9.64587 8.98597 8.7896 9.34105 7.78726 9.34105ZM0 15.6707V14.9399C0 14.4155 0.133786 13.9406 0.401357 13.5153C0.66891 13.09 1.04229 12.7609 1.52151 12.5279C2.38411 12.0979 3.31592 11.7389 4.31693 11.4507C5.31796 11.1625 6.47474 11.0184 7.78726 11.0184H8.09075C8.17461 11.0184 8.26514 11.029 8.36232 11.0503C8.25716 11.2952 8.1703 11.5448 8.10173 11.7991C8.03319 12.0533 7.97629 12.3122 7.93104 12.5758H7.78726C6.59188 12.5758 5.53361 12.7132 4.61246 12.9881C3.69129 13.263 2.89925 13.5728 2.23633 13.9176C2.00072 14.0441 1.82866 14.1918 1.72016 14.3609C1.61167 14.5299 1.55743 14.723 1.55743 14.9399V15.6907H8.09875C8.17595 15.9543 8.27612 16.2218 8.39926 16.4934C8.52239 16.7649 8.65783 17.0165 8.80558 17.2481H1.57739C1.13945 17.2481 0.767074 17.0947 0.460255 16.7879C0.153418 16.4811 0 16.1087 0 15.6707ZM14.0211 17.4158L13.8953 16.6391C13.6477 16.5659 13.4147 16.4701 13.1964 16.3516C12.9781 16.2331 12.7705 16.0847 12.5735 15.9063L11.8007 16.1898C11.6356 16.2458 11.4766 16.2421 11.3235 16.1789C11.1704 16.1156 11.0499 16.0155 10.9621 15.8783L10.8243 15.6348C10.7365 15.487 10.7049 15.3253 10.7295 15.1496C10.7541 14.9739 10.835 14.8314 10.9721 14.7223L11.5931 14.2291C11.5185 13.9602 11.4813 13.6953 11.4813 13.4344C11.4813 13.1735 11.5185 12.9086 11.5931 12.6397L10.9821 12.1265C10.845 12.0174 10.7624 11.8792 10.7345 11.7122C10.7065 11.5451 10.7365 11.3877 10.8243 11.24L10.9781 10.9804C11.0659 10.8433 11.1854 10.7431 11.3365 10.6799C11.4876 10.6167 11.6456 10.613 11.8107 10.6689L12.5735 10.9525C12.7638 10.7741 12.9698 10.6273 13.1915 10.5122C13.4131 10.397 13.6477 10.3029 13.8953 10.2296L14.0211 9.43694C14.053 9.26122 14.1349 9.11979 14.2667 9.01264C14.3985 8.90548 14.5522 8.85191 14.7279 8.85191H15.0035C15.1792 8.85191 15.3329 8.90815 15.4647 9.02063C15.5965 9.1331 15.6783 9.27719 15.7103 9.4529L15.8261 10.2296C16.0737 10.3029 16.3083 10.3997 16.5299 10.5202C16.7516 10.6406 16.9576 10.7954 17.1479 10.9844L17.8787 10.7009C18.0545 10.6343 18.2215 10.6327 18.3799 10.6959C18.5383 10.7591 18.6615 10.8646 18.7493 11.0124L18.8971 11.2559C18.9849 11.4037 19.0149 11.5638 18.9869 11.7362C18.959 11.9085 18.8764 12.0493 18.7393 12.1584L18.1283 12.6716C18.2029 12.9192 18.2401 13.1788 18.2401 13.4504C18.2401 13.7219 18.2029 13.9815 18.1283 14.2291L18.7493 14.7223C18.8864 14.8314 18.9673 14.9712 18.9919 15.1416C19.0165 15.312 18.9849 15.471 18.8971 15.6188L18.7433 15.8783C18.6555 16.0155 18.5377 16.1156 18.3899 16.1789C18.2422 16.2421 18.0858 16.2458 17.9207 16.1898L17.1479 15.9063C16.9509 16.0847 16.7433 16.2331 16.525 16.3516C16.3067 16.4701 16.0737 16.5659 15.8261 16.6391L15.7103 17.4318C15.6783 17.6075 15.5965 17.749 15.4647 17.8561C15.3329 17.9633 15.1792 18.0168 15.0035 18.0168H14.7279C14.5522 18.0168 14.3985 17.9606 14.2667 17.8481C14.1349 17.7357 14.053 17.5916 14.0211 17.4158ZM14.8557 15.4111C15.4002 15.4111 15.8657 15.2178 16.2524 14.8311C16.6391 14.4444 16.8325 13.9788 16.8325 13.4344C16.8325 12.8899 16.6391 12.4244 16.2524 12.0377C15.8657 11.651 15.4002 11.4576 14.8557 11.4576C14.3113 11.4576 13.8457 11.651 13.459 12.0377C13.0723 12.4244 12.8789 12.8899 12.8789 13.4344C12.8789 13.9788 13.0723 14.4444 13.459 14.8311C13.8457 15.2178 14.3113 15.4111 14.8557 15.4111ZM7.78726 7.78365C8.35833 7.78365 8.84719 7.58031 9.25386 7.17364C9.66053 6.76697 9.86387 6.27811 9.86387 5.70704C9.86387 5.13597 9.66053 4.6471 9.25386 4.24043C8.84719 3.83376 8.35833 3.63043 7.78726 3.63043C7.21619 3.63043 6.72732 3.83376 6.32065 4.24043C5.91398 4.6471 5.71065 5.13597 5.71065 5.70704C5.71065 6.27811 5.91398 6.76697 6.32065 7.17364C6.72732 7.58031 7.21619 7.78365 7.78726 7.78365Z" fill="#51545F"/>
</g>
</svg>
