<svg width="26" height="27" viewBox="0 0 26 27" fill="none" xmlns="http://www.w3.org/2000/svg">
<path d="M11 13.073C11 13.6034 11.2107 14.1121 11.5858 14.4872C11.9609 14.8623 12.4696 15.073 13 15.073C13.5304 15.073 14.0391 14.8623 14.4142 14.4872C14.7893 14.1121 15 13.6034 15 13.073C15 12.5426 14.7893 12.0339 14.4142 11.6588C14.0391 11.2837 13.5304 11.073 13 11.073C12.4696 11.073 11.9609 11.2837 11.5858 11.6588C11.2107 12.0339 11 12.5426 11 13.073ZM11 7.073C11 7.60343 11.2107 8.11214 11.5858 8.48721C11.9609 8.86228 12.4696 9.073 13 9.073C13.5304 9.073 14.0391 8.86228 14.4142 8.48721C14.7893 8.11214 15 7.60343 15 7.073C15 6.54257 14.7893 6.03386 14.4142 5.65878C14.0391 5.28371 13.5304 5.073 13 5.073C12.4696 5.073 11.9609 5.28371 11.5858 5.65878C11.2107 6.03386 11 6.54257 11 7.073ZM11 19.073C11 19.6034 11.2107 20.1121 11.5858 20.4872C11.9609 20.8623 12.4696 21.073 13 21.073C13.5304 21.073 14.0391 20.8623 14.4142 20.4872C14.7893 20.1121 15 19.6034 15 19.073C15 18.5426 14.7893 18.0339 14.4142 17.6588C14.0391 17.2837 13.5304 17.073 13 17.073C12.4696 17.073 11.9609 17.2837 11.5858 17.6588C11.2107 18.0339 11 18.5426 11 19.073Z" fill="#51545F"/>
</svg>
