<svg width="24" height="24" viewBox="0 0 24 24" fill="none" xmlns="http://www.w3.org/2000/svg">
<path d="M20.6791 11.65C18.9116 7.54625 15.5866 5 11.9991 5C8.41159 5 5.08659 7.54625 3.31909 11.65C3.27099 11.7604 3.24609 11.8796 3.24609 12C3.24609 12.1205 3.27099 12.2396 3.31909 12.35C5.08659 16.4538 8.41159 19 11.9991 19C15.5866 19 18.9116 16.4538 20.6791 12.35C20.7273 12.2396 20.7522 12.1205 20.7522 12C20.7522 11.8796 20.7273 11.7604 20.6791 11.65ZM11.9991 17.25C9.22539 17.25 6.60039 15.2463 5.08659 12C6.60039 8.75375 9.22539 6.75 11.9991 6.75C14.7729 6.75 17.3979 8.75375 18.9116 12C17.3979 15.2463 14.7729 17.25 11.9991 17.25ZM11.9991 8.5C11.3069 8.5 10.6302 8.70527 10.0547 9.08986C9.4791 9.47444 9.03049 10.0211 8.76559 10.6606C8.50069 11.3002 8.43139 12.0039 8.56639 12.6828C8.70139 13.3617 9.03479 13.9854 9.52429 14.4749C10.0138 14.9644 10.6374 15.2977 11.3163 15.4327C11.9953 15.5678 12.699 15.4985 13.3385 15.2336C13.9781 14.9687 14.5247 14.5201 14.9093 13.9445C15.2939 13.3689 15.4991 12.6922 15.4991 12C15.4991 11.0717 15.1304 10.1815 14.474 9.52513C13.8176 8.86875 12.9274 8.5 11.9991 8.5ZM11.9991 13.75C11.653 13.75 11.3147 13.6474 11.0269 13.4551C10.7391 13.2628 10.5148 12.9895 10.3824 12.6697C10.2499 12.3499 10.2152 11.9981 10.2828 11.6586C10.3503 11.3191 10.517 11.0073 10.7617 10.7626C11.0065 10.5178 11.3183 10.3512 11.6577 10.2836C11.9972 10.2161 12.3491 10.2508 12.6688 10.3832C12.9886 10.5157 13.2619 10.74 13.4542 11.0278C13.6465 11.3155 13.7491 11.6539 13.7491 12C13.7491 12.4641 13.5648 12.9092 13.2366 13.2374C12.9084 13.5656 12.4633 13.75 11.9991 13.75Z" fill="#51545F"/>
</svg>
