<svg width="24" height="24" viewBox="0 0 24 24" fill="none" xmlns="http://www.w3.org/2000/svg">
<path d="M11.1517 7.26566C11.4322 7.22267 11.7156 7.20128 11.9993 7.20169C14.5421 7.20169 16.9329 9.03278 18.3242 11.9993C18.1114 12.4508 17.8711 12.8887 17.6046 13.3107C17.5199 13.4417 17.4755 13.5945 17.4766 13.7505C17.4784 13.925 17.5372 14.0941 17.6441 14.232C17.751 14.37 17.9001 14.4692 18.0686 14.5145C18.2371 14.5598 18.4159 14.5487 18.5775 14.4829C18.7391 14.4172 18.8748 14.3003 18.9639 14.1503C19.3364 13.5649 19.66 12.9498 19.9314 12.3112C19.9743 12.2114 19.9964 12.1039 19.9964 11.9953C19.9964 11.8867 19.9743 11.7792 19.9314 11.6795C18.3162 7.92933 15.2777 5.60248 11.9993 5.60248C11.624 5.60059 11.2493 5.63271 10.8799 5.69843C10.7749 5.71628 10.6744 5.75464 10.5842 5.81132C10.494 5.868 10.4159 5.94188 10.3543 6.02875C10.2926 6.11562 10.2487 6.21378 10.225 6.31763C10.2013 6.42147 10.1983 6.52897 10.2162 6.63397C10.234 6.73898 10.2724 6.83944 10.3291 6.92962C10.3858 7.0198 10.4596 7.09794 10.5465 7.15956C10.6334 7.22119 10.7315 7.2651 10.8354 7.2888C10.9392 7.31249 11.0467 7.31549 11.1517 7.29764V7.26566ZM5.37059 4.23516C5.29604 4.1606 5.20753 4.10146 5.11012 4.06112C5.01271 4.02077 4.90831 4 4.80287 4C4.69744 4 4.59304 4.02077 4.49563 4.06112C4.39822 4.10146 4.30971 4.1606 4.23515 4.23516C4.08459 4.38573 4 4.58994 4 4.80288C4 5.01581 4.08459 5.22003 4.23515 5.3706L6.71393 7.84137C5.58295 8.93006 4.68282 10.2354 4.06724 11.6795C4.02321 11.7804 4.00048 11.8893 4.00048 11.9993C4.00048 12.1094 4.02321 12.2183 4.06724 12.3192C5.68244 16.0693 8.72094 18.3962 11.9993 18.3962C13.4363 18.3862 14.8393 17.9584 16.0373 17.1648L18.628 19.7635C18.7024 19.8384 18.7908 19.8979 18.8883 19.9385C18.9857 19.9791 19.0902 20 19.1958 20C19.3013 20 19.4058 19.9791 19.5033 19.9385C19.6007 19.8979 19.6891 19.8384 19.7635 19.7635C19.8384 19.6891 19.8979 19.6007 19.9385 19.5033C19.9791 19.4058 20 19.3013 20 19.1958C20 19.0902 19.9791 18.9857 19.9385 18.8882C19.8979 18.7908 19.8384 18.7024 19.7635 18.628L5.37059 4.23516ZM10.4561 11.5835L12.4151 13.5426C12.28 13.5813 12.1399 13.6002 11.9993 13.5985C11.5752 13.5985 11.1684 13.43 10.8685 13.1301C10.5686 12.8302 10.4001 12.4235 10.4001 11.9993C10.3985 11.8587 10.4173 11.7187 10.4561 11.5835ZM11.9993 16.7969C9.45657 16.7969 7.06575 14.9659 5.68244 11.9993C6.19905 10.8589 6.93228 9.82965 7.84137 8.96882L9.25667 10.4001C8.92423 11.0068 8.79749 11.705 8.89546 12.3899C8.99342 13.0748 9.31082 13.7094 9.80002 14.1986C10.2892 14.6878 10.9239 15.0052 11.6087 15.1032C12.2936 15.2011 12.9918 15.0744 13.5985 14.742L14.8699 15.9973C13.9992 16.5098 13.0096 16.7855 11.9993 16.7969Z" fill="#51545F"/>
</svg>
