<svg width="18" height="18" viewBox="0 0 18 18" fill="none" xmlns="http://www.w3.org/2000/svg">
<path d="M4.76116 7.75645C5.35435 7.75645 5.93421 7.58055 6.42743 7.251C6.92064 6.92144 7.30505 6.45303 7.53206 5.905C7.75906 5.35697 7.81845 4.75393 7.70273 4.17215C7.587 3.59036 7.30136 3.05596 6.88191 2.63651C6.46247 2.21707 5.92806 1.93142 5.34628 1.8157C4.76449 1.69997 4.16145 1.75937 3.61342 1.98637C3.06539 2.21337 2.59698 2.59778 2.26743 3.091C1.93787 3.58421 1.76197 4.16408 1.76197 4.75726C1.76284 5.55243 2.07911 6.31478 2.64138 6.87705C3.20364 7.43932 3.966 7.75558 4.76116 7.75645ZM4.76116 3.75753C4.95889 3.75753 5.15218 3.81616 5.31659 3.92601C5.48099 4.03587 5.60913 4.192 5.6848 4.37468C5.76046 4.55736 5.78026 4.75837 5.74169 4.9523C5.70311 5.14623 5.6079 5.32436 5.46808 5.46418C5.32827 5.60399 5.15013 5.6992 4.9562 5.73778C4.76227 5.77635 4.56126 5.75656 4.37858 5.68089C4.19591 5.60522 4.03977 5.47708 3.92992 5.31268C3.82007 5.14827 3.76143 4.95499 3.76143 4.75726C3.76161 4.49217 3.867 4.23799 4.05444 4.05054C4.24189 3.86309 4.49607 3.75771 4.76116 3.75753ZM13.2433 10.2402C12.6501 10.2402 12.0702 10.4161 11.577 10.7456C11.0838 11.0752 10.6994 11.5436 10.4724 12.0916C10.2454 12.6396 10.186 13.2427 10.3017 13.8245C10.4174 14.4063 10.7031 14.9407 11.1225 15.3601C11.542 15.7795 12.0764 16.0652 12.6581 16.1809C13.2399 16.2966 13.843 16.2372 14.391 16.0102C14.939 15.7832 15.4074 15.3988 15.737 14.9056C16.0665 14.4124 16.2424 13.8325 16.2424 13.2394C16.2416 12.4442 15.9253 11.6818 15.363 11.1196C14.8008 10.5573 14.0384 10.241 13.2433 10.2402ZM13.2433 14.2391C13.0455 14.2391 12.8522 14.1804 12.6878 14.0706C12.5234 13.9607 12.3953 13.8046 12.3196 13.6219C12.244 13.4393 12.2242 13.2382 12.2627 13.0443C12.3013 12.8504 12.3965 12.6723 12.5363 12.5324C12.6762 12.3926 12.8543 12.2974 13.0482 12.2588C13.2421 12.2203 13.4432 12.2401 13.6258 12.3157C13.8085 12.3914 13.9647 12.5195 14.0745 12.6839C14.1844 12.8483 14.243 13.0416 14.243 13.2394C14.2428 13.5044 14.1374 13.7586 13.95 13.9461C13.7625 14.1335 13.5083 14.2389 13.2433 14.2391ZM16.7071 1.29338C16.6143 1.20053 16.5041 1.12687 16.3829 1.07661C16.2616 1.02636 16.1316 1.00049 16.0003 1.00049C15.869 1.00049 15.739 1.02636 15.6177 1.07661C15.4965 1.12687 15.3863 1.20053 15.2935 1.29338L1.29723 15.2896C1.20345 15.3822 1.12891 15.4925 1.0779 15.614C1.02689 15.7355 1.00042 15.8659 1 15.9977C0.999593 16.1295 1.02525 16.2601 1.0755 16.382C1.12575 16.5038 1.1996 16.6145 1.2928 16.7077C1.386 16.8009 1.49671 16.8748 1.61856 16.925C1.7404 16.9752 1.87099 17.0009 2.00279 17.0005C2.13459 17.0001 2.265 16.9736 2.38653 16.9226C2.50806 16.8716 2.6183 16.797 2.71091 16.7032L16.7071 2.707C16.8 2.6142 16.8736 2.50401 16.9239 2.38273C16.9741 2.26146 17 2.13147 17 2.00019C17 1.86892 16.9741 1.73893 16.9239 1.61765C16.8736 1.49638 16.8 1.38619 16.7071 1.29338Z" fill="#51545F"/>
</svg>
