<svg width="24" height="24" viewBox="0 0 24 24" fill="none" xmlns="http://www.w3.org/2000/svg">
<path fill-rule="evenodd" clip-rule="evenodd" d="M14.819 9.17774C14.819 9.92366 14.522 10.639 13.9932 11.1665C13.4644 11.6939 12.7473 11.9902 11.9995 11.9902C11.2517 11.9902 10.5345 11.6939 10.0058 11.1665C9.47702 10.639 9.17996 9.92366 9.17996 9.17774C9.17996 8.43182 9.47702 7.71645 10.0058 7.189C10.5345 6.66156 11.2517 6.36524 11.9995 6.36524C12.7473 6.36524 13.4644 6.66156 13.9932 7.189C14.522 7.71645 14.819 8.43182 14.819 9.17774ZM14.8878 12.6349C15.5998 12.0427 16.1116 11.2461 16.3538 10.3535C16.5958 9.46089 16.5562 8.51557 16.2405 7.64615C15.9249 6.77672 15.3483 6.02541 14.5894 5.49443C13.8304 4.96345 12.9259 4.67859 11.9989 4.67859C11.0719 4.67859 10.1674 4.96345 9.40848 5.49443C8.64954 6.02541 8.073 6.77672 7.75732 7.64615C7.44163 8.51557 7.40211 9.46089 7.64415 10.3535C7.8862 11.2461 8.39803 12.0427 9.11004 12.6349C7.9998 13.1584 7.0532 13.9733 6.37158 14.9923C5.68996 16.0113 5.29898 17.1959 5.24049 18.4196C5.23505 18.6401 5.31637 18.854 5.46705 19.0153C5.61771 19.1767 5.82575 19.2729 6.04662 19.2832C6.26748 19.2935 6.48361 19.2171 6.64871 19.0704C6.81381 18.9237 6.91477 18.7184 6.92996 18.4984C6.99145 17.1984 7.55241 15.9721 8.4964 15.0739C9.44039 14.1756 10.6949 13.6744 11.9995 13.6744C13.3041 13.6744 14.5586 14.1756 15.5026 15.0739C16.4466 15.9721 17.0076 17.1984 17.069 18.4984C17.0719 18.6107 17.097 18.7213 17.1432 18.8238C17.1895 18.9263 17.2558 19.0186 17.3382 19.0951C17.4207 19.1717 17.5177 19.2311 17.6234 19.2698C17.7292 19.3085 17.8416 19.3257 17.9542 19.3204C18.0667 19.3152 18.177 19.2875 18.2787 19.2392C18.3804 19.1908 18.4714 19.1227 18.5463 19.0388C18.6213 18.9549 18.6786 18.8569 18.715 18.7506C18.7515 18.6443 18.7663 18.5317 18.7585 18.4196C18.6999 17.1958 18.3087 16.0111 17.627 14.9921C16.9451 13.9731 15.9983 13.1583 14.8878 12.6349Z" fill="#51545F"/>
</svg>
