<svg width="20" height="21" viewBox="0 0 20 21" fill="none" xmlns="http://www.w3.org/2000/svg">
<mask id="mask0_438_4467" style="mask-type:alpha" maskUnits="userSpaceOnUse" x="0" y="0" width="20" height="21">
<rect y="0.072998" width="20" height="20" fill="#D9D9D9"/>
</mask>
<g mask="url(#mask0_438_4467)">
<path d="M4.16673 3.40635V8.5586V8.53456V16.7397V3.40635ZM6.66673 11.5313H8.94398C9.0647 11.292 9.20038 11.0695 9.35102 10.8639C9.50166 10.6582 9.66725 10.4641 9.84779 10.2814H6.66673C6.48964 10.2814 6.34121 10.3413 6.22144 10.4611C6.10164 10.581 6.04175 10.7295 6.04175 10.9066C6.04175 11.0838 6.10164 11.2322 6.22144 11.3519C6.34121 11.4715 6.48964 11.5313 6.66673 11.5313ZM6.66673 14.8647H8.35583C8.32485 14.6563 8.30802 14.448 8.30535 14.2397C8.30267 14.0314 8.31415 13.823 8.33979 13.6147H6.66673C6.48964 13.6147 6.34121 13.6746 6.22144 13.7945C6.10164 13.9143 6.04175 14.0628 6.04175 14.24C6.04175 14.4171 6.10164 14.5655 6.22144 14.6852C6.34121 14.8048 6.48964 14.8647 6.66673 14.8647ZM4.42437 17.9897C4.00262 17.9897 3.64591 17.8438 3.35425 17.5522C3.06258 17.2605 2.91675 16.9042 2.91675 16.4832V3.66279C2.91675 3.24185 3.06258 2.88554 3.35425 2.59387C3.64591 2.30221 4.00222 2.15637 4.42316 2.15637H10.4184C10.6216 2.15637 10.8153 2.19537 10.9995 2.27337C11.1836 2.35136 11.3441 2.45873 11.4809 2.59548L14.9776 6.09223C15.1144 6.22899 15.2217 6.38946 15.2997 6.57362C15.3777 6.7578 15.4167 6.95151 15.4167 7.15473V8.75252C15.2169 8.69055 15.0142 8.64407 14.8085 8.6131C14.6029 8.58212 14.389 8.56395 14.1667 8.5586V7.15633H11.1666C10.9541 7.15633 10.776 7.08446 10.6323 6.94071C10.4886 6.79696 10.4167 6.61883 10.4167 6.40633V3.40635H4.42316C4.35905 3.40635 4.30028 3.43306 4.24685 3.48648C4.19344 3.53991 4.16673 3.59868 4.16673 3.66279V16.4832C4.16673 16.5474 4.19344 16.6061 4.24685 16.6596C4.30028 16.713 4.35905 16.7397 4.42316 16.7397H8.96802C9.08874 16.979 9.22575 17.2015 9.37906 17.4071C9.53237 17.6128 9.70197 17.807 9.88787 17.9897H4.42437ZM13.8782 10.3615C14.9188 10.3615 15.804 10.7263 16.5337 11.456C17.2634 12.1857 17.6282 13.0709 17.6282 14.1115C17.6282 15.1521 17.2634 16.0372 16.5337 16.7669C15.804 17.4966 14.9188 17.8614 13.8782 17.8614C12.8377 17.8614 11.9525 17.4966 11.2228 16.7669C10.4931 16.0372 10.1283 15.1521 10.1283 14.1115C10.1283 13.0709 10.4931 12.1857 11.2228 11.456C11.9525 10.7263 12.8377 10.3615 13.8782 10.3615ZM13.8782 16.5474C14.0175 16.5474 14.1345 16.4999 14.2295 16.405C14.3244 16.3101 14.3718 16.193 14.3718 16.0538C14.3718 15.9146 14.3244 15.7975 14.2295 15.7026C14.1345 15.6077 14.0175 15.5602 13.8782 15.5602C13.739 15.5602 13.622 15.6077 13.527 15.7026C13.4321 15.7975 13.3847 15.9146 13.3847 16.0538C13.3847 16.193 13.4321 16.3101 13.527 16.405C13.622 16.4999 13.739 16.5474 13.8782 16.5474ZM13.8782 11.6435C13.6163 11.6435 13.3751 11.7095 13.1546 11.8414C12.934 11.9734 12.7543 12.1531 12.6154 12.3807C12.5652 12.4587 12.5592 12.5383 12.5975 12.6194C12.6358 12.7005 12.6997 12.7598 12.789 12.7973C12.8656 12.8347 12.9442 12.8366 13.0249 12.803C13.1055 12.7693 13.1753 12.7178 13.234 12.6483C13.3088 12.5458 13.4015 12.4627 13.5122 12.3991C13.6229 12.3356 13.7446 12.3038 13.8774 12.3038C14.0692 12.3038 14.2337 12.3668 14.371 12.4929C14.5083 12.6189 14.577 12.7737 14.577 12.9572C14.577 13.1124 14.5326 13.2448 14.444 13.3543C14.3553 13.4638 14.2554 13.5741 14.1443 13.6852C14.0609 13.7685 13.9768 13.8532 13.8919 13.9392C13.8069 14.0252 13.7297 14.1211 13.6603 14.2269C13.6133 14.3049 13.5807 14.389 13.5625 14.4793C13.5444 14.5695 13.5353 14.661 13.5353 14.7535C13.5353 14.8725 13.566 14.9801 13.6274 15.0762C13.6889 15.1724 13.7711 15.2204 13.8742 15.2204C13.9773 15.2204 14.0609 15.182 14.125 15.1051C14.1891 15.0281 14.2212 14.9384 14.2212 14.8358C14.2212 14.6856 14.2629 14.5524 14.3462 14.4362C14.4295 14.3201 14.5267 14.2074 14.6379 14.0981C14.8045 13.9478 14.9504 13.7773 15.0754 13.5864C15.2004 13.3956 15.2629 13.187 15.2629 12.9608C15.2629 12.5903 15.1271 12.2782 14.8556 12.0243C14.5841 11.7704 14.2583 11.6435 13.8782 11.6435Z" fill="#51545F"/>
</g>
</svg>
