<svg width="20" height="20" viewBox="0 0 20 20" fill="none" xmlns="http://www.w3.org/2000/svg">
<mask id="mask0_498_637" style="mask-type:alpha" maskUnits="userSpaceOnUse" x="0" y="0" width="20" height="20">
<rect width="20" height="20" fill="#D9D9D9"/>
</mask>
<g mask="url(#mask0_498_637)">
<path d="M3.8077 19C3.30257 19 2.875 18.825 2.525 18.475C2.175 18.125 2 17.6974 2 17.1923V1.8077C2 1.30257 2.175 0.875 2.525 0.525C2.875 0.175 3.30257 0 3.8077 0H11.0019C11.2429 0 11.4747 0.0468007 11.6971 0.140401C11.9195 0.233984 12.1128 0.362826 12.2769 0.526926L16.473 4.72303C16.6371 4.88714 16.766 5.08042 16.8595 5.30285C16.9531 5.52528 17 5.75701 17 5.99803V17.1923C17 17.6974 16.825 18.125 16.475 18.475C16.125 18.825 15.6974 19 15.1922 19H3.8077ZM11 5.0961V1.49998H3.8077C3.73077 1.49998 3.66024 1.53203 3.59612 1.59613C3.53202 1.66024 3.49997 1.73077 3.49997 1.8077V17.1923C3.49997 17.2692 3.53202 17.3397 3.59612 17.4038C3.66024 17.4679 3.73077 17.5 3.8077 17.5H15.1922C15.2692 17.5 15.3397 17.4679 15.4038 17.4038C15.4679 17.3397 15.5 17.2692 15.5 17.1923V5.99995H11.9039C11.6462 5.99995 11.4311 5.91373 11.2587 5.74128C11.0862 5.56884 11 5.35378 11 5.0961Z" fill="#51545F"/>
<path d="M10.0032 8.8925C10.0032 8.57818 9.899 8.32598 9.69066 8.13592C9.48233 7.94587 9.20638 7.85084 8.86281 7.85084C8.65083 7.85084 8.45894 7.89652 8.28716 7.9879C8.11537 8.07927 7.96735 8.21268 7.84308 8.38812C7.72612 8.55625 7.56713 8.6531 7.3661 8.67869C7.16508 8.70427 6.99147 8.65128 6.84527 8.5197C6.74293 8.42467 6.68628 8.30771 6.67531 8.16882C6.66435 8.02993 6.69907 7.89835 6.77948 7.77408C7.0134 7.42321 7.31128 7.15091 7.67312 6.9572C8.03496 6.76348 8.43153 6.66663 8.86281 6.66663C9.57188 6.66663 10.1475 6.86765 10.5898 7.2697C11.032 7.67174 11.2532 8.19806 11.2532 8.84864C11.2532 9.17759 11.1837 9.47364 11.0448 9.7368C10.9059 9.99996 10.6501 10.3106 10.2773 10.6688C10.0068 10.9247 9.82407 11.1239 9.72904 11.2664C9.63401 11.409 9.57188 11.5716 9.54264 11.7543C9.5134 11.9298 9.43847 12.076 9.31786 12.1929C9.19724 12.3099 9.05287 12.3684 8.88474 12.3684C8.71661 12.3684 8.57224 12.3117 8.45163 12.1984C8.33102 12.0851 8.27071 11.9444 8.27071 11.7763C8.27071 11.4912 8.33284 11.2299 8.45711 10.9923C8.58138 10.7547 8.78971 10.5043 9.08211 10.2412C9.45492 9.91224 9.70163 9.65822 9.82224 9.47913C9.94286 9.30003 10.0032 9.10449 10.0032 8.8925ZM8.86281 15C8.62159 15 8.41508 14.9141 8.2433 14.7423C8.07151 14.5705 7.98562 14.364 7.98562 14.1228C7.98562 13.8815 8.07151 13.675 8.2433 13.5032C8.41508 13.3315 8.62159 13.2456 8.86281 13.2456C9.10404 13.2456 9.31055 13.3315 9.48233 13.5032C9.65412 13.675 9.74001 13.8815 9.74001 14.1228C9.74001 14.364 9.65412 14.5705 9.48233 14.7423C9.31055 14.9141 9.10404 15 8.86281 15Z" fill="#51545F"/>
</g>
</svg>
