<svg width="24" height="24" viewBox="0 0 24 24" fill="none" xmlns="http://www.w3.org/2000/svg">
<mask id="mask0_255_13922" style="mask-type:alpha" maskUnits="userSpaceOnUse" x="0" y="0" width="24" height="24">
<rect width="24" height="24" fill="#D9D9D9"/>
</mask>
<g mask="url(#mask0_255_13922)">
<path d="M5.8077 21C5.30257 21 4.875 20.825 4.525 20.475C4.175 20.125 4 19.6974 4 19.1923V3.8077C4 3.30257 4.175 2.875 4.525 2.525C4.875 2.175 5.30257 2 5.8077 2H13.0019C13.2429 2 13.4747 2.0468 13.6971 2.1404C13.9195 2.23398 14.1128 2.36283 14.2769 2.52693L18.473 6.72303C18.6371 6.88714 18.766 7.08042 18.8595 7.30285C18.9531 7.52528 19 7.75701 19 7.99803V19.1923C19 19.6974 18.825 20.125 18.475 20.475C18.125 20.825 17.6974 21 17.1922 21H5.8077ZM13 7.0961V3.49998H5.8077C5.73077 3.49998 5.66024 3.53203 5.59612 3.59613C5.53202 3.66024 5.49997 3.73077 5.49997 3.8077V19.1923C5.49997 19.2692 5.53202 19.3397 5.59612 19.4038C5.66024 19.4679 5.73077 19.5 5.8077 19.5H17.1922C17.2692 19.5 17.3397 19.4679 17.4038 19.4038C17.4679 19.3397 17.5 19.2692 17.5 19.1923V7.99995H13.9039C13.6462 7.99995 13.4311 7.91373 13.2587 7.74128C13.0862 7.56884 13 7.35378 13 7.0961Z" fill="#2D61AC"/>
<path d="M12.0038 10.6711C12.0038 10.2939 11.8788 9.99123 11.6288 9.76316C11.3788 9.53509 11.0477 9.42105 10.6354 9.42105C10.381 9.42105 10.1508 9.47588 9.94464 9.58553C9.7385 9.69518 9.56086 9.85526 9.41174 10.0658C9.27139 10.2675 9.0806 10.3838 8.83937 10.4145C8.59814 10.4452 8.38981 10.3816 8.21437 10.2237C8.09157 10.1096 8.02358 9.9693 8.01043 9.80263C7.99727 9.63596 8.03893 9.47807 8.13543 9.32895C8.41613 8.90789 8.77358 8.58114 9.20779 8.34868C9.642 8.11623 10.1179 8 10.6354 8C11.4863 8 12.1771 8.24123 12.7078 8.72368C13.2385 9.20614 13.5038 9.83772 13.5038 10.6184C13.5038 11.0132 13.4205 11.3684 13.2538 11.6842C13.0872 12 12.7802 12.3728 12.3328 12.8026C12.0082 13.1096 11.7889 13.3487 11.6749 13.5197C11.5609 13.6908 11.4863 13.886 11.4512 14.1053C11.4161 14.3158 11.3262 14.4912 11.1815 14.6316C11.0367 14.7719 10.8635 14.8421 10.6617 14.8421C10.46 14.8421 10.2867 14.7741 10.142 14.6382C9.99727 14.5022 9.9249 14.3333 9.9249 14.1316C9.9249 13.7895 9.99946 13.4759 10.1486 13.1908C10.2977 12.9057 10.5477 12.6053 10.8986 12.2895C11.346 11.8947 11.642 11.5899 11.7867 11.375C11.9315 11.1601 12.0038 10.9254 12.0038 10.6711ZM10.6354 18C10.346 18 10.0981 17.8969 9.892 17.6908C9.68586 17.4846 9.58279 17.2368 9.58279 16.9474C9.58279 16.6579 9.68586 16.4101 9.892 16.2039C10.0981 15.9978 10.346 15.8947 10.6354 15.8947C10.9249 15.8947 11.1727 15.9978 11.3788 16.2039C11.585 16.4101 11.6881 16.6579 11.6881 16.9474C11.6881 17.2368 11.585 17.4846 11.3788 17.6908C11.1727 17.8969 10.9249 18 10.6354 18Z" fill="#2D61AC"/>
</g>
</svg>
