<svg width="20" height="21" viewBox="0 0 20 21" fill="none" xmlns="http://www.w3.org/2000/svg">
<mask id="mask0_438_4477" style="mask-type:alpha" maskUnits="userSpaceOnUse" x="0" y="0" width="20" height="21">
<rect y="0.072998" width="20" height="20" fill="#D9D9D9"/>
</mask>
<g mask="url(#mask0_438_4477)">
<path d="M8.73402 17.9897C8.54704 17.9897 8.38518 17.9269 8.24843 17.8014C8.11168 17.6758 8.02942 17.5196 8.00164 17.3326L7.75966 15.4512C7.53637 15.3764 7.30747 15.2717 7.07295 15.1371C6.83844 15.0025 6.62877 14.8582 6.44393 14.7044L4.70356 15.4384C4.52514 15.5164 4.34806 15.5254 4.17231 15.4656C3.99656 15.4058 3.85847 15.2936 3.75804 15.1291L2.50487 12.9464C2.40977 12.7819 2.38039 12.6061 2.41673 12.4192C2.45304 12.2322 2.54652 12.0816 2.69716 11.9673L4.20358 10.8278C4.18434 10.7039 4.17072 10.5794 4.1627 10.4544C4.15469 10.3294 4.15068 10.205 4.15068 10.081C4.15068 9.96244 4.15469 9.84198 4.1627 9.71964C4.17072 9.59731 4.18434 9.4635 4.20358 9.31821L2.69716 8.17877C2.54652 8.06446 2.45171 7.91382 2.41273 7.72685C2.37373 7.53989 2.40444 7.36415 2.50487 7.19962L3.75804 5.033C3.85847 4.86847 3.99523 4.75629 4.16831 4.69646C4.34138 4.63662 4.51712 4.64571 4.69554 4.72371L6.43591 5.44966C6.63677 5.29047 6.85125 5.1449 7.07935 5.01296C7.30746 4.881 7.53156 4.77496 7.75164 4.69483L8.00164 2.81343C8.02942 2.62646 8.11168 2.47021 8.24843 2.34468C8.38518 2.21914 8.54704 2.15637 8.73402 2.15637H11.258C11.445 2.15637 11.6082 2.21914 11.7476 2.34468C11.887 2.47021 11.9706 2.62646 11.9984 2.81343L12.2404 4.70285C12.4904 4.79366 12.7166 4.89969 12.9191 5.02096C13.1215 5.14222 13.3259 5.28512 13.5321 5.44966L15.3045 4.72371C15.4829 4.64571 15.6587 4.63529 15.8317 4.69246C16.0048 4.74961 16.1416 4.86045 16.242 5.02498L17.4952 7.19962C17.5956 7.36415 17.6263 7.53989 17.5873 7.72685C17.5483 7.91382 17.4535 8.06446 17.3029 8.17877L15.7644 9.34223C15.7943 9.47685 15.8106 9.60266 15.8133 9.71964C15.816 9.83663 15.8173 9.95442 15.8173 10.073C15.8173 10.1863 15.8146 10.3014 15.8093 10.4184C15.8039 10.5354 15.7847 10.6692 15.7516 10.8198L17.274 11.9673C17.4247 12.0816 17.5195 12.2322 17.5585 12.4192C17.5975 12.6061 17.5668 12.7819 17.4663 12.9464L16.2131 15.1162C16.1127 15.2808 15.9725 15.3938 15.7925 15.4552C15.6124 15.5166 15.4332 15.5083 15.2548 15.4304L13.5321 14.6964C13.3259 14.8609 13.1154 15.0065 12.9006 15.1331C12.6859 15.2597 12.4658 15.3631 12.2404 15.4432L11.9984 17.3326C11.9706 17.5196 11.887 17.6758 11.7476 17.8014C11.6082 17.9269 11.445 17.9897 11.258 17.9897H8.73402ZM9.16668 16.7397H10.8045L11.1042 14.5073C11.5294 14.3962 11.918 14.2383 12.27 14.0337C12.6221 13.8292 12.9615 13.5661 13.2885 13.2445L15.359 14.1147L16.1795 12.698L14.3718 11.3358C14.4413 11.12 14.4885 10.9085 14.5136 10.7012C14.5387 10.494 14.5513 10.2846 14.5513 10.073C14.5513 9.85614 14.5387 9.64674 14.5136 9.44481C14.4885 9.24289 14.4413 9.0367 14.3718 8.82623L16.1955 7.44802L15.375 6.03135L13.2805 6.91437C13.0016 6.61629 12.6675 6.35293 12.2781 6.12431C11.8886 5.89567 11.4947 5.73381 11.0962 5.63873L10.8334 3.40635H9.1795L8.90387 5.63071C8.47865 5.73114 8.08602 5.88498 7.72598 6.09225C7.36593 6.29951 7.02245 6.56661 6.69554 6.89354L4.62502 6.03135L3.8045 7.44802L5.60418 8.78937C5.53474 8.98701 5.48613 9.19267 5.45835 9.40635C5.43057 9.62003 5.41668 9.84493 5.41668 10.081C5.41668 10.2979 5.43057 10.5105 5.45835 10.7189C5.48613 10.9272 5.53207 11.1328 5.59616 11.3358L3.8045 12.698L4.62502 14.1147L6.68752 13.2397C7.00375 13.5645 7.34189 13.8305 7.70193 14.0378C8.06198 14.245 8.45995 14.4042 8.89585 14.5153L9.16668 16.7397ZM10.0096 12.573C10.703 12.573 11.293 12.3297 11.7796 11.843C12.2663 11.3564 12.5096 10.7664 12.5096 10.073C12.5096 9.37966 12.2663 8.78965 11.7796 8.303C11.293 7.81636 10.703 7.57304 10.0096 7.57304C9.30772 7.57304 8.71558 7.81636 8.2332 8.303C7.75084 8.78965 7.50966 9.37966 7.50966 10.073C7.50966 10.7664 7.75084 11.3564 8.2332 11.843C8.71558 12.3297 9.30772 12.573 10.0096 12.573Z" fill="#51545F"/>
</g>
</svg>
