<svg width="100" height="100" viewBox="0 0 100 100" fill="none" xmlns="http://www.w3.org/2000/svg">
<rect width="100" height="100" rx="50" fill="#46A746"/>
<path d="M69.0837 36.3419C68.8191 36.0751 68.5043 35.8634 68.1575 35.7189C67.8107 35.5744 67.4387 35.5 67.0629 35.5C66.6872 35.5 66.3152 35.5744 65.9683 35.7189C65.6215 35.8634 65.3067 36.0751 65.0421 36.3419L43.838 57.5745L34.9294 48.6375C34.6547 48.3721 34.3304 48.1634 33.975 48.0234C33.6196 47.8833 33.2402 47.8147 32.8583 47.8213C32.4764 47.8279 32.0995 47.9096 31.7492 48.0619C31.3989 48.2141 31.082 48.4339 30.8166 48.7086C30.5513 48.9833 30.3426 49.3076 30.2026 49.663C30.0625 50.0184 29.9938 50.3978 30.0004 50.7797C30.007 51.1616 30.0888 51.5385 30.2411 51.8888C30.3933 52.2391 30.6131 52.556 30.8878 52.8214L41.8172 63.7508C42.0818 64.0175 42.3966 64.2293 42.7434 64.3738C43.0902 64.5183 43.4622 64.5927 43.838 64.5927C44.2137 64.5927 44.5857 64.5183 44.9326 64.3738C45.2794 64.2293 45.5942 64.0175 45.8588 63.7508L69.0837 40.5258C69.3726 40.2593 69.6032 39.9358 69.7609 39.5758C69.9186 39.2157 70 38.8269 70 38.4339C70 38.0408 69.9186 37.652 69.7609 37.2919C69.6032 36.9319 69.3726 36.6084 69.0837 36.3419Z" fill="white"/>
</svg>
