<svg width="22" height="22" viewBox="0 0 22 22" fill="none" xmlns="http://www.w3.org/2000/svg">
<mask id="mask0_1063_47" style="mask-type:alpha" maskUnits="userSpaceOnUse" x="0" y="0" width="22" height="22">
<rect width="22" height="22" fill="#D9D9D9"/>
</mask>
<g mask="url(#mask0_1063_47)">
<path d="M8.75412 13.4472L16.2897 5.91158C16.5335 5.66779 16.8224 5.5459 17.1566 5.5459C17.4907 5.5459 17.7796 5.66779 18.0234 5.91158C18.2672 6.15537 18.3891 6.44432 18.3891 6.77845C18.3891 7.11256 18.2672 7.40151 18.0234 7.64529L9.61599 16.0527C9.3722 16.2965 9.08491 16.4184 8.75412 16.4184C8.42332 16.4184 8.13603 16.2965 7.89225 16.0527L3.97647 12.137C3.7327 11.8932 3.61247 11.6042 3.61579 11.2701C3.6191 10.936 3.74266 10.647 3.98644 10.4032C4.23023 10.1595 4.51919 10.0376 4.85331 10.0376C5.18742 10.0376 5.47637 10.1595 5.72016 10.4032L8.75412 13.4472Z" fill="#46A746"/>
</g>
</svg>
