<svg width="205" height="51" viewBox="0 0 205 51" fill="none" xmlns="http://www.w3.org/2000/svg">
<path d="M22.0147 51C34.1227 51 43.996 41.1268 43.996 28.9854C43.996 16.8773 34.1227 7.00403 22.0147 7.00403C9.87325 7.00403 0 16.8773 0 28.9854C0 41.1268 9.87325 51 22.0147 51Z" fill="#F19521"/>
<path d="M6.17078 44.3289C2.93529 40.9933 0.733823 36.5904 0.133423 31.7538C1.73449 31.487 3.43562 30.9199 6.004 27.7178L16.6111 8.83856C13.976 20.3129 5.53702 33.1214 6.17078 44.3289Z" fill="white"/>
<path d="M29.1861 1C26.1174 8.90527 8.60575 50.0994 29.3196 42.7945C6.8379 53.0347 11.7745 38.2248 14.9433 29.1521C20.2802 14.4423 24.6831 11.2068 29.1861 1Z" fill="white" stroke="#231F20"/>
<path d="M4.40295 35.4563C13.4423 32.7545 59.5064 28.2515 43.7292 15.076C62.8753 30.7198 47.4316 32.8212 37.8919 34.022C22.2815 35.7565 15.5771 34.9893 4.40295 35.4563Z" stroke="#231F20"/>
<path d="M68.7792 27.6177H66.1441V9.93929H58.7058V7.83789H76.0507V9.93929H68.7458V27.6177H68.7792ZM79.6865 17.7779C79.6865 15.8766 80.2869 14.7091 81.4877 14.3422C82.6885 13.9753 84.1895 13.7752 85.9907 13.7752C88.1921 13.7752 89.8933 14.042 91.0941 14.5757C92.2949 15.1094 92.8953 16.477 92.8953 18.6451V27.6511H90.6604L90.7939 26.2168C90.1268 26.9506 89.3262 27.4176 88.3923 27.5844C87.4583 27.7512 86.4576 27.8512 85.4236 27.8512C83.4556 27.8512 81.9213 27.5844 80.8206 27.0841C79.6865 26.5837 79.1528 25.3829 79.1528 23.4817C79.1528 21.6471 79.7532 20.4796 80.9206 20.0127C82.0881 19.5457 83.5891 19.3122 85.3903 19.3122C85.6571 19.3122 85.9573 19.3122 86.2242 19.3122C86.5244 19.3122 86.7912 19.3456 87.058 19.3456C87.4583 19.3789 87.8252 19.4456 88.2255 19.479C88.5924 19.5457 88.9593 19.6124 89.3262 19.7458C89.5931 19.8125 89.7932 19.946 89.9933 20.1127C90.1601 20.2795 90.3269 20.4796 90.4603 20.6798V19.012C90.4603 17.3109 90.1935 16.2435 89.6598 15.8432C89.1261 15.443 87.8586 15.2095 85.8906 15.2095C85.6905 15.2095 85.4903 15.2095 85.2235 15.2095C84.99 15.2095 84.7565 15.2428 84.523 15.2428C84.2228 15.2762 83.8893 15.3095 83.5891 15.3762C83.2889 15.443 83.022 15.5764 82.8219 15.7098C82.5884 15.8432 82.4216 16.01 82.3216 16.2435C82.2215 16.4436 82.1881 16.6771 82.1548 16.9106C82.1214 16.9773 82.1214 17.044 82.1214 17.1107V17.511C82.1214 17.5777 82.1214 17.6444 82.1548 17.7445L79.6865 17.7779ZM82.455 25.6164C83.022 26.0167 83.956 26.1834 85.2902 26.1834H86.024C86.2575 26.1834 86.5244 26.1835 86.7912 26.1501C87.7252 26.1167 88.6258 25.9166 89.4263 25.6164C90.2268 25.2829 90.6271 24.6157 90.6271 23.5817C90.6271 22.3476 90.1935 21.5804 89.3262 21.2802C88.459 21.0133 87.425 20.8799 86.1908 20.8799H84.99C84.7565 20.8799 84.523 20.8799 84.2895 20.9133C83.8893 20.9466 83.5224 21.0133 83.1554 21.1134C82.7885 21.2135 82.4883 21.3469 82.2215 21.547C82.0547 21.6804 81.9213 21.8139 81.8212 22.014C81.7212 22.2141 81.6878 22.4143 81.6544 22.6478C81.6211 22.7478 81.6211 22.8479 81.6211 22.948V23.2482C81.5877 24.449 81.8879 25.2161 82.455 25.6164ZM106.938 15.4096H100.801V23.9153C100.801 24.7158 100.934 25.2495 101.201 25.5831C101.468 25.9166 102.101 26.0834 103.035 26.0834C104.103 26.0834 104.736 25.8499 104.97 25.3829C105.203 24.9159 105.304 24.3489 105.304 23.6151V22.6811H107.572C107.572 24.1154 107.338 25.3162 106.838 26.3169C106.338 27.2842 105.07 27.7845 103.035 27.7845C101.268 27.7845 100.033 27.5177 99.3662 26.9506C98.6991 26.3836 98.3656 25.3829 98.3656 23.9153V15.4096H96.2975V13.7418H98.3656V10.3729H100.801V13.7418H106.938V15.4096ZM117.512 27.6177H114.176L108.873 13.7752H111.308L115.877 26.05L120.247 13.7752H122.849L117.512 27.6177ZM126.251 17.7779C126.251 15.8766 126.851 14.7091 128.052 14.3422C129.253 13.9753 130.754 13.7752 132.555 13.7752C134.757 13.7752 136.458 14.042 137.658 14.5757C138.859 15.1094 139.46 16.477 139.46 18.6451V27.6511H137.225L137.358 26.2168C136.691 26.9506 135.891 27.4176 134.957 27.5844C134.023 27.7512 133.022 27.8512 131.988 27.8512C130.02 27.8512 128.486 27.5844 127.385 27.0841C126.251 26.5837 125.717 25.3829 125.717 23.4817C125.717 21.6471 126.318 20.4796 127.485 20.0127C128.652 19.5457 130.153 19.3122 131.955 19.3122C132.221 19.3122 132.522 19.3122 132.789 19.3122C133.089 19.3122 133.356 19.3456 133.622 19.3456C134.023 19.3789 134.39 19.4456 134.79 19.479C135.157 19.5457 135.524 19.6124 135.891 19.7458C136.157 19.8125 136.358 19.946 136.558 20.1127C136.724 20.2795 136.891 20.4796 137.025 20.6798V19.012C137.025 17.3109 136.758 16.2435 136.224 15.8432C135.69 15.443 134.423 15.2095 132.455 15.2095C132.255 15.2095 132.055 15.2095 131.788 15.2095C131.554 15.2095 131.321 15.2428 131.087 15.2428C130.787 15.2762 130.454 15.3095 130.153 15.3762C129.853 15.443 129.586 15.5764 129.386 15.7098C129.153 15.8432 128.986 16.01 128.886 16.2435C128.786 16.4436 128.753 16.6771 128.719 16.9106C128.686 16.9773 128.686 17.044 128.686 17.1107V17.511C128.686 17.5777 128.686 17.6444 128.719 17.7445L126.251 17.7779ZM128.986 25.6164C129.553 26.0167 130.487 26.1834 131.821 26.1834H132.555C132.789 26.1834 133.055 26.1835 133.322 26.1501C134.256 26.1167 135.157 25.9166 135.957 25.6164C136.758 25.2829 137.158 24.6157 137.158 23.5817C137.158 22.3476 136.724 21.5804 135.857 21.2802C134.99 21.0133 133.956 20.8799 132.722 20.8799H131.521C131.288 20.8799 131.054 20.8799 130.821 20.9133C130.42 20.9466 130.053 21.0133 129.686 21.1134C129.32 21.2135 129.019 21.3469 128.753 21.547C128.586 21.6804 128.452 21.8139 128.352 22.014C128.252 22.2141 128.219 22.4143 128.185 22.6478C128.152 22.7478 128.152 22.8479 128.152 22.948V23.2482C128.152 24.449 128.419 25.2161 128.986 25.6164ZM158.272 13.2415C158.172 11.7738 157.872 10.8065 157.338 10.3062C156.805 9.80587 155.67 9.57238 153.903 9.57238H152.668C152.368 9.57238 152.035 9.57238 151.668 9.57238C151.301 9.57238 150.901 9.60574 150.5 9.60574C150 9.63909 149.533 9.7058 149.066 9.77251C148.599 9.83923 148.232 9.97265 147.965 10.1394C147.598 10.3396 147.332 10.6064 147.165 10.94C146.998 11.2735 146.865 11.6404 146.798 11.974C146.765 12.1408 146.765 12.2742 146.765 12.441C146.765 12.6077 146.765 12.7412 146.765 12.8746C146.765 13.9753 146.965 14.7758 147.365 15.3429C147.765 15.9099 148.699 16.2435 150.133 16.3102L151.768 16.3769C152.302 16.4103 152.835 16.4103 153.336 16.4103C155.504 16.4436 157.372 16.7105 158.906 17.2108C160.44 17.7111 161.207 19.2121 161.207 21.7472C161.207 23.2482 160.941 24.549 160.44 25.6164C159.94 26.6838 158.639 27.3175 156.571 27.5177C155.137 27.5844 153.669 27.6511 152.235 27.6511C149.867 27.6511 147.899 27.3842 146.364 26.8506C144.83 26.3169 144.063 24.8159 144.063 22.3142V22.0807C144.063 22.014 144.063 21.9139 144.096 21.8472C144.096 21.7805 144.096 21.6805 144.096 21.6137C144.096 21.547 144.096 21.447 144.096 21.3802H146.564C146.564 23.1814 146.865 24.3822 147.432 24.9159C147.999 25.483 149.333 25.7498 151.434 25.7498H153.602C155.47 25.7498 156.771 25.5497 157.505 25.1494C158.239 24.7492 158.606 23.6818 158.606 22.014C158.606 20.6798 158.372 19.8125 157.939 19.3789C157.505 18.9453 156.538 18.6785 155.037 18.6451C154.67 18.6117 154.336 18.6117 154.003 18.6117C153.669 18.6117 153.336 18.6117 153.002 18.6117C150.6 18.545 148.532 18.2448 146.798 17.7445C145.063 17.2442 144.163 15.6764 144.163 13.0414C144.163 10.6398 144.863 9.13876 146.264 8.57171C147.665 7.97131 149.566 7.67111 151.935 7.67111H152.568C154.937 7.67111 156.905 7.9046 158.439 8.40493C159.973 8.90527 160.74 10.4063 160.74 12.9413V13.2415H158.272ZM166.644 15.1428C167.445 14.042 169.313 13.5083 172.248 13.5083C175.284 13.5083 177.285 13.9753 178.185 14.8759C179.086 15.8099 179.553 17.5777 179.553 20.1794C179.553 22.4476 179.286 24.2822 178.719 25.7165C178.152 27.1174 176.251 27.8179 172.949 27.8179C170.113 27.8179 168.145 27.4176 167.045 26.6504C165.977 25.8833 165.444 24.1821 165.444 21.6137V20.3129C165.444 17.978 165.844 16.2435 166.644 15.1428ZM167.912 21.447V22.0807C167.912 22.3142 167.912 22.5477 167.945 22.7478C167.979 23.3149 168.079 23.8819 168.212 24.3822C168.346 24.8826 168.546 25.2829 168.879 25.5831C169.146 25.8165 169.48 25.95 169.88 26.0167C170.28 26.0834 170.714 26.1167 171.147 26.1501H172.582C173.949 26.1501 175.017 25.9833 175.784 25.6498C176.518 25.3162 176.951 24.4823 177.051 23.1814C177.085 22.9146 177.085 22.6478 177.085 22.3809C177.085 22.1141 177.085 21.8472 177.085 21.5804C177.118 21.3135 177.118 21.0467 177.118 20.7799V19.9793C177.118 18.2782 176.951 17.0774 176.584 16.3436C176.217 15.6097 175.083 15.2428 173.115 15.2428H172.582C170.514 15.2428 169.246 15.5097 168.712 16.0767C168.212 16.6438 167.945 17.8779 167.945 19.8459L167.912 21.447ZM191.661 15.443H187.458V27.6177H185.057V15.443H182.622V13.7418H185.057V11.7071C185.057 10.1061 185.49 9.00534 186.324 8.43829C187.158 7.87125 188.459 7.57104 190.16 7.57104C190.294 7.57104 190.394 7.57104 190.527 7.57104C190.66 7.57104 190.794 7.57104 190.927 7.57104C191.061 7.57104 191.161 7.57104 191.294 7.57104C191.428 7.57104 191.561 7.57104 191.661 7.57104V9.30554C191.528 9.27218 191.394 9.27218 191.227 9.27218C191.094 9.27218 190.927 9.27218 190.794 9.27218H189.893C188.959 9.27218 188.326 9.43896 187.959 9.80587C187.592 10.1728 187.425 10.7398 187.425 11.4737V13.7085H191.628L191.661 15.443ZM203.502 15.4096H197.365V23.9153C197.365 24.7158 197.498 25.2495 197.765 25.5831C198.032 25.9166 198.666 26.0834 199.6 26.0834C200.667 26.0834 201.301 25.8499 201.534 25.3829C201.768 24.9159 201.868 24.3489 201.868 23.6151V22.6811H204.136C204.136 24.1154 203.903 25.3162 203.402 26.3169C202.902 27.2842 201.634 27.7845 199.6 27.7845C197.832 27.7845 196.598 27.5177 195.931 26.9506C195.264 26.3836 194.93 25.3829 194.93 23.9153V15.4096H192.862V13.7418H194.93V10.3729H197.365V13.7418H203.502V15.4096Z" fill="white"/>
<path d="M68.1788 41.6938H67.2448C67.2448 41.2602 67.1448 40.96 66.978 40.8599C66.8112 40.7598 66.3442 40.6931 65.577 40.6931C64.8766 40.6931 64.443 40.7598 64.2428 40.8599C64.0427 40.96 63.9426 41.2602 63.9426 41.6938C63.9426 42.3609 64.2428 42.6945 64.8766 42.7278L65.6438 42.7612L66.6111 42.7945C67.7785 42.8612 68.3456 43.4616 68.3456 44.6291C68.3456 45.3629 68.1454 45.8299 67.7785 46.1301C67.3782 46.3969 66.6778 46.5303 65.6438 46.5303C64.5764 46.5303 63.8759 46.3969 63.4756 46.1301C63.0754 45.8632 62.8752 45.3963 62.8752 44.7292V44.3956H63.8426V44.6958C63.8426 45.1294 63.9426 45.3963 64.1761 45.5297C64.3762 45.6631 64.8099 45.7298 65.4436 45.7298C66.2108 45.7298 66.7111 45.6631 66.978 45.4963C67.2115 45.3629 67.3449 45.0294 67.3449 44.5624C67.3449 43.8953 67.0447 43.5617 66.4109 43.5617C64.9766 43.5617 64.0427 43.4283 63.5757 43.1948C63.1087 42.9613 62.9086 42.461 62.9086 41.6938C62.9086 40.96 63.0754 40.493 63.4423 40.2595C63.8092 40.026 64.5097 39.8926 65.577 39.8926C67.2782 39.8926 68.1454 40.3929 68.1454 41.427L68.1788 41.6938ZM74.4496 44.1288H75.3836V44.4623C75.3836 45.8299 74.483 46.5303 72.6818 46.5303C71.5143 46.5303 70.7472 46.2969 70.3802 45.8632C70.0133 45.4296 69.8132 44.529 69.8132 43.1614C69.8132 41.8939 70.0133 41.0267 70.3802 40.5597C70.7472 40.0927 71.481 39.8926 72.5484 39.8926C73.5824 39.8926 74.3162 40.0594 74.6831 40.3596C75.05 40.6598 75.2502 41.2268 75.2502 42.0941H74.3162V41.9273C74.3162 41.427 74.1828 41.0934 73.9493 40.9266C73.7158 40.7598 73.2155 40.6931 72.4816 40.6931C71.7812 40.6931 71.3142 40.8599 71.1141 41.1601C70.9139 41.4603 70.8139 42.1941 70.8139 43.2615C70.8139 44.3289 70.9139 44.996 71.1474 45.2962C71.3809 45.5964 71.9146 45.7298 72.7485 45.7298C73.449 45.7298 73.9159 45.6298 74.1161 45.4296C74.3496 45.2628 74.4496 44.8292 74.4496 44.1288ZM82.3215 39.9927V46.4303H81.3876L81.4543 45.5964L81.4209 45.563C81.0874 46.1968 80.3869 46.5303 79.3195 46.5303C77.8185 46.5303 77.0847 45.7965 77.0847 44.2955V40.026H78.0187V44.2955C78.0187 44.8626 78.1187 45.2628 78.3189 45.463C78.519 45.6631 78.8859 45.7632 79.453 45.7632C80.1868 45.7632 80.6871 45.6298 80.9873 45.3296C81.2542 45.0294 81.3876 44.4957 81.3876 43.7285V40.0594L82.3215 39.9927ZM85.3235 37.2575V46.4303H84.3896V37.2575H85.3235ZM87.3249 39.9927H88.2588L88.2255 40.7932L88.2588 40.8266C88.5924 40.1928 89.2928 39.8926 90.3602 39.8926C91.3275 39.8926 91.9613 40.1261 92.3282 40.6264C92.6951 41.0934 92.8619 41.994 92.8619 43.2949C92.8619 44.4957 92.6951 45.3296 92.3282 45.7965C91.9613 46.2635 91.3275 46.497 90.3936 46.497C89.3262 46.497 88.6257 46.1968 88.2922 45.6298H88.2588V49.1321H87.3249V39.9927ZM90.0934 40.6931C89.3262 40.6931 88.8592 40.8599 88.6257 41.1935C88.3923 41.527 88.2922 42.2275 88.2922 43.2949C88.2922 44.2955 88.4256 44.9293 88.6591 45.2628C88.8926 45.5964 89.3929 45.7632 90.1601 45.7632C90.8606 45.7632 91.3275 45.5964 91.561 45.2962C91.7945 44.9626 91.8946 44.3289 91.8946 43.3282C91.8946 42.2275 91.7945 41.527 91.561 41.1935C91.3275 40.8599 90.8606 40.6931 90.0934 40.6931ZM98.0987 39.9927V40.7598H95.6304V44.6958C95.6304 45.3963 95.9306 45.7298 96.531 45.7298C97.1314 45.7298 97.4316 45.4296 97.4316 44.7959V44.4957V44.1288H98.2989V44.5957C98.2989 45.8632 97.6984 46.497 96.4977 46.497C95.2635 46.497 94.6297 45.9633 94.6297 44.9293V40.7598H93.7291V39.9927H94.6297V38.4583H95.5637V39.9927H98.0987ZM100.467 37.2575V38.3249H99.533V37.2575H100.467ZM100.467 39.9927V46.4303H99.533V39.9927H100.467ZM102.468 39.9927H103.369L103.336 40.8599L103.369 40.8933C103.669 40.2262 104.37 39.8926 105.504 39.8926C106.438 39.8926 107.038 40.0594 107.372 40.3596C107.705 40.6931 107.872 41.2935 107.872 42.2275V46.3969H106.938V42.0607C106.938 41.4937 106.838 41.1268 106.638 40.96C106.438 40.7598 106.037 40.6598 105.437 40.6598C104.103 40.6598 103.469 41.2935 103.469 42.5277V46.3969H102.535V39.9927H102.468ZM115.277 39.9927V46.8306C115.277 47.7645 115.077 48.3983 114.676 48.7652C114.276 49.0987 113.542 49.2989 112.475 49.2989C111.508 49.2989 110.874 49.1654 110.507 48.8652C110.173 48.565 109.973 48.0314 109.973 47.1975H110.874C110.874 47.7645 110.974 48.0981 111.174 48.2648C111.374 48.4316 111.808 48.4983 112.508 48.4983C113.209 48.4983 113.709 48.3983 113.943 48.1648C114.176 47.9646 114.31 47.531 114.31 46.8973V45.5964H114.276C114.043 46.1968 113.342 46.497 112.175 46.497C111.241 46.497 110.574 46.2635 110.207 45.7965C109.84 45.3296 109.673 44.4623 109.673 43.2282C109.673 41.9273 109.84 41.06 110.207 40.5931C110.574 40.1261 111.241 39.8926 112.241 39.8926C113.309 39.8926 113.976 40.2261 114.31 40.8599H114.343L114.31 39.9927H115.277ZM112.475 40.6931C111.741 40.6931 111.274 40.8599 111.041 41.1601C110.807 41.4603 110.707 42.1608 110.707 43.1948C110.707 44.2622 110.807 44.9293 111.041 45.2628C111.274 45.563 111.741 45.7298 112.475 45.7298C113.209 45.7298 113.709 45.563 113.943 45.1961C114.176 44.8626 114.31 44.1287 114.31 43.028C114.31 42.0607 114.176 41.427 113.943 41.1268C113.709 40.8599 113.209 40.6931 112.475 40.6931ZM124.45 39.9927V40.7598H121.981V44.6958C121.981 45.3963 122.282 45.7298 122.882 45.7298C123.482 45.7298 123.783 45.4296 123.783 44.7959V44.4957V44.1288H124.65V44.5957C124.65 45.8632 124.049 46.497 122.849 46.497C121.614 46.497 120.981 45.9633 120.981 44.9293V40.7598H120.08V39.9927H120.981V38.4583H121.915V39.9927H124.45ZM126.818 37.2575V40.7932H126.851C127.085 40.1928 127.752 39.8926 128.853 39.8926C130.454 39.8926 131.254 40.5931 131.254 42.0273V46.3969H130.32V42.0941C130.32 41.1268 129.82 40.6598 128.819 40.6598C128.019 40.6598 127.485 40.7932 127.218 41.0934C126.951 41.3936 126.818 41.9606 126.818 42.7945V46.3969H125.884V37.2575H126.818ZM135.957 39.926C137.158 39.926 137.925 40.1261 138.259 40.5597C138.626 40.96 138.793 41.8606 138.793 43.2615C138.793 44.6291 138.626 45.5297 138.259 45.9633C137.892 46.3636 137.125 46.5971 135.957 46.5971C134.79 46.5971 133.989 46.3969 133.656 45.9633C133.289 45.563 133.122 44.6624 133.122 43.2615C133.122 41.8939 133.289 40.9933 133.656 40.5597C133.989 40.1261 134.756 39.926 135.957 39.926ZM135.957 40.6931C135.123 40.6931 134.623 40.8266 134.423 41.0934C134.223 41.3602 134.123 42.0607 134.123 43.2282C134.123 44.3622 134.223 45.0627 134.423 45.3629C134.623 45.6298 135.123 45.7632 135.957 45.7632C136.791 45.7632 137.325 45.6298 137.525 45.3629C137.725 45.0961 137.825 44.3956 137.825 43.2282C137.825 42.0941 137.725 41.3936 137.525 41.0934C137.292 40.8266 136.791 40.6931 135.957 40.6931ZM145.831 39.9927V46.4303H144.897L144.963 45.5964L144.93 45.563C144.596 46.1968 143.896 46.5303 142.829 46.5303C141.328 46.5303 140.594 45.7965 140.594 44.2955V40.026H141.528V44.2955C141.528 44.8626 141.628 45.2628 141.828 45.463C142.028 45.6631 142.395 45.7632 142.962 45.7632C143.696 45.7632 144.196 45.6298 144.496 45.3296C144.763 45.0294 144.897 44.4957 144.897 43.7285V40.0594L145.831 39.9927ZM153.302 39.9927V46.8306C153.302 47.7645 153.102 48.3983 152.702 48.7652C152.302 49.0987 151.568 49.2989 150.5 49.2989C149.533 49.2989 148.899 49.1654 148.532 48.8652C148.199 48.565 147.999 48.0314 147.999 47.1975H148.899C148.899 47.7645 148.999 48.0981 149.199 48.2648C149.4 48.4316 149.833 48.4983 150.534 48.4983C151.234 48.4983 151.734 48.3983 151.968 48.1648C152.201 47.9646 152.335 47.531 152.335 46.8973V45.5964H152.302C152.068 46.1968 151.368 46.497 150.2 46.497C149.266 46.497 148.599 46.2635 148.232 45.7965C147.865 45.3296 147.698 44.4623 147.698 43.2282C147.698 41.9273 147.865 41.06 148.232 40.5931C148.599 40.1261 149.266 39.8926 150.267 39.8926C151.334 39.8926 152.001 40.2261 152.335 40.8599H152.368L152.335 39.9927H153.302ZM150.5 40.6931C149.766 40.6931 149.3 40.8599 149.066 41.1601C148.833 41.4603 148.732 42.1608 148.732 43.1948C148.732 44.2622 148.833 44.9293 149.066 45.2628C149.3 45.563 149.766 45.7298 150.5 45.7298C151.234 45.7298 151.734 45.563 151.968 45.1961C152.201 44.8626 152.335 44.1287 152.335 43.028C152.335 42.0607 152.201 41.427 151.968 41.1268C151.734 40.8599 151.234 40.6931 150.5 40.6931ZM156.237 37.2575V40.7932H156.271C156.504 40.1928 157.171 39.8926 158.272 39.8926C159.873 39.8926 160.674 40.5931 160.674 42.0273V46.3969H159.74V42.0941C159.74 41.1268 159.239 40.6598 158.239 40.6598C157.438 40.6598 156.905 40.7932 156.638 41.0934C156.371 41.3936 156.237 41.9606 156.237 42.7945V46.3969H155.304V37.2575H156.237ZM166.111 39.9927V40.7598H163.642V44.6958C163.642 45.3963 163.943 45.7298 164.543 45.7298C165.143 45.7298 165.444 45.4296 165.444 44.7959V44.4957V44.1288H166.311V44.5957C166.311 45.8632 165.71 46.497 164.51 46.497C163.275 46.497 162.642 45.9633 162.642 44.9293V40.7598H161.741V39.9927H162.642V38.4583H163.576V39.9927H166.111ZM172.515 41.6938H171.581C171.581 41.2602 171.481 40.96 171.314 40.8599C171.147 40.7598 170.68 40.6931 169.913 40.6931C169.213 40.6931 168.779 40.7598 168.579 40.8599C168.379 40.96 168.279 41.2602 168.279 41.6938C168.279 42.3609 168.579 42.6945 169.213 42.7278L169.98 42.7612L170.947 42.7945C172.115 42.8612 172.682 43.4616 172.682 44.6291C172.682 45.3629 172.482 45.8299 172.115 46.1301C171.714 46.3969 171.014 46.5303 169.98 46.5303C168.913 46.5303 168.212 46.3969 167.812 46.1301C167.412 45.8632 167.211 45.3963 167.211 44.7292V44.3956H168.179V44.6958C168.179 45.1294 168.279 45.3963 168.512 45.5297C168.712 45.6631 169.146 45.7298 169.78 45.7298C170.547 45.7298 171.047 45.6631 171.314 45.4963C171.548 45.3629 171.681 45.0294 171.681 44.5624C171.681 43.8953 171.381 43.5617 170.747 43.5617C169.313 43.5617 168.379 43.4283 167.912 43.1948C167.445 42.9613 167.245 42.461 167.245 41.6938C167.245 40.96 167.412 40.493 167.778 40.2595C168.145 40.026 168.846 39.8926 169.913 39.8926C171.614 39.8926 172.482 40.3929 172.482 41.427L172.515 41.6938ZM175.45 45.1961V46.4303H174.416V45.1961H175.45ZM178.486 45.1961V46.4303H177.452V45.1961H178.486ZM181.488 45.1961V46.4303H180.454V45.1961H181.488Z" fill="white"/>
</svg>
