<svg width="64" height="64" viewBox="0 0 64 64" fill="none" xmlns="http://www.w3.org/2000/svg">
<path d="M27.587 57C39.695 57 49.5683 47.1268 49.5683 34.9854C49.5683 22.8773 39.695 13.004 27.587 13.004C15.4455 13.004 5.57227 22.8773 5.57227 34.9854C5.57227 47.1268 15.4455 57 27.587 57Z" fill="#F19521"/>
<path d="M11.7424 50.3289C8.50695 46.9933 6.30548 42.5904 5.70508 37.7538C7.30615 37.487 9.00728 36.9199 11.5757 33.7178L22.1828 14.8386C19.5477 26.3129 11.1087 39.1214 11.7424 50.3289Z" fill="white"/>
<path d="M34.759 7C31.6903 14.9053 14.1786 56.0994 34.8925 48.7945C12.4108 59.0347 17.3474 44.2248 20.5162 35.1521C25.8531 20.4423 30.256 17.2068 34.759 7Z" fill="white" stroke="#231F20"/>
<path d="M9.97461 41.4563C19.014 38.7545 65.0781 34.2515 49.3009 21.076C68.447 36.7198 53.0033 38.8212 43.4636 40.022C27.8532 41.7565 21.1488 40.9893 9.97461 41.4563Z" stroke="#231F20"/>
</svg>
