<svg width="260" height="173" viewBox="0 0 260 173" fill="none" xmlns="http://www.w3.org/2000/svg">
<path d="M211.263 77.9908H128.539C126.211 77.9908 124.324 76.3031 124.324 74.2209V3.76995C124.324 1.68783 126.211 0 128.539 0H211.263C213.591 0 215.478 1.68783 215.478 3.76995V74.2209C215.478 76.3035 213.591 77.9908 211.263 77.9908Z" fill="#2D61AC"/>
<path d="M176.189 11.2894H136.938C136.239 11.2894 135.673 10.7827 135.673 10.1578C135.673 9.53288 136.239 9.02637 136.938 9.02637H176.189C176.887 9.02637 177.454 9.53288 177.454 10.1578C177.454 10.7827 176.887 11.2894 176.189 11.2894Z" fill="#E1E9FF"/>
<path d="M163.57 16.9344H136.938C136.239 16.9344 135.673 16.4279 135.673 15.8029C135.673 15.178 136.239 14.6714 136.938 14.6714H163.57C164.269 14.6714 164.835 15.178 164.835 15.8029C164.835 16.4279 164.269 16.9344 163.57 16.9344Z" fill="#E1E9FF"/>
<path d="M143.591 26.1837H136.576C136.077 26.1837 135.673 25.822 135.673 25.3755C135.673 24.9291 136.077 24.5674 136.576 24.5674H143.591C144.09 24.5674 144.494 24.9291 144.494 25.3755C144.494 25.822 144.09 26.1837 143.591 26.1837Z" fill="#89AEFF"/>
<path d="M146.644 52.1597V72.3272C146.644 72.7737 146.239 73.1354 145.74 73.1354H142.09C141.591 73.1354 141.187 72.7737 141.187 72.3272V52.1597C141.187 51.7133 141.591 51.3516 142.09 51.3516H145.74C146.239 51.3516 146.644 51.7137 146.644 52.1597Z" fill="#89AEFF"/>
<path d="M156.564 44.0577V72.3274C156.564 72.7738 156.159 73.1356 155.66 73.1356H152.01C151.511 73.1356 151.106 72.7738 151.106 72.3274V44.0577C151.106 43.6112 151.511 43.2495 152.01 43.2495H155.66C156.159 43.2495 156.564 43.6112 156.564 44.0577Z" fill="#89AEFF"/>
<path d="M168.51 52.1597V72.3272C168.51 72.7737 168.106 73.1354 167.607 73.1354H163.956C163.457 73.1354 163.053 72.7737 163.053 72.3272V52.1597C163.053 51.7133 163.457 51.3516 163.956 51.3516H167.607C168.106 51.3516 168.51 51.7137 168.51 52.1597Z" fill="#89AEFF"/>
<path d="M178.43 44.0577V72.3274C178.43 72.7738 178.026 73.1356 177.526 73.1356H173.876C173.377 73.1356 172.973 72.7738 172.973 72.3274V44.0577C172.973 43.6112 173.377 43.2495 173.876 43.2495H177.526C178.026 43.2495 178.43 43.6112 178.43 44.0577Z" fill="#89AEFF"/>
<path d="M190.377 58.0655V72.3274C190.377 72.7739 189.973 73.1356 189.474 73.1356H185.823C185.324 73.1356 184.92 72.7739 184.92 72.3274V58.0655C184.92 57.619 185.324 57.2573 185.823 57.2573H189.474C189.973 57.2573 190.377 57.619 190.377 58.0655Z" fill="#89AEFF"/>
<path d="M200.296 52.1597V72.3272C200.296 72.7737 199.892 73.1354 199.393 73.1354H195.742C195.243 73.1354 194.839 72.7737 194.839 72.3272V52.1597C194.839 51.7133 195.243 51.3516 195.742 51.3516H199.393C199.892 51.3516 200.296 51.7137 200.296 52.1597Z" fill="#89AEFF"/>
<path d="M146.644 59.6084V72.3275C146.644 72.7739 146.239 73.1356 145.74 73.1356H142.09C141.591 73.1356 141.187 72.7739 141.187 72.3275V59.6084C141.187 59.162 141.591 58.8003 142.09 58.8003H145.74C146.239 58.8003 146.644 59.162 146.644 59.6084Z" fill="#D2DCFF"/>
<path d="M156.564 54.2763V72.3272C156.564 72.7736 156.159 73.1353 155.66 73.1353H152.01C151.511 73.1353 151.106 72.7736 151.106 72.3272V54.2763C151.106 53.8299 151.511 53.4683 152.01 53.4683H155.66C156.159 53.4683 156.564 53.8299 156.564 54.2763Z" fill="#D2DCFF"/>
<path d="M168.51 59.6084V72.3275C168.51 72.7739 168.106 73.1356 167.607 73.1356H163.956C163.457 73.1356 163.053 72.7739 163.053 72.3275V59.6084C163.053 59.162 163.457 58.8003 163.956 58.8003H167.607C168.106 58.8003 168.51 59.162 168.51 59.6084Z" fill="#D2DCFF"/>
<path d="M178.43 54.2763V72.3272C178.43 72.7736 178.026 73.1353 177.526 73.1353H173.876C173.377 73.1353 172.973 72.7736 172.973 72.3272V54.2763C172.973 53.8299 173.377 53.4683 173.876 53.4683H177.526C178.026 53.4683 178.43 53.8299 178.43 54.2763Z" fill="#D2DCFF"/>
<path d="M190.377 63.4947V72.3269C190.377 72.7734 189.973 73.1351 189.474 73.1351H185.823C185.324 73.1351 184.92 72.7734 184.92 72.3269V63.4947C184.92 63.0482 185.324 62.6865 185.823 62.6865H189.474C189.973 62.6865 190.377 63.0482 190.377 63.4947Z" fill="#D2DCFF"/>
<path d="M200.296 59.6084V72.327C200.296 72.7735 199.892 73.1352 199.393 73.1352H195.742C195.243 73.1352 194.839 72.7735 194.839 72.327V59.6084C194.839 59.162 195.243 58.8003 195.742 58.8003H199.393C199.891 58.8003 200.296 59.162 200.296 59.6084Z" fill="#D2DCFF"/>
<path d="M192.366 132.414L197.788 172.618H199.566L194.145 132.414H192.366Z" fill="#D2DCFF"/>
<path d="M216.325 132.414L216.935 136.935L221.746 172.618H223.525L218.689 136.758L218.104 132.414H216.325Z" fill="#D2DCFF"/>
<path d="M192.366 172.618H194.145L194.894 167.058L195.783 160.465L198.707 138.779L199.566 132.414H197.788L196.905 138.961L194.894 153.871L194.005 160.464L192.366 172.618Z" fill="#D2DCFF"/>
<path d="M168.409 172.618H170.188L174.395 141.412H174.396L175.609 132.414H173.83L172.594 141.586L168.409 172.618Z" fill="#D2DCFF"/>
<path d="M218.017 105.538H216.238V129.857H218.017V105.538Z" fill="#D2DCFF"/>
<path d="M193.854 105.539H192.076V129.858H193.854V105.539Z" fill="#D2DCFF"/>
<path d="M173.083 129.857H197.514C196.724 129.857 196.085 130.429 196.085 131.135C196.085 131.841 196.724 132.414 197.514 132.414H173.083C172.294 132.414 171.654 131.841 171.654 131.135C171.654 130.429 172.294 129.857 173.083 129.857Z" fill="#D2DCFF"/>
<path d="M196.085 131.135C196.085 130.429 196.725 129.857 197.514 129.857H216.201H218.608C219.397 129.857 220.037 130.429 220.037 131.135C220.037 131.841 219.397 132.414 218.608 132.414H216.201H197.514C196.725 132.414 196.085 131.841 196.085 131.135Z" fill="#86A2E2"/>
<path d="M190.622 87.2354H219.468C220.568 87.2354 221.46 88.0332 221.46 89.0165V103.756C221.46 104.74 220.568 105.538 219.468 105.538H190.622C189.523 105.538 188.631 104.74 188.631 103.756V89.0165C188.631 88.0327 189.522 87.2354 190.622 87.2354Z" fill="#D2DCFF"/>
<path d="M216.325 132.414L216.935 136.935C217.577 136.87 218.164 136.811 218.689 136.759L218.103 132.414H216.325Z" fill="#AEC3FF"/>
<path d="M197.788 132.414L196.905 138.961C197.509 138.9 198.11 138.839 198.708 138.779L199.566 132.414H197.788Z" fill="#AEC3FF"/>
<path d="M172.593 141.586C173.166 141.531 173.768 141.473 174.394 141.412H174.395L175.608 132.414H173.83L172.593 141.586Z" fill="#AEC3FF"/>
<path d="M218.017 105.538H216.238V108.897L218.017 108.72V105.538Z" fill="#AEC3FF"/>
<path d="M192.076 105.538V111.289L193.854 111.113V105.538H192.076Z" fill="#AEC3FF"/>
<path d="M182.448 67.494C183.108 74.6574 188.926 79.1484 192.34 79.1484C192.852 79.1484 193.41 79.0665 193.992 78.9235V82.4964H202.652V73.4123C202.732 73.2244 202.81 73.0161 202.886 72.7941C206.725 72.466 206.566 66.7906 204.285 66.7906C203.87 66.7906 203.593 67.1413 203.418 67.4945L202.852 68.0011V65.437C202.852 65.437 201.578 65.5441 199.069 62.125C197.987 63.5936 189.354 65.9001 182.426 64.8671C182.426 64.8671 182.408 66.1424 182.448 67.494Z" fill="#FFD6A1"/>
<path d="M192.937 55.144C198.909 55.144 200.104 57.9932 200.104 57.9932C202.652 57.9932 206.554 62.1603 204.205 66.7899L204.193 66.8008L202.851 68.0009V65.4368C202.851 65.4368 201.577 65.5438 199.068 62.1248C197.986 63.5933 189.353 65.8999 182.426 64.8668C182.426 64.8668 182.408 66.1422 182.447 67.4938C182.447 67.4952 182.447 67.4967 182.447 67.4981C179.86 60.8024 185.054 55.144 192.937 55.144Z" fill="#311643"/>
<path d="M195.505 69.4501C195.769 69.4501 195.983 69.2588 195.983 69.0225V68.2243C195.983 67.9881 195.769 67.7969 195.505 67.7969C195.241 67.7969 195.027 67.9881 195.027 68.2243V69.0225C195.027 69.2588 195.241 69.4501 195.505 69.4501Z" fill="#311643"/>
<path d="M186.649 69.4501C186.913 69.4501 187.127 69.2588 187.127 69.0225V68.2243C187.127 67.9881 186.913 67.7969 186.649 67.7969C186.385 67.7969 186.171 67.9881 186.171 68.2243V69.0225C186.171 69.2588 186.385 69.4501 186.649 69.4501Z" fill="#311643"/>
<path d="M191.993 74.4382C192.845 74.4382 193.426 74.1513 193.778 73.89C194.221 73.5604 194.406 73.2011 194.414 73.1859C194.463 73.0875 194.414 72.9715 194.304 72.927C194.194 72.8825 194.065 72.9266 194.015 73.0246C193.99 73.0729 193.384 74.2091 191.624 74.0268C191.504 74.015 191.396 74.0912 191.381 74.1991C191.367 74.3071 191.453 74.4037 191.574 74.416C191.721 74.4311 191.86 74.4382 191.993 74.4382Z" fill="#311643"/>
<path d="M198.677 72.9933C199.982 72.9933 201.04 72.0472 201.04 70.88C201.04 69.7128 199.982 68.7666 198.677 68.7666C197.372 68.7666 196.314 69.7128 196.314 70.88C196.314 72.0472 197.372 72.9933 198.677 72.9933Z" fill="#FFCA88"/>
<path d="M182.693 69.125C182.993 70.5444 183.495 71.8383 184.129 72.9901C185.379 72.9347 186.372 72.0111 186.372 70.8796C186.372 69.7126 185.315 68.7666 184.01 68.7666C183.523 68.7661 183.07 68.8987 182.693 69.125Z" fill="#FFCA88"/>
<path d="M183.299 68.3938C183.299 70.0451 184.801 71.3882 186.646 71.3882C188.45 71.3882 189.924 70.1057 189.991 68.507C190.992 67.9999 191.883 68.3639 192.16 68.5045C192.226 70.1047 193.7 71.3882 195.505 71.3882C197.351 71.3882 198.852 70.0451 198.852 68.3938C198.852 66.7425 197.35 65.3994 195.505 65.3994C193.78 65.3994 192.357 66.5716 192.177 68.0719C191.74 67.8925 190.912 67.6785 189.974 68.0733C189.795 66.5721 188.371 65.3994 186.646 65.3994C184.801 65.3994 183.299 66.7425 183.299 68.3938ZM192.596 68.3938C192.596 66.9584 193.901 65.7909 195.506 65.7909C197.111 65.7909 198.416 66.9584 198.416 68.3938C198.416 69.8288 197.111 70.9967 195.506 70.9967C193.901 70.9967 192.596 69.8292 192.596 68.3938ZM183.737 68.3938C183.737 66.9584 185.042 65.7909 186.647 65.7909C188.252 65.7909 189.557 66.9584 189.557 68.3938C189.557 69.8288 188.252 70.9967 186.647 70.9967C185.042 70.9967 183.737 69.8292 183.737 68.3938Z" fill="white"/>
<path d="M193.992 82.4967V78.9239C195.95 78.4424 198.18 77.2631 199.855 76.1387L193.992 82.4967Z" fill="#FFC377"/>
<path d="M169.388 143.573L171.196 143.351L172.908 130.653H171.13L169.388 143.573Z" fill="#EBEDF4"/>
<path d="M174.19 95.0474L172.62 97.7403H180.99L174.19 95.0474Z" fill="#FFD6A1"/>
<path d="M190.221 165.597V171.395C190.221 172.071 189.608 172.619 188.852 172.619H170.469C170.294 172.619 170.152 172.492 170.152 172.335V171.267C170.152 170.751 170.488 170.283 171.012 170.068L181.642 165.597H190.221V165.597Z" fill="#2F3D6C"/>
<path d="M190.223 162.299L190.219 165.597H181.645L181.052 162.299H190.223Z" fill="#FFD6A1"/>
<path d="M194.009 79.1264L182.369 83.8295C180.768 84.4762 179.465 85.5967 178.681 87.0023L174.191 95.0468L180.991 97.7396L180.428 115.522H214.311L212.832 98.9143L218.96 98.9498V89.8632C218.96 87.0487 217.069 84.5103 214.166 83.4256L202.654 79.126C202.653 79.1264 197.624 82.0787 194.009 79.1264Z" fill="#89AEFF"/>
<path d="M191.221 80.2073C193.058 81.5845 195.355 82.3344 197.781 82.3344C200.335 82.3344 202.852 81.4226 204.734 79.9039L204.364 79.7656C202.562 81.1793 200.199 82.021 197.78 82.021C195.497 82.021 193.332 81.3331 191.581 80.0672L191.221 80.2073Z" fill="white"/>
<path d="M172.181 165.597V171.395C172.181 172.071 171.568 172.619 170.812 172.619H152.429C152.254 172.619 152.112 172.492 152.112 172.335V171.267C152.112 170.751 152.448 170.283 152.972 170.068L163.602 165.597H172.181V165.597Z" fill="#2F3D6C"/>
<path d="M172.18 162.299L172.176 165.597H163.602L163.009 162.299H172.18Z" fill="#FFD6A1"/>
<path d="M196.27 115.522V115.832C196.277 123.62 189.221 129.937 180.513 129.937H173.193L172.181 162.298H163.009L156.247 123.713C155.493 119.41 159.212 115.521 164.081 115.521H196.27V115.522Z" fill="#2D61AC"/>
<path d="M156.15 122.631C156.94 123.664 158.269 124.343 159.775 124.343C162.199 124.343 164.165 122.585 164.165 120.416C164.165 118.334 162.352 116.63 160.061 116.498C157.695 117.746 156.138 120.055 156.15 122.631Z" fill="#213783"/>
<path d="M174.192 122.48L173.193 129.937H179.199L174.192 122.48Z" fill="#4A5EA3"/>
<path d="M214.311 115.522V115.832C214.318 123.62 207.262 129.937 198.554 129.937H191.234L190.222 162.298H181.05L174.288 123.713C173.534 119.41 177.253 115.521 182.122 115.521H214.311V115.522Z" fill="#2D61AC"/>
<path d="M218.957 98.9499L218.631 109.021C218.543 111.743 216.051 113.909 213.007 113.909H193.408L192.092 109.808L209.38 107.259L209.502 98.895L218.957 98.9499Z" fill="#FFD6A1"/>
<path d="M213.147 111.814C213.147 112.61 213.548 113.323 214.178 113.8C216.204 113.417 217.832 112.058 218.409 110.292C217.882 109.639 217.023 109.214 216.054 109.214C214.448 109.214 213.147 110.378 213.147 111.814Z" fill="#FFC377"/>
<path d="M209.503 98.8955L206.85 107.633L209.381 107.26L209.503 98.8955Z" fill="#4A62D3"/>
<path d="M194.507 109.453L197.597 113.909H193.408L192.092 109.809L194.507 109.453Z" fill="#FFC377"/>
<path d="M160.829 97.7402H186.385C187.471 97.7402 188.426 98.3835 188.726 99.3171L193.408 113.909H203.772C204.27 113.909 204.673 114.27 204.673 114.715C204.673 115.161 204.27 115.522 203.772 115.522H193.926H190.795H163.303L158.489 100.519C158.042 99.1273 159.21 97.7402 160.829 97.7402Z" fill="#4A5EA3"/>
<path d="M174.193 122.48C174.967 123.598 176.35 124.343 177.928 124.343C180.353 124.343 182.318 122.585 182.318 120.416C182.318 118.303 180.452 116.579 178.113 116.493C175.788 117.716 174.241 119.962 174.193 122.48Z" fill="#213783"/>
<path d="M175.067 108.485C175.589 108.444 175.958 107.858 175.891 107.177C175.824 106.495 175.347 105.976 174.825 106.017C174.303 106.058 173.934 106.644 174.001 107.325C174.068 108.007 174.545 108.526 175.067 108.485Z" fill="#89AEFF"/>
<path d="M213.817 87.1236C213.817 88.3934 214.969 89.423 216.388 89.423C217.412 89.423 218.295 88.8876 218.709 88.113C218.346 86.858 217.598 85.7214 216.56 84.8299C216.503 84.8261 216.446 84.8247 216.388 84.8247C214.968 84.8247 213.817 85.8539 213.817 87.1236Z" fill="#4A62D3"/>
<path d="M178.839 86.7333C179.249 86.9799 179.742 87.1238 180.273 87.1238C181.692 87.1238 182.843 86.0942 182.843 84.8249C182.843 84.4391 182.737 84.0754 182.549 83.7563L182.367 83.8297C180.871 84.4343 179.635 85.4536 178.839 86.7333Z" fill="#4A62D3"/>
<path d="M126.77 107.467L117.799 172.347H116.018L124.989 107.467H126.77Z" fill="#D2DCFF"/>
<path d="M88.2259 132.077L82.7951 172.348H81.0146L86.4444 132.077H88.2259Z" fill="#D2DCFF"/>
<path d="M64.2288 132.076L63.6181 136.606L58.7986 172.347H57.0176L61.8609 136.428L62.4479 132.076H64.2288Z" fill="#D2DCFF"/>
<path d="M88.2259 172.347H86.4444L85.6939 166.778L84.8031 160.174L81.8742 138.452L81.0146 132.076H82.7956L83.68 138.634L85.6939 153.569L86.5841 160.173L88.2259 172.347Z" fill="#D2DCFF"/>
<path d="M112.224 172.347H110.443L106.228 141.09H106.228L105.013 132.076H106.794L108.033 141.264L112.224 172.347Z" fill="#D2DCFF"/>
<path d="M64.3161 105.157H62.5352V129.517H64.3161V105.157Z" fill="#D2DCFF"/>
<path d="M88.5173 105.157H86.7363V129.517H88.5173V105.157Z" fill="#D2DCFF"/>
<path d="M107.542 129.516H83.0713C83.8615 129.516 84.5024 130.089 84.5024 130.796C84.5024 131.503 83.8615 132.076 83.0713 132.076H107.542C108.332 132.076 108.973 131.503 108.973 130.796C108.973 130.089 108.332 129.516 107.542 129.516Z" fill="#D2DCFF"/>
<path d="M84.5018 130.796C84.5018 130.089 83.8609 129.516 83.0707 129.516H64.3532H61.9419C61.1517 129.516 60.5107 130.089 60.5107 130.796C60.5107 131.503 61.1517 132.076 61.9419 132.076H64.3532H83.0707C83.8609 132.076 84.5018 131.503 84.5018 130.796Z" fill="#86A2E2"/>
<path d="M89.2616 105.156H61.7906C60.2965 105.156 59.085 104.073 59.085 102.736V89.2444C59.085 87.9079 60.2965 86.8242 61.7906 86.8242H89.2616C90.7557 86.8242 91.9672 87.9079 91.9672 89.2444V102.736C91.9672 104.073 90.7562 105.156 89.2616 105.156Z" fill="#D2DCFF"/>
<path d="M64.2283 132.076L63.6176 136.606C62.974 136.541 62.3859 136.481 61.8604 136.428L62.4473 132.076H64.2283Z" fill="#AEC3FF"/>
<path d="M82.7956 132.076L83.68 138.635C83.0751 138.574 82.4728 138.513 81.8742 138.452L81.0146 132.076H82.7956Z" fill="#AEC3FF"/>
<path d="M108.033 141.264C107.458 141.209 106.855 141.151 106.228 141.09H106.228L105.013 132.076H106.794L108.033 141.264Z" fill="#AEC3FF"/>
<path d="M62.5342 105.156H64.3152V108.521L62.5342 108.345V105.156Z" fill="#AEC3FF"/>
<path d="M88.5163 105.156V110.917L86.7354 110.741V105.156H88.5163Z" fill="#AEC3FF"/>
<path d="M92.0013 62.4067C89.9086 65.5034 83.5124 69.9593 74.0015 67.2395V67.2399C73.9718 67.2361 73.9422 67.2338 73.911 67.2338C71.6484 67.2338 71.4907 72.8623 75.2982 73.1876C75.3543 73.3528 75.412 73.5095 75.4707 73.6567V82.8099H84.0591V79.2522C84.6577 79.4032 85.2315 79.4898 85.757 79.4898C89.3095 79.4898 95.4849 74.588 95.6252 66.8659C94.6746 66.6746 92.0013 64.5675 92.0013 62.4067Z" fill="#FFD6A1"/>
<path d="M97.4289 64.6203C97.4289 59.5343 92.4141 55.4131 84.8943 55.4131C78.6447 55.4131 76.497 58.4979 76.497 58.4979C76.497 58.4979 70.5898 59.6398 70.5898 66.2057C70.5898 72.3091 70.5898 82.8102 70.5898 82.8102H80.296H80.7909H87.9593H95.7517V69.1357C96.3672 68.4597 97.4289 66.9557 97.4289 64.6203ZM85.7565 79.4901C85.2309 79.4901 84.6572 79.4035 84.0586 79.2524V82.8102H75.4702V73.657C75.4114 73.5102 75.3538 73.353 75.2977 73.1878C71.4901 72.8621 71.6478 67.2341 73.9104 67.2341C73.9411 67.2341 73.9713 67.2364 74.0009 67.2402V67.2397C83.5118 69.9595 89.908 65.5032 92.0008 62.407C92.0008 64.5677 94.6741 66.6744 95.6252 66.8666C95.4844 74.5882 89.3089 79.4901 85.7565 79.4901Z" fill="#311643"/>
<path d="M68.7441 82.1356L75.4706 79.3481L79.1622 79.4358L84.059 79.6422L91.0966 81.5533V89.5855H68.7441V82.1356Z" fill="#FFD6A1"/>
<path d="M91.0961 90.0772V81.5535L84.0585 79.6424V79.2527C82.0684 78.7504 79.8063 77.5337 78.1455 76.3984L91.0961 90.0772Z" fill="#FFC377"/>
<path d="M79.472 73.3856C80.766 73.3856 81.815 72.4472 81.815 71.2897C81.815 70.1322 80.766 69.1938 79.472 69.1938C78.1779 69.1938 77.1289 70.1322 77.1289 71.2897C77.1289 72.4472 78.1779 73.3856 79.472 73.3856Z" fill="#FFCA88"/>
<path d="M95.324 69.5494C95.0271 70.9569 94.5291 72.2404 93.9003 73.3823C92.6613 73.3274 91.6758 72.4113 91.6758 71.2892C91.6758 70.1317 92.7248 69.1938 94.0183 69.1938C94.5015 69.1938 94.9508 69.325 95.324 69.5494Z" fill="#FFCA88"/>
<path d="M91.3608 65.8618C89.6502 65.8618 88.2376 67.0254 88.0597 68.5139C87.1298 68.1223 86.309 68.3345 85.8755 68.5125C85.6966 67.0245 84.285 65.8618 82.5749 65.8618C80.7442 65.8618 79.2549 67.194 79.2549 68.8316C79.2549 70.4692 80.7442 71.8014 82.5749 71.8014C84.3649 71.8014 85.8279 70.5279 85.8919 68.9405C86.1676 68.7984 87.0435 68.4368 88.0433 68.9438C88.1095 70.5293 89.5718 71.8014 91.3602 71.8014C93.191 71.8014 94.6803 70.4692 94.6803 68.8316C94.6803 67.194 93.1915 65.8618 91.3608 65.8618ZM82.5749 71.4131C80.984 71.4131 79.6889 70.2552 79.6889 68.8316C79.6889 67.4085 80.9834 66.2504 82.5749 66.2504C84.1664 66.2504 85.461 67.4085 85.461 68.8316C85.461 70.2552 84.1664 71.4131 82.5749 71.4131ZM91.3608 71.4131C89.7698 71.4131 88.4747 70.2552 88.4747 68.8316C88.4747 67.4085 89.7693 66.2504 91.3608 66.2504C92.9523 66.2504 94.2469 67.4085 94.2469 68.8316C94.2469 70.2552 92.9523 71.4131 91.3608 71.4131Z" fill="white"/>
<path d="M91.3643 69.7849C91.1028 69.7849 90.8906 69.5951 90.8906 69.3612V68.5697C90.8906 68.3353 91.1028 68.1455 91.3643 68.1455C91.6257 68.1455 91.838 68.3353 91.838 68.5697V69.3612C91.838 69.5951 91.6263 69.7849 91.3643 69.7849Z" fill="#311643"/>
<path d="M82.7198 69.7849C82.4583 69.7849 82.2461 69.5951 82.2461 69.3612V68.5697C82.2461 68.3353 82.4583 68.1455 82.7198 68.1455C82.9818 68.1455 83.1934 68.3353 83.1934 68.5697V69.3612C83.194 69.5951 82.9818 69.7849 82.7198 69.7849Z" fill="#311643"/>
<path d="M86.1026 74.8188C85.2568 74.8188 84.681 74.5343 84.3322 74.2753C83.8924 73.9487 83.7097 73.5921 83.7018 73.577C83.6526 73.479 83.7013 73.364 83.8109 73.3199C83.9199 73.2759 84.048 73.3194 84.0977 73.4164C84.1226 73.4647 84.7233 74.5911 86.4683 74.4107C86.5879 74.3984 86.6953 74.4746 86.7091 74.5816C86.7229 74.6882 86.6377 74.7847 86.5181 74.797C86.3725 74.8116 86.2338 74.8188 86.1026 74.8188Z" fill="#311643"/>
<path d="M105.541 169.32L97.6625 166.291L98.0664 168.037L88.375 165.315V167.799C88.375 168.673 88.8857 169.465 89.6886 169.91L90.5222 172.041C90.5942 172.225 90.7885 172.349 91.0071 172.349C91.2907 172.349 91.5204 172.143 91.5204 171.89V170.503L98.1442 172.349H104.845C105.819 172.349 106.609 171.642 106.609 170.771C106.608 170.139 106.188 169.569 105.541 169.32Z" fill="#2F3D6C"/>
<path d="M122.721 169.32L114.842 166.291L115.246 168.037L105.555 165.315V167.799C105.555 168.673 106.065 169.465 106.868 169.91L107.702 172.041C107.774 172.225 107.968 172.349 108.187 172.349C108.47 172.349 108.7 172.143 108.7 171.89V170.503L115.324 172.349H122.024C122.999 172.349 123.788 171.642 123.788 170.771C123.788 170.139 123.369 169.569 122.721 169.32Z" fill="#2F3D6C"/>
<path d="M88.375 162.011L88.3792 165.315L98.0664 168.037L97.6625 166.291L96.858 165.924L97.5614 162.011H88.375Z" fill="#FFD6A1"/>
<path d="M105.555 162.011L105.559 165.315L115.247 168.037L114.842 166.291L114.038 165.925L114.741 162.011H105.555Z" fill="#FFD6A1"/>
<path d="M81.4258 115.157V115.467C81.4189 123.269 88.4873 129.596 97.209 129.596H104.541L105.556 162.011H114.742L121.516 123.362C122.271 119.052 118.546 115.157 113.669 115.157L81.4258 115.157Z" fill="#2D61AC"/>
<path d="M103.91 125.785L104.54 129.595H103.202L103.91 125.785Z" fill="#2D61AC"/>
<path d="M67.0142 121.046C67.4742 125.882 71.9962 129.597 77.4217 129.597H87.3613L88.3759 162.012H97.5623L104.264 123.771C105.057 119.247 101.147 115.158 96.0275 115.158H95.2924L93.1838 109.521H68.9846L67.1449 118.586C66.9798 119.397 66.9359 120.224 67.0142 121.046Z" fill="#2D61AC"/>
<path d="M81.1403 85.961C82.7715 85.961 84.0761 84.5559 84.9557 83.1328H75.6533C77.0718 84.5521 79.0153 85.961 81.1403 85.961Z" fill="white"/>
<path d="M98.6218 86.1771L97.9782 85.2809C97.1425 84.1172 95.9665 83.1912 94.5893 82.5966C94.2056 82.4314 93.8071 82.2917 93.3948 82.1795L86.2275 80.2271C86.2275 80.459 85.7765 81.8037 84.9551 83.1326C84.0754 84.5557 82.7708 85.9607 81.1396 85.9607C79.0146 85.9607 77.0716 84.5519 75.6527 83.1326C74.2131 81.6924 73.3139 80.2413 73.3139 80.2413L66.9093 82.8958C64.2883 83.9824 62.3581 86.0724 61.6605 88.5807L58.8057 96.7411C58.3171 98.1377 58.0684 99.5926 58.0684 101.056V101.732C58.0684 103.486 59.6583 104.908 61.6193 104.908H68.4473L68.9845 109.519H93.1831L99.2823 87.0965L98.6218 86.1771Z" fill="#F19521"/>
<path d="M81.3772 87.9848C80.0318 87.9848 78.6631 87.6188 77.3082 86.8964C76.2327 86.3231 75.1636 85.5253 74.1305 84.5245C72.3771 82.8268 71.3084 81.0932 71.2979 81.0761L71.6578 80.9269C71.6678 80.9439 72.7041 82.6241 74.4263 84.2906C75.433 85.2644 76.472 86.04 77.5141 86.5948C78.8055 87.2827 80.1053 87.6311 81.3772 87.6311C82.5775 87.6311 83.6588 87.2728 84.5909 86.5659C85.3451 85.994 86.0067 85.1934 86.5566 84.1869C87.5018 82.4565 87.7908 80.6708 87.7935 80.6533L88.1862 80.7603C88.1746 80.8337 87.8856 82.5545 86.9155 84.3346C86.3417 85.3875 85.6468 86.2279 84.8502 86.8329C83.8441 87.5975 82.6754 87.9848 81.3772 87.9848Z" fill="white"/>
<path d="M121.523 123.319C120.72 124.092 119.574 124.575 118.301 124.575C115.872 124.575 113.903 122.814 113.903 120.642C113.903 118.469 115.872 116.708 118.301 116.708C118.415 116.708 118.529 116.712 118.641 116.72C120.755 118.241 121.965 120.701 121.523 123.319Z" fill="#213783"/>
<path d="M104.365 122.511C103.622 123.741 102.168 124.575 100.496 124.575C98.067 124.575 96.0986 122.814 96.0986 120.642C96.0986 118.469 98.067 116.708 100.496 116.708C100.732 116.708 100.964 116.726 101.191 116.758C103.111 118.116 104.335 120.208 104.365 122.511Z" fill="#213783"/>
<path d="M61.2615 104.907H87.8131V101.91L61.6261 99.2144C59.7308 99.0193 58.0684 100.345 58.0684 102.052C58.0689 103.629 59.4979 104.907 61.2615 104.907Z" fill="#FFD6A1"/>
<path d="M121.03 87.0967H93.9C92.8123 87.0967 91.856 87.7411 91.5559 88.6766L86.865 103.292H76.5067C76.0171 103.292 75.5995 103.633 75.5826 104.07C75.5646 104.53 75.9753 104.908 76.4856 104.908H89.4822H117.02L122.265 88.5634C122.501 87.8291 121.884 87.0967 121.03 87.0967Z" fill="#2D61AC"/>
<path d="M106.478 96.6544C106.545 95.972 106.176 95.3855 105.653 95.3443C105.131 95.3032 104.652 95.8231 104.585 96.5056C104.518 97.188 104.888 97.7745 105.41 97.8157C105.933 97.8568 106.411 97.3369 106.478 96.6544Z" fill="#2F3D6C"/>
<path d="M68.9846 109.52L68.0166 114.289L93.74 111.007L93.1837 109.52H68.9846Z" fill="#2D61AC"/>
<path d="M67.592 84.257C67.592 85.6962 66.2879 86.8627 64.6784 86.8627C63.9433 86.8627 63.2716 86.6189 62.7588 86.2169C63.7311 84.781 65.1674 83.617 66.9087 82.895L67.104 82.814C67.4126 83.2273 67.592 83.7239 67.592 84.257Z" fill="#D47907"/>
<path d="M98.6205 86.1767C98.1691 86.4342 97.6329 86.5828 97.0581 86.5828C95.4492 86.5828 94.1445 85.4164 94.1445 83.9771C94.1445 83.4701 94.307 82.9962 94.5875 82.5957C95.9652 83.1903 97.1412 84.1163 97.9764 85.28L98.6205 86.1767Z" fill="#D47907"/>
<path d="M89.3054 95.6885C89.1927 96.0393 84.2652 100.786 84.2652 100.786L71.1357 100.194L87.3254 101.86L89.3054 95.6885Z" fill="#D47907"/>
<path d="M37.4439 107.467L35.0438 124.825L28.4729 172.347H26.6914L33.2437 124.961L35.663 107.467H37.4439Z" fill="#D2DCFF"/>
<path d="M61.0167 172.347H59.2357L52.4828 123.51L50.2646 107.467H52.0456L54.2458 123.377L61.0167 172.347Z" fill="#D2DCFF"/>
<path d="M35.6624 107.467H37.4434L35.0432 124.825L33.2432 124.961L35.6624 107.467Z" fill="#AEC3FF"/>
<path d="M52.0456 107.467L54.2458 123.377L52.4828 123.51L50.2646 107.467H52.0456Z" fill="#AEC3FF"/>
<path d="M150.343 172.348H148.562L140.887 116.842L139.591 107.468H141.372L142.65 116.709L150.343 172.348Z" fill="#D2DCFF"/>
<path d="M142.65 116.709L140.887 116.842L139.591 107.468H141.372L142.65 116.709Z" fill="#AEC3FF"/>
<path d="M146.091 104.906H55.25V107.467H146.091C146.881 107.467 147.522 106.893 147.522 106.186C147.522 105.48 146.881 104.906 146.091 104.906Z" fill="#D2DCFF"/>
<path d="M36.7599 104.906H31.3921C30.6019 104.906 29.9609 105.48 29.9609 106.186C29.9609 106.893 30.6019 107.467 31.3921 107.467H36.7599H55.2508V104.906H36.7599Z" fill="#86A2E2"/>
<path d="M144.048 102.045V101.393C144.048 101.191 143.865 101.027 143.639 101.027H126.709C125.854 101.027 125.162 101.647 125.162 102.411V103.524C125.162 104.288 125.854 104.908 126.709 104.908H143.639C143.865 104.908 144.048 104.744 144.048 104.542V103.889C144.048 103.688 143.865 103.524 143.639 103.524H127.331C126.987 103.524 126.709 103.275 126.709 102.968C126.709 102.66 126.987 102.411 127.331 102.411H143.639C143.865 102.411 144.048 102.247 144.048 102.045Z" fill="#2D61AC"/>
<path d="M143.317 102.411V103.524H127.331C126.987 103.524 126.709 103.275 126.709 102.967C126.709 102.66 126.987 102.411 127.331 102.411H143.317V102.411Z" fill="#D2DCFF"/>
<path d="M142.839 98.1657V97.5129C142.839 97.3113 142.655 97.1475 142.43 97.1475H127.919C127.064 97.1475 126.372 97.7671 126.372 98.5312V99.6443C126.372 100.408 127.064 101.028 127.919 101.028H142.43C142.655 101.028 142.839 100.864 142.839 100.662V100.009C142.839 99.8076 142.655 99.6438 142.43 99.6438H128.54C128.197 99.6438 127.919 99.3948 127.919 99.0875C127.919 98.7803 128.197 98.5312 128.54 98.5312H142.43C142.655 98.5307 142.839 98.3674 142.839 98.1657Z" fill="#F19521"/>
<path d="M142.301 98.5303V99.6433H128.541C128.197 99.6433 127.919 99.3943 127.919 99.087C127.919 98.7798 128.197 98.5307 128.541 98.5307H142.301V98.5303Z" fill="#FFD9E8"/>
<path d="M44.7334 98.6812H52.7227C53.117 98.6812 53.4224 98.9893 53.3753 99.3392L52.6994 104.389C52.6597 104.685 52.3797 104.907 52.0468 104.907H45.4093C45.0764 104.907 44.7964 104.685 44.7567 104.389L44.0809 99.3392C44.0343 98.9893 44.3396 98.6812 44.7334 98.6812Z" fill="#D2DCFF"/>
<path d="M51.4716 96.6205V94.3243L49.9357 96.9343V92.6953L48.729 95.3645L47.5222 92.6953V96.9343L45.9863 94.3243V96.6205L43.748 93.4016L44.734 98.6813H48.729H52.7239L53.7098 93.4016L51.4716 96.6205Z" fill="#2D61AC"/>
<path d="M61.3062 103.948C62.4769 103.948 63.4259 103.099 63.4259 102.052C63.4259 101.005 62.4769 100.156 61.3062 100.156C60.1356 100.156 59.1865 101.005 59.1865 102.052C59.1865 103.099 60.1356 103.948 61.3062 103.948Z" fill="#FFC377"/>
<path d="M247.959 131.971L246.769 140.801L245.339 151.402L244.44 158.068L244.134 160.328L243.236 166.996L242.478 172.617H240.68L242.338 160.33L243.236 153.663L243.541 151.402L244.44 144.737V144.735L245.037 140.312L246.161 131.971H247.959Z" fill="#D2DCFF"/>
<path d="M260 172.617H258.203L254.197 142.903L252.722 131.971H254.52L256.065 143.431L260 172.617Z" fill="#D2DCFF"/>
<path d="M236.157 131.971L235.399 137.586L232.333 160.328L231.434 166.996L230.676 172.617H228.878L230.535 160.33L231.434 153.663L233.668 137.096L234.359 131.971H236.157Z" fill="#D2DCFF"/>
<path d="M248.199 172.617H246.402L244.441 158.068L243.542 151.402L241.927 139.431L240.921 131.971H242.719L243.797 139.96L244.441 144.735V144.737L245.34 151.402L248.199 172.617Z" fill="#D2DCFF"/>
<path d="M255.733 131.971H232.405C231.629 131.971 231.001 131.409 231.001 130.716V130.643C231.001 129.949 231.63 129.387 232.405 129.387H255.733C256.508 129.387 257.136 129.95 257.136 130.643V130.716C257.136 131.409 256.508 131.971 255.733 131.971Z" fill="#D2DCFF"/>
<path d="M244.483 131.971H232.405C231.629 131.971 231.001 131.409 231.001 130.716V130.643C231.001 129.949 231.63 129.387 232.405 129.387H244.483C245.259 129.387 245.887 129.95 245.887 130.643V130.716C245.887 131.409 245.259 131.971 244.483 131.971Z" fill="#86A2E2"/>
<path d="M240.038 123.102H248.102C248.499 123.102 248.808 123.413 248.761 123.766L248.078 128.864C248.039 129.162 247.755 129.386 247.419 129.386H240.72C240.384 129.386 240.101 129.162 240.061 128.864L239.379 123.766C239.332 123.413 239.64 123.102 240.038 123.102Z" fill="#D2DCFF"/>
<path d="M246.839 121.022V118.704L245.288 121.339V117.06L244.07 119.754L242.852 117.06V121.339L241.302 118.704V121.022L239.043 117.773L240.038 123.102H244.07H248.102L249.097 117.773L246.839 121.022Z" fill="#F19521"/>
<path d="M236.156 131.971L235.398 137.586L233.667 137.096L234.358 131.971H236.156Z" fill="#AEC3FF"/>
<path d="M243.797 139.96L241.927 139.431L240.921 131.971H242.719L243.797 139.96Z" fill="#AEC3FF"/>
<path d="M247.958 131.971L246.768 140.801L245.036 140.312L246.16 131.971H247.958Z" fill="#AEC3FF"/>
<path d="M256.065 143.431L254.197 142.903L252.722 131.971H254.52L256.065 143.431Z" fill="#AEC3FF"/>
<path d="M57.0173 38.6762V58.1829C57.0173 58.8712 56.3934 59.4293 55.6238 59.4293H29.4082C28.6386 59.4293 28.0146 58.8712 28.0146 58.1829V38.6762C28.0146 37.9879 28.6381 37.4297 29.4082 37.4297H55.6238C56.3934 37.4297 57.0173 37.9879 57.0173 38.6762Z" fill="#FFEAD0"/>
<path d="M57.0173 38.6762V42.3538H28.0146V38.6762C28.0146 37.9879 28.6386 37.4297 29.4082 37.4297H55.6238C56.3934 37.4297 57.0173 37.9879 57.0173 38.6762Z" fill="#F19521"/>
<path d="M35.8736 38.9909C35.4761 38.9909 35.1543 38.7031 35.1543 38.3475V36.512C35.1543 36.1569 35.4766 35.8687 35.8736 35.8687C36.2711 35.8687 36.5929 36.1569 36.5929 36.512V38.3475C36.5934 38.7031 36.2711 38.9909 35.8736 38.9909Z" fill="#F19521"/>
<path d="M49.1568 38.9909C48.7593 38.9909 48.4375 38.7031 48.4375 38.3475V36.512C48.4375 36.1569 48.7598 35.8687 49.1568 35.8687C49.5543 35.8687 49.8761 36.1569 49.8761 36.512V38.3475C49.8761 38.7031 49.5543 38.9909 49.1568 38.9909Z" fill="#F19521"/>
<path d="M36.2945 51.4379L39.3901 48.9511C39.5479 48.8237 39.7051 48.6793 39.8628 48.5178C40.0205 48.3569 40.0994 48.169 40.0994 47.954C40.0994 47.7126 40.0014 47.5227 39.8067 47.3849C39.6114 47.2471 39.3827 47.1785 39.1202 47.1785C38.8048 47.1785 38.5592 47.2656 38.383 47.4403C38.2067 47.615 38.1072 47.8299 38.0845 48.0846L36.3961 47.9739C36.4183 47.6046 36.5046 47.2841 36.6549 47.0124C36.8052 46.7406 37.0037 46.5139 37.2514 46.3325C37.4991 46.1512 37.7897 46.0153 38.1236 45.9249C38.4576 45.8344 38.8196 45.7891 39.2097 45.7891C39.5701 45.7891 39.9078 45.8344 40.2227 45.9249C40.5376 46.0153 40.8118 46.1498 41.0447 46.3278C41.277 46.5058 41.4591 46.7288 41.5909 46.9977C41.7221 47.2661 41.7877 47.5786 41.7877 47.9342C41.7877 48.1623 41.7612 48.3687 41.7088 48.5533C41.6564 48.738 41.5829 48.906 41.4892 49.0566C41.3956 49.2076 41.2844 49.3473 41.1574 49.4746C41.0298 49.6025 40.8906 49.7264 40.7408 49.8472L38.3205 51.7101H41.8549V53.0396H36.2939V51.4379H36.2945Z" fill="#F19521"/>
<path d="M45.8411 50.4915C45.7512 50.5114 45.6612 50.5284 45.5712 50.5417C45.4812 50.5554 45.387 50.5616 45.2897 50.5616C44.9144 50.5616 44.5731 50.5015 44.2656 50.3803C43.9575 50.2596 43.695 50.0949 43.4775 49.887C43.2599 49.6792 43.0911 49.4324 42.9709 49.147C42.8508 48.862 42.791 48.5581 42.791 48.2357C42.791 47.8664 42.8677 47.5327 43.0217 47.234C43.1752 46.9352 43.3859 46.6785 43.6521 46.4636C43.9183 46.2487 44.2317 46.0825 44.5921 45.9651C44.9525 45.8477 45.3426 45.7891 45.7628 45.7891C46.1757 45.7891 46.5636 45.8477 46.9277 45.9651C47.2918 46.0825 47.6068 46.2487 47.8736 46.4636C48.1398 46.6785 48.3499 46.9352 48.5039 47.234C48.6574 47.5327 48.7347 47.8669 48.7347 48.2357C48.7347 48.4909 48.7082 48.7238 48.6558 48.9354C48.6034 49.1471 48.5341 49.3468 48.4478 49.5347C48.3615 49.7227 48.2599 49.9021 48.144 50.0735C48.0276 50.2449 47.9058 50.4211 47.7783 50.6024L46.0333 53.0391H43.9734L45.8411 50.4915ZM44.4788 48.2963C44.4788 48.6187 44.5969 48.8852 44.8335 49.0968C45.07 49.3084 45.3791 49.4141 45.7623 49.4141C46.1455 49.4141 46.4546 49.3084 46.6912 49.0968C46.9278 48.8852 47.0458 48.6187 47.0458 48.2963C47.0458 47.9739 46.9278 47.7074 46.6912 47.4958C46.4546 47.2841 46.1455 47.1785 45.7623 47.1785C45.3791 47.1785 45.07 47.2841 44.8335 47.4958C44.5974 47.7074 44.4788 47.9743 44.4788 48.2963Z" fill="#F19521"/>
<path d="M45.8483 56.7857H39.1849C39.0229 56.7857 38.8916 56.6684 38.8916 56.5235C38.8916 56.3786 39.0229 56.2612 39.1849 56.2612H45.8483C46.0102 56.2612 46.1415 56.3786 46.1415 56.5235C46.1415 56.6684 46.0102 56.7857 45.8483 56.7857Z" fill="#F19521"/>
<path d="M19.2232 146.386C25.5088 136.092 5.6666 131.252 0.88363 135.335C-3.89987 139.418 11.958 158.284 19.2232 146.386Z" fill="#F19521"/>
<path d="M27.5649 143.245C39.8994 143.245 34.3172 123.51 29.0436 123.51C22.432 123.511 13.3139 143.245 27.5649 143.245Z" fill="#F19521"/>
<path d="M37.0711 150.403C47.2404 157.808 56.1781 141.239 52.5622 136.288C48.9462 131.336 25.3167 141.844 37.0711 150.403Z" fill="#F19521"/>
<path d="M24.1036 155.302C22.3872 151.75 19.8748 148.44 16.6368 145.465C11.1277 140.404 5.33324 138.03 5.27502 138.007C5.10248 137.937 4.89921 138.006 4.82141 138.16C4.74361 138.314 4.82035 138.495 4.99236 138.565C5.049 138.588 10.7434 140.924 16.162 145.908C19.3376 148.829 21.7998 152.075 23.4796 155.558C23.6702 155.953 23.8475 156.352 24.0179 156.754H24.7509C24.5493 156.266 24.3349 155.781 24.1036 155.302Z" fill="#D47907"/>
<path d="M28.738 127.556C28.7602 127.388 28.6258 127.236 28.4379 127.216C28.2495 127.195 28.0796 127.315 28.0574 127.484C28.0351 127.652 26.3055 140.876 26.3939 156.754H27.0793C26.9909 140.918 28.7158 127.724 28.738 127.556Z" fill="#D47907"/>
<path d="M49.139 138.505C49.0336 138.364 48.8208 138.326 48.6636 138.42C48.6144 138.449 43.6669 141.426 38.5769 146.322C35.8046 148.989 32.6534 152.564 30.3447 156.754H31.1111C33.3679 152.749 36.3963 149.322 39.0681 146.75C44.1045 141.904 48.9955 138.959 49.0448 138.93C49.2014 138.836 49.2438 138.646 49.139 138.505Z" fill="#D47907"/>
<path d="M27.0783 156.754H26.3929H24.7516H24.0186H14.4511C14.0833 156.754 13.8223 157.076 13.9361 157.389L14.54 159.046L14.8459 159.885L19.2182 171.885C19.3367 172.21 19.6765 172.431 20.0592 172.431H35.8191C36.2018 172.431 36.5416 172.21 36.6601 171.885L41.0324 159.885L41.3378 159.046L41.9417 157.389C42.056 157.076 41.7951 156.754 41.4272 156.754H31.1076H30.3412H27.0783Z" fill="#D2DCFF"/>
<path d="M41.3394 159.045L41.034 159.884H14.8464L14.541 159.045H41.3394Z" fill="#AEC3FF"/>
</svg>
